<svg xmlns="http://www.w3.org/2000/svg" xmlns:xlink="http://www.w3.org/1999/xlink" viewBox="0 0 35 36">
                                                <path fill-rule="evenodd" fill="rgb(255, 255, 255)" d="M34.530,33.296 C35.150,33.913 35.150,34.914 34.530,35.531 C34.221,35.840 33.815,35.994 33.409,35.994 C33.003,35.994 32.597,35.840 32.287,35.531 L26.306,29.573 C26.270,29.537 26.243,29.496 26.211,29.457 C23.473,31.500 20.077,32.712 16.402,32.712 C7.357,32.712 -0.002,25.375 -0.002,16.357 C-0.002,7.339 7.357,0.002 16.402,0.002 C25.446,0.002 32.805,7.339 32.805,16.357 C32.805,20.579 31.192,24.432 28.548,27.337 C28.549,27.337 28.549,27.337 28.550,27.338 L34.530,33.296 ZM30.329,16.357 C30.329,8.700 24.081,2.471 16.402,2.471 C8.722,2.471 2.474,8.700 2.474,16.357 C2.474,24.014 8.722,30.244 16.402,30.244 C24.081,30.244 30.329,24.014 30.329,16.357 ZM23.435,17.591 L17.640,17.591 L17.640,23.370 C17.640,24.051 17.085,24.604 16.402,24.604 C15.718,24.604 15.164,24.051 15.164,23.370 L15.164,17.591 L9.368,17.591 C8.685,17.591 8.131,17.039 8.131,16.357 C8.131,15.675 8.685,15.122 9.368,15.122 L15.164,15.122 L15.164,9.344 C15.164,8.662 15.718,8.110 16.402,8.110 C17.085,8.110 17.640,8.662 17.640,9.344 L17.640,15.122 L23.435,15.122 C24.118,15.122 24.673,15.675 24.673,16.357 C24.673,17.039 24.118,17.591 23.435,17.591 Z"/>
                                            </svg>