<svg data-name="Layer 1" viewBox="0 0 113.67 74.56" xmlns="http://www.w3.org/2000/svg">
<title/>
<g data-name="Layer 2" id="Layer_2"> <g data-name="Layer 4" id="Layer_4"> <path d="M17.29,0h25A17.29,17.29,0,0,1,59.57,17.29h0A17.29,17.29,0,0,1,42.28,34.58h-25A17.29,17.29,0,0,1,0,17.29H0A17.29,17.29,0,0,1,17.29,0Z" style="fill: #c7ddea"/> <circle cx="16.46" cy="16.38" r="4.72" style="fill: #fff"/> <circle cx="30.86" cy="16.38" r="4.72" style="fill: #fff"/> <circle cx="45.25" cy="16.38" r="4.72" style="fill: #fff"/> <path d="M40.54,30.44v10a2,2,0,0,1-2,2A2,2,0,0,1,37.29,42L24.49,32" style="fill: #c7ddea"/> <path d="M96.38,66.66h-25A17.29,17.29,0,0,1,54.1,49.37h0A17.29,17.29,0,0,1,71.39,32.08h25a17.29,17.29,0,0,1,17.29,17.29h0A17.29,17.29,0,0,1,96.38,66.66Z" style="fill: #1aa1fc"/> <path d="M73.13,62.53v10a2,2,0,0,0,2,2,2,2,0,0,0,1.28-.44l12.8-10" style="fill: #1aa1fc"/> <polygon points="83.89 37.85 87.42 45 95.32 46.15 89.6 51.72 90.95 59.58 83.89 55.87 76.83 59.58 78.18 51.72 72.46 46.15 80.36 45 83.89 37.85" style="fill: #fff"/> </g> </g> </svg>