<svg data-name="Layer 1" viewBox="0 0 81.35 83.2" xmlns="http://www.w3.org/2000/svg" xmlns:xlink="http://www.w3.org/1999/xlink"> <defs> <linearGradient gradientUnits="userSpaceOnUse" id="linear-gradient" x1="11.52" x2="23.13" y1="68.4" y2="68.4"> <stop offset="0" stop-color="#6cc0ff"/> <stop offset="1" stop-color="#51aee6"/> </linearGradient> </defs>
<title/>
<g data-name="Layer 2" id="Layer_2"> <g data-name="Layer 4" id="Layer_4"> <circle cx="40.72" cy="39.48" r="16.81" style="fill: #93c01f"/> <polygon points="38.09 47.3 31.22 41.4 33.82 38.36 37.88 41.85 47.52 32.21 50.34 35.03 38.09 47.3" style="fill: #fff"/> <path d="M6.47,59.92a38.44,38.44,0,0,1,.31-40.1l3.39,2.12A34.46,34.46,0,0,0,9.9,57.86Z" style="fill: #c7ddea"/> <path d="M10.21,28.09,8.15,21.88l-7,2.06L0,20.11l8.88-2.6a2,2,0,0,1,2.46,1.29l2.66,8Z" style="fill: #c7ddea"/> <path d="M73.29,30.59a35.17,35.17,0,0,0-26.77-24l.76-3.93A39.21,39.21,0,0,1,77.11,29.41Z" style="fill: #c7ddea"/> <path d="M75.67,33.66a2,2,0,0,1-.8-.17l-7.75-3.38,1.6-3.67,6,2.59,3-6.45,3.63,1.67L77.49,32.5A2,2,0,0,1,75.67,33.66Z" style="fill: #c7ddea"/> <path d="M38.28,77.62A38.82,38.82,0,0,1,33,77.25l.55-4a35.19,35.19,0,0,0,33.08-14l3.23,2.35a39.26,39.26,0,0,1-31.59,16Z" style="fill: #c7ddea"/> <path d="M35.88,83.2,30,76.29a2,2,0,0,1,.21-2.79l6.34-5.59,2.64,3L34.35,75.2l4.58,5.42Z" style="fill: #c7ddea"/> </g> <g data-name="Layer 6" id="Layer_6"> <circle cx="27.45" cy="5.81" r="5.81" style="fill: #f9737a"/> <circle cx="74.65" cy="48.3" r="5.81" style="fill: #ffe269"/> </g> </g> <circle cx="17.32" cy="68.4" r="5.8" style="fill: url(#linear-gradient)"/> </svg>