<svg data-name="Layer 1" viewBox="0 0 59.28 74.07" xmlns="http://www.w3.org/2000/svg">
<title/>
<g data-name="Layer 2" id="Layer_2"> <g data-name="Layer 4" id="Layer_4"> <path d="M39.55,68l-9.9,6.07L19.74,68C7.37,60.42,0,48,0,34.76v-24a29.19,29.19,0,0,0,18.89-1.4A23.85,23.85,0,0,0,29.64,0a26.15,26.15,0,0,0,12.3,9.5,30.8,30.8,0,0,0,17.34,1.24v24C59.29,48,51.92,60.42,39.55,68Z" style="fill: #ffe269"/> <circle cx="29.64" cy="35.5" r="15.55" style="fill: #fc9e48"/> <polygon points="27.21 42.92 20.75 37.39 23.35 34.35 27 37.48 35.83 28.66 38.65 31.5 27.21 42.92" style="fill: #fff"/> </g> </g> </svg>