<svg id="Layer_1" data-name="Layer 1" xmlns="http://www.w3.org/2000/svg" xmlns:xlink="http://www.w3.org/1999/xlink" viewBox="0 0 539.91 591">
  <defs>
    <clipPath id="clip-path" transform="translate(-7.08 -9.22)">
      <rect x="7.08" y="9.22" width="539.49" height="532" rx="266" ry="266" style="fill: none"/>
    </clipPath>
  </defs>
  <title>Davis</title>
  <g style="clip-path: url(#clip-path)">
    <rect width="539.49" height="532" rx="266" ry="266" style="fill: #f44a5a"/>
    <path d="M201.83,230.75c-1.9,5.15-16.3,46.31,7.39,81.33a81.55,81.55,0,0,0,30.61,26.67" transform="translate(-7.08 -9.22)" style="fill: #211d1b"/>
    <path d="M363.86,110.86c11.38,6.29,48,28.44,59.73,71.2,2.49,9.11,13.53,49.31-8.38,70.34a42.4,42.4,0,0,1-18,10" transform="translate(-7.08 -9.22)" style="fill: #211d1b"/>
    <path d="M455.45,502.67a127.82,127.82,0,0,0-79.54-108.88l-90-36.37-22.29-.27a169.23,169.23,0,0,0-105.89,35.59L116.22,425A127.81,127.81,0,0,0,68.28,506.9L54.21,600.22H460.82Z" transform="translate(-7.08 -9.22)" style="fill: #0f0f0f"/>
    <path d="M284.26,444.57h0c-41.3,0-64-34.52-64-62.92V256.43c0-15,13.2-27.21,29.5-27.21h84.5V381.65C334.26,410.05,325.71,444.57,284.26,444.57Z" transform="translate(-7.08 -9.22)" style="fill: #f9e1d9"/>
    <path d="M260.32,318.79A14.72,14.72,0,0,0,248.61,340c11.2,22.35,30.81,58.49,43.23,64.37,7.13,3.38,15,4.11,22,3.74,11.06-.57,20.21-9.45,21.87-21.24l7.54-53.59s-58.91-15.08-72.83-15.08A98.51,98.51,0,0,0,260.32,318.79Z" transform="translate(-7.08 -9.22)" style="fill: #f7aea5"/>
    <path d="M318.14,370.55h0c-28.71-1-55.11-18.9-70.61-37.85-10.86-13.27-17-29.58-16.4-47l3-86.2c1.26-36.15,36.09-64.27,77.78-62.81l25.77.9c3.83-.22,31.9-5.91,53.77,15.2,20.83,20.11,19.84,49.21,19.43,52.89L408,289.33a29.59,29.59,0,0,1-.76,5.7C397.59,336.33,355.76,370.61,318.14,370.55Z" transform="translate(-7.08 -9.22)" style="fill: #f9e1d9"/>
    <rect x="0.41" width="539.49" height="532" rx="266" ry="266" style="fill: none"/>
    <path d="M346.85,298.05l-2.69,1.65a9.72,9.72,0,0,1-10.4,0l-2.68-1.65c-4-2.48-6.34-7.55-5.91-12.83l2.68-33.14c.54-6.73,5.36-11.86,11.11-11.86h0c5.76,0,10.57,5.13,11.12,11.86l2.68,33.14C353.19,290.5,350.85,295.57,346.85,298.05Z" transform="translate(-7.08 -9.22)" style="fill: #f7aea5"/>
    <path d="M407.47,152.88c-19.68-43.7-68.23-55-112.36-51.17-37.52,3.26-70.54,28.8-80,65.55a103.34,103.34,0,0,0-.89,48c1.84,8.26,4,28.5,6.73,36.39,1.41,4,0,0,2.5,3.23,1.63,2.11,5.62-8,6.79-4.61l5,27,5.08-4.64c8-7.26,8.77-18.91,9.13-29.7q-.16-13.19-.32-26.38c-.24-20.27-3.2-40.63,16.25-53.7a9.82,9.82,0,0,1,3.16-1.56c8.41-2,25.28,8.57,33.21,11.39,12,4.26,24.4,7.11,37.19,5.58,8.64-1,17.76-2.32,24.74-7.93,4.36-3.51,7.93-7.7,12.17-11,7.43-5.72,17.95-1.45,20.18,7.66a1.62,1.62,0,0,0,.16.43c13,23,11.35,32.81,13.67,49,1.18,8.26,2.1,12.2.06,20.36C409.94,236.76,422.81,187,407.47,152.88Z" transform="translate(-7.08 -9.22)" style="fill: #211d1b"/>
    <path d="M228.21,199.07a122.75,122.75,0,0,0,37,12c7.1,1.09,54.45,7.62,93-24,10.51-8.62,31-25.4,27-39-5.94-20.36-65.12-28.41-111-10a129.22,129.22,0,0,0-36,22" transform="translate(-7.08 -9.22)" style="fill: #211d1b"/>
    <path d="M314.71,203.07c8.67,1.16,28.09,2.46,47-8.5,17.65-10.22,35.27-31.37,29.76-41.79-.93-1.76-5.19-8.26-26.76-6.71" transform="translate(-7.08 -9.22)" style="fill: #211d1b"/>
    <path d="M219.88,287.5c-8.93-8.6-36.51-37.42-36.67-78.43-.25-63.11,64.57-111.93,116-112,22,0,50.64,8.88,52,21.72,1.23,11.57-19.66,26-51.33,35.48" transform="translate(-7.08 -9.22)" style="fill: #211d1b"/>
    <path d="M194.26,271.22c0,17.52,15.09,32,34.78,34.6a5.54,5.54,0,0,0,6.22-5.51V243.53a6.75,6.75,0,0,0-7.81-6.68C208.54,240,194.26,254.17,194.26,271.22Z" transform="translate(-7.08 -9.22)" style="fill: #f9e1d9"/>
    <path d="M208.81,271.94A17.94,17.94,0,0,0,215.62,286a7,7,0,0,0,11.17-5.55V263.39a7,7,0,0,0-11.17-5.54A17.94,17.94,0,0,0,208.81,271.94Z" transform="translate(-7.08 -9.22)" style="fill: #f7aea5"/>
    <path d="M214.24,209.91c4,4,32.25,31.28,74.31,30.28,43.41-1,83.88-31.74,92.66-75.12" transform="translate(-7.08 -9.22)" style="fill: #211d1b"/>
  </g>
</svg>
