<svg xmlns="http://www.w3.org/2000/svg" xmlns:xlink="http://www.w3.org/1999/xlink" viewBox="0 0 167.5 189.88">
  <defs>
    <linearGradient id="Градієнт_без_назви_83" data-name="Градієнт без назви 83" x1="75.28" y1="176.2" x2="133.79" y2="23.01" gradientUnits="userSpaceOnUse">
      <stop offset="0" stop-color="#a5bdcb"/>
      <stop offset="1" stop-color="#d8e9f4" stop-opacity="0"/>
    </linearGradient>
    <linearGradient id="Градієнт_без_назви_69" data-name="Градієнт без назви 69" x1="65.36" y1="164.95" x2="127.46" y2="56.26" gradientUnits="userSpaceOnUse">
      <stop offset="0" stop-color="#c7d1e0"/>
      <stop offset="1" stop-color="#b3cade"/>
    </linearGradient>
    <linearGradient id="Градієнт_без_назви_31" data-name="Градієнт без назви 31" x1="7.65" y1="129.51" x2="165.49" y2="129.51" gradientUnits="userSpaceOnUse">
      <stop offset="0" stop-color="#9abed8"/>
      <stop offset="1" stop-color="#9abed8" stop-opacity="0.7"/>
    </linearGradient>
    <linearGradient id="Градієнт_без_назви_32" data-name="Градієнт без назви 32" x1="64.27" y1="135.22" x2="143.15" y2="99.66" gradientUnits="userSpaceOnUse">
      <stop offset="0" stop-color="#d7e6f2"/>
      <stop offset="1" stop-color="#dee2f3"/>
    </linearGradient>
    <linearGradient id="Градієнт_без_назви_69-2" x1="-0.61" y1="59.56" x2="119.43" y2="77.42" xlink:href="#Градієнт_без_назви_69"/>
    <linearGradient id="Градієнт_без_назви_31-2" x1="4.9" y1="67.51" x2="101.28" y2="67.51" xlink:href="#Градієнт_без_назви_31"/>
    <linearGradient id="Градієнт_без_назви_69-3" x1="86.79" y1="141.94" x2="130.95" y2="132.26" xlink:href="#Градієнт_без_назви_69"/>
    <linearGradient id="Градієнт_без_назви_69-4" x1="62.61" y1="126.63" x2="189.49" y2="82.56" xlink:href="#Градієнт_без_назви_69"/>
    <linearGradient id="Градієнт_без_назви_31-3" x1="68.73" y1="159.79" x2="73.11" y2="151.86" xlink:href="#Градієнт_без_назви_31"/>
    <linearGradient id="Градієнт_без_назви_31-4" x1="144.32" y1="116.46" x2="148.7" y2="108.52" xlink:href="#Градієнт_без_назви_31"/>
    <clipPath id="clip-path" transform="translate(-4.9 -3)">
      <polygon points="56.55 117.63 56.38 55.15 140.87 6.37 141.04 68.85 56.55 117.63" style="fill: none"/>
    </clipPath>
    <clipPath id="clip-path-2" transform="translate(-4.9 -3)">
      <polygon points="91.73 121.16 91.56 61.5 172.24 14.93 172.41 74.59 91.73 121.16" style="fill: none"/>
    </clipPath>
  </defs>
  <title>web-dev</title>
  <g style="isolation: isolate">
    <g id="Web_design">
      <g>
        <path d="M73.09,192.66l91.57-52.81a1.65,1.65,0,0,0,0-2.85L103.13,99.79a1.65,1.65,0,0,0-1.64,0l-93,53.68a1.65,1.65,0,0,0,0,2.88l63,36.35A1.62,1.62,0,0,0,73.09,192.66Z" transform="translate(-4.9 -3)" style="opacity: 0.33;mix-blend-mode: multiply;fill: url(#Градієнт_без_назви_83)"/>
        <path d="M162.21,117v1.82L103.13,83.08a1.65,1.65,0,0,0-1.64,0L9.85,135.73l-.28-2.25-1.92,0v4.66h0a1.67,1.67,0,0,0,.82,1.42l63,36.35a1.62,1.62,0,0,0,1.65,0l91.57-52.81a1.66,1.66,0,0,0,.83-1.43V117Z" transform="translate(-4.9 -3)" style="fill: url(#Градієнт_без_назви_69)"/>
        <path d="M162.21,117v1.82L103.13,83.08a1.65,1.65,0,0,0-1.64,0L11.38,133.93l-1.81-.45-1.92,0v4.66h0a1.67,1.67,0,0,0,.82,1.42l63,36.35a1.62,1.62,0,0,0,1.65,0l91.57-52.81a1.66,1.66,0,0,0,.83-1.43V117Z" transform="translate(-4.9 -3)" style="opacity: 0.7000000000000001;mix-blend-mode: multiply;fill: url(#Градієнт_без_назви_31)"/>
        <path d="M73.09,171.29l91.57-52.81a1.65,1.65,0,0,0,0-2.85L103.13,78.42a1.65,1.65,0,0,0-1.64,0l-93,53.68a1.65,1.65,0,0,0,0,2.88l63,36.35A1.63,1.63,0,0,0,73.09,171.29Z" transform="translate(-4.9 -3)" style="fill: url(#Градієнт_без_назви_32)"/>
        <path d="M101.38,4.6,98.74,3.18h0a1.64,1.64,0,0,0-1.59,0L5.71,57.55A1.64,1.64,0,0,0,4.9,59v71.18a.82.82,0,0,0,.45.73h0l2.54,1.19,1.34-3L99.65,76.94V7.55l.51.33Z" transform="translate(-4.9 -3)" style="fill: url(#Градієнт_без_назви_69-2)"/>
        <path d="M101.28,4.48l-2.54-1.3h0a1.64,1.64,0,0,0-1.59,0L5.71,57.55A1.64,1.64,0,0,0,4.9,59v71.18a.82.82,0,0,0,.45.73h0L8.22,132l1-2.95L99.65,76.94V7.55l.51.33Z" transform="translate(-4.9 -3)" style="opacity: 0.7000000000000001;mix-blend-mode: multiply;fill: url(#Градієнт_без_назви_31-2)"/>
        <path d="M73.09,171.29l91.57-52.81a1.65,1.65,0,0,0,0-2.85L103.13,78.42a1.65,1.65,0,0,0-1.64,0l-93,53.68a1.65,1.65,0,0,0,0,2.88l63,36.35A1.63,1.63,0,0,0,73.09,171.29Z" transform="translate(-4.9 -3)" style="fill: none"/>
        <path d="M124.3,136.22,102.44,149a1.68,1.68,0,0,1-1.64,0l-13-7.19a1.65,1.65,0,0,1,0-2.87l21-12.29a1.64,1.64,0,0,1,1.62,0l13.82,7.58A1.16,1.16,0,0,1,124.3,136.22Z" transform="translate(-4.9 -3)" style="fill: url(#Градієнт_без_назви_69-3)"/>
        <path d="M130.23,108.73,59.12,150.51a1.66,1.66,0,0,1-1.68,0L31,134.85a1.65,1.65,0,0,1,0-2.84l71-41.74a1.63,1.63,0,0,1,1.68,0l26.5,15.61A1.65,1.65,0,0,1,130.23,108.73Z" transform="translate(-4.9 -3)" style="fill: url(#Градієнт_без_назви_69-4)"/>
        <path d="M93.84,86.77,22.73,128.55a1.63,1.63,0,0,1-1.68,0l-3.33-1.83c-1.08-.65.66-1.27,1.74-1.91l71-41.74a1.66,1.66,0,0,1,1.67,0l1.71.86A1.65,1.65,0,0,1,93.84,86.77Z" transform="translate(-4.9 -3)" style="fill: #2a3c67"/>
        <path d="M102.21,78,8.69,131.92a.83.83,0,0,1-1.24-.72V60a1.66,1.66,0,0,1,.81-1.42L99.71,4.29a1.66,1.66,0,0,1,2.5,1.42Z" transform="translate(-4.9 -3)" style="fill: #2a3c67"/>
        <path d="M96.5,11.94,13.55,61.13a1.63,1.63,0,0,0-.8,1.4v61.58a.73.73,0,0,0,1.1.64L98.71,75.87V13.2A1.47,1.47,0,0,0,96.5,11.94Z" transform="translate(-4.9 -3)" style="fill: #ffe269"/>
        <path d="M73.63,166.9l.59-.26c.23-.1.45-.21.65-.32a7.9,7.9,0,0,0,1.11-.73c2-1.56,2.2-3.65.32-5.21l-1.5-.92h0l-.07,0-.24-.1-.06,0-.26-.1h0l-.28-.1h0l-.3-.09h0l-.32-.08h0l-.34-.08h0a13.27,13.27,0,0,0-8,.8,17.33,17.33,0,0,0-6,4.35l8.36,4.83.1,0,.23,0,.36-.07.23,0,.37-.08.22-.05.39-.09.2,0,.5-.12.1,0,.6-.16.16-.05.43-.13.22-.07.38-.12.24-.08.36-.13.24-.08.37-.14.23-.09.4-.16Z" transform="translate(-4.9 -3)" style="fill: #7e9daa;opacity: 0.35000000000000003;mix-blend-mode: multiply"/>
        <path d="M71.75,139.2A21.78,21.78,0,0,0,65,154.13a7.7,7.7,0,0,0,7.6,8,7.56,7.56,0,0,0,7.51-7.56,21.67,21.67,0,0,0-6.8-15.35A1.1,1.1,0,0,0,71.75,139.2Z" transform="translate(-4.9 -3)" style="fill: #9dcc4a"/>
        <path d="M76.39,156.23a7.71,7.71,0,0,1-7.6-8,19.83,19.83,0,0,1,1.78-7.81A21.38,21.38,0,0,0,65,154.13a7.7,7.7,0,0,0,7.6,8A7.55,7.55,0,0,0,80,155.26,7.49,7.49,0,0,1,76.39,156.23Z" transform="translate(-4.9 -3)" style="opacity: 0.7000000000000001;mix-blend-mode: multiply;fill: url(#Градієнт_без_назви_31-3)"/>
        <path d="M150.39,116.12h0l-.07,0-.24-.1-.06,0-.26-.1,0,0-.27-.09h0l-.3-.1h0l-.32-.09h0l-.34-.08h0a13.19,13.19,0,0,0-8.05.81c-6.74,3.16-8.07,7.49-8.33,9.07-.06.35.37.66,1,.69s1.3.06,2.2.07h2.1l.38,0h.2l.37,0,.19,0,.31,0,.22,0,.3,0,.22,0,.32,0,.22,0,.33,0,.21,0,.4,0,.15,0,.56-.08.12,0,.45-.07.2,0,.38-.06.22,0,.36-.07.23,0,.37-.08.22,0,.4-.1.19,0,.5-.13.1,0,.6-.17.16,0,.43-.13.22-.06.38-.13.24-.08.36-.13L148,124l.37-.14.23-.09.4-.16.19-.08.59-.25c.23-.11.45-.21.65-.33a7.87,7.87,0,0,0,1.11-.72c2-1.57,2.2-3.65.32-5.21" transform="translate(-4.9 -3)" style="fill: #7e9daa;opacity: 0.35000000000000003;mix-blend-mode: multiply"/>
        <path d="M147.34,95.86a21.78,21.78,0,0,0-6.79,14.93,7.7,7.7,0,0,0,7.6,8,7.55,7.55,0,0,0,7.51-7.55,21.64,21.64,0,0,0-6.8-15.35A1.1,1.1,0,0,0,147.34,95.86Z" transform="translate(-4.9 -3)" style="fill: #9dcc4a"/>
        <path d="M152,112.89a7.7,7.7,0,0,1-7.6-8,20.28,20.28,0,0,1,1.78-7.82,21.43,21.43,0,0,0-5.61,13.7,7.7,7.7,0,0,0,7.6,8,7.54,7.54,0,0,0,7.47-6.84A7.59,7.59,0,0,1,152,112.89Z" transform="translate(-4.9 -3)" style="opacity: 0.7000000000000001;mix-blend-mode: multiply;fill: url(#Градієнт_без_назви_31-4)"/>
        <path d="M34.84,54.43A3.75,3.75,0,0,0,33,57.69v64.13L104,82.73l-1.79-66.59Z" transform="translate(-4.9 -3)" style="fill: #c48551;opacity: 0.34;mix-blend-mode: multiply"/>
        <g style="isolation: isolate">
          <g style="clip-path: url(#clip-path)">
            <g>
              <path d="M63.94,104.93c-.41.23-.74,0-.74-.42a1.65,1.65,0,0,1,.73-1.27l17-9.82c.41-.23.74,0,.74.42A1.64,1.64,0,0,1,81,95.11l-17,9.82M85.67,92.38c-.4.24-.73,0-.73-.42a1.61,1.61,0,0,1,.72-1.26l16.12-9.31c.41-.23.74,0,.74.42a1.65,1.65,0,0,1-.73,1.27l-16.12,9.3M108,79.51c-.4.23-.73,0-.73-.43a1.59,1.59,0,0,1,.73-1.26l10.83-6.25c.4-.24.73,0,.73.42a1.62,1.62,0,0,1-.73,1.26L108,79.51m14.09-8.14c-.41.24-.74,0-.74-.42a1.62,1.62,0,0,1,.73-1.26l13.68-7.9c.4-.23.73,0,.73.42a1.57,1.57,0,0,1-.73,1.27l-13.67,7.89M63.92,98.94c-.4.23-.73,0-.74-.42a1.6,1.6,0,0,1,.74-1.26L67.82,95c.41-.23.73,0,.74.42a1.6,1.6,0,0,1-.73,1.26l-3.91,2.26m7.16-4.13c-.4.23-.73,0-.73-.42a1.61,1.61,0,0,1,.73-1.27l9.85-5.68c.4-.24.73,0,.73.42a1.61,1.61,0,0,1-.73,1.26l-9.85,5.69m14.57-8.42c-.4.24-.73,0-.73-.42a1.59,1.59,0,0,1,.73-1.26l11.23-6.49c.41-.23.73,0,.74.43a1.63,1.63,0,0,1-.73,1.26L85.65,86.39m16.12-9.3c-.4.23-.73,0-.73-.42a1.6,1.6,0,0,1,.73-1.27l11.39-6.57c.41-.24.74,0,.74.42a1.63,1.63,0,0,1-.73,1.26l-11.4,6.58m17-9.83c-.4.24-.73,0-.73-.41a1.61,1.61,0,0,1,.73-1.27L122,63.7c.4-.23.73,0,.73.42a1.6,1.6,0,0,1-.73,1.26l-3.26,1.88m8.39-4.84c-.4.24-.74,0-.74-.41a1.6,1.6,0,0,1,.74-1.27l8.54-4.93c.4-.24.74-.05.74.42a1.63,1.63,0,0,1-.73,1.26l-8.55,4.93M63.9,93c-.4.24-.73,0-.73-.42a1.61,1.61,0,0,1,.73-1.26l11.72-6.76c.4-.24.73-.05.73.41a1.58,1.58,0,0,1-.73,1.27L63.9,93m17-9.82c-.4.24-.73.05-.73-.42a1.62,1.62,0,0,1,.73-1.26l10.91-6.3c.4-.23.73-.05.73.42a1.58,1.58,0,0,1-.73,1.26l-10.91,6.3m16-9.21c-.4.23-.73,0-.74-.42a1.6,1.6,0,0,1,.74-1.26l11.06-6.39c.41-.24.74,0,.74.41a1.62,1.62,0,0,1-.73,1.27L96.87,73.92m16.28-9.4c-.41.24-.73,0-.73-.42a1.61,1.61,0,0,1,.72-1.26L122,57.72c.4-.24.73,0,.74.41A1.62,1.62,0,0,1,122,59.4l-8.87,5.12M63.89,87c-.41.23-.74,0-.74-.42a1.6,1.6,0,0,1,.73-1.26L75.6,78.52c.41-.23.74,0,.74.42a1.62,1.62,0,0,1-.73,1.26L63.89,87m17-9.82c-.41.23-.74,0-.74-.42a1.64,1.64,0,0,1,.73-1.27L91.8,69.17c.41-.24.73,0,.74.41a1.64,1.64,0,0,1-.73,1.27L80.9,77.15m15.95-9.22c-.4.24-.73,0-.73-.42a1.63,1.63,0,0,1,.73-1.26l11.07-6.39c.4-.23.73,0,.73.42a1.57,1.57,0,0,1-.73,1.26L96.85,67.93m21.9-12.64c-.41.24-.73.05-.73-.42a1.61,1.61,0,0,1,.72-1.26l16.94-9.77c.4-.24.73-.05.73.41a1.63,1.63,0,0,1-.73,1.27l-16.93,9.77M63.87,81c-.4.24-.74,0-.74-.42a1.62,1.62,0,0,1,.73-1.26L91.79,63.18c.4-.24.73,0,.73.42a1.59,1.59,0,0,1-.73,1.26L63.87,81m33-19c-.41.23-.74,0-.74-.42a1.64,1.64,0,0,1,.73-1.27l4.89-2.82c.4-.23.73,0,.73.42a1.59,1.59,0,0,1-.73,1.27L96.84,62m11.07-6.39c-.41.23-.74,0-.74-.42a1.64,1.64,0,0,1,.73-1.27l10.83-6.25c.4-.23.73,0,.73.42a1.58,1.58,0,0,1-.73,1.27l-10.82,6.25M122,47.43c-.4.23-.74,0-.74-.42a1.62,1.62,0,0,1,.73-1.27l5.13-3c.41-.23.74,0,.74.42a1.64,1.64,0,0,1-.73,1.27l-5.13,3M63.85,75c-.4.23-.73,0-.73-.42a1.57,1.57,0,0,1,.73-1.27l11.72-6.77c.4-.23.73,0,.73.42a1.59,1.59,0,0,1-.73,1.27L63.85,75m17-9.82c-.4.23-.73,0-.73-.42a1.59,1.59,0,0,1,.73-1.27l4.72-2.73c.4-.23.74,0,.74.42a1.6,1.6,0,0,1-.74,1.27l-4.72,2.73m10.91-6.3c-.4.23-.73,0-.73-.42a1.59,1.59,0,0,1,.73-1.27l9.93-5.73c.4-.24.73-.05.74.42a1.6,1.6,0,0,1-.74,1.26l-9.93,5.74m16.12-9.31c-.41.24-.73,0-.73-.42a1.61,1.61,0,0,1,.72-1.26l23.45-13.54c.4-.23.73,0,.73.42a1.63,1.63,0,0,1-.72,1.27L107.89,49.57M63.84,69c-.41.23-.74,0-.74-.42a1.62,1.62,0,0,1,.73-1.26L71,63.19c.41-.23.74,0,.74.42A1.6,1.6,0,0,1,71,64.87L63.84,69m17-9.82c-.41.23-.74.05-.74-.42a1.65,1.65,0,0,1,.73-1.27l20.84-12c.41-.23.74,0,.74.42a1.6,1.6,0,0,1-.73,1.26l-20.84,12m27-15.61c-.4.24-.73.05-.73-.41a1.59,1.59,0,0,1,.73-1.27l5.21-3c.4-.23.73,0,.73.42a1.64,1.64,0,0,1-.73,1.27l-5.21,3M122,35.45c-.41.24-.74,0-.74-.41a1.62,1.62,0,0,1,.73-1.27l5.13-3c.4-.24.73,0,.73.42a1.61,1.61,0,0,1-.72,1.26l-5.13,3m9.36-5.4c-.41.23-.74.05-.74-.42a1.65,1.65,0,0,1,.73-1.27l4.32-2.49c.4-.23.73,0,.73.42a1.64,1.64,0,0,1-.73,1.27l-4.31,2.49M56.4,62.48l.15,53c0,1.19.84,1.67,1.88,1.07l80.74-46.62A4.12,4.12,0,0,0,141,66.7l-.15-52.39L56.4,63.09v-.61" transform="translate(-4.9 -3)" style="fill: #2a3c67"/>
              <path d="M124.77,20.62c-.47.28-.86.06-.86-.48a1.88,1.88,0,0,1,.85-1.48c.48-.27.86-.06.86.49a1.87,1.87,0,0,1-.85,1.47m4.64-2.68c-.48.28-.86.06-.86-.48A1.88,1.88,0,0,1,129.4,16c.47-.27.86-.05.86.49a1.87,1.87,0,0,1-.85,1.47m4.64-2.67c-.47.27-.86.05-.86-.49A1.88,1.88,0,0,1,134,13.3c.47-.27.86-.05.86.49a1.91,1.91,0,0,1-.85,1.48m5.06-7.88-81,46.75a3.84,3.84,0,0,0-1.76,3l0,5.31v.61l84.49-48.78,0-5.92c0-1.12-.79-1.57-1.76-1" transform="translate(-4.9 -3)" style="fill: #f9f9f9"/>
              <path d="M124.76,18.66a1.88,1.88,0,0,0-.85,1.48c0,.54.39.76.86.48a1.87,1.87,0,0,0,.85-1.47c0-.55-.38-.76-.86-.49" transform="translate(-4.9 -3)" style="fill: #2a3c67"/>
              <path d="M129.4,16a1.88,1.88,0,0,0-.85,1.48c0,.54.38.76.86.48a1.87,1.87,0,0,0,.85-1.47c0-.54-.39-.76-.86-.49" transform="translate(-4.9 -3)" style="fill: #f9737a"/>
              <path d="M134,13.3a1.88,1.88,0,0,0-.85,1.48c0,.54.39.76.86.49a1.91,1.91,0,0,0,.85-1.48c0-.54-.39-.76-.86-.49" transform="translate(-4.9 -3)" style="fill: #ffe269"/>
              <path d="M135.63,25.87l-4.32,2.49a1.65,1.65,0,0,0-.73,1.27c0,.47.33.65.74.42l4.31-2.49a1.64,1.64,0,0,0,.73-1.27c0-.46-.33-.65-.73-.42" transform="translate(-4.9 -3)" style="fill: #ffe269"/>
              <path d="M127.08,30.81l-5.13,3a1.62,1.62,0,0,0-.73,1.27c0,.46.33.65.74.41l5.13-3a1.61,1.61,0,0,0,.72-1.26c0-.46-.33-.66-.73-.42" transform="translate(-4.9 -3)" style="fill: #fff"/>
              <path d="M113.08,38.89l-5.21,3a1.59,1.59,0,0,0-.73,1.27c0,.46.33.65.73.41l5.21-3a1.64,1.64,0,0,0,.73-1.27c0-.46-.33-.65-.73-.42" transform="translate(-4.9 -3)" style="fill: #ffe269"/>
              <path d="M101.68,45.47l-20.84,12a1.65,1.65,0,0,0-.73,1.27c0,.47.33.65.74.42l20.84-12a1.6,1.6,0,0,0,.73-1.26c0-.46-.33-.65-.74-.42" transform="translate(-4.9 -3)" style="fill: #fff"/>
              <path d="M71,63.19l-7.16,4.14a1.62,1.62,0,0,0-.73,1.26c0,.47.33.65.74.42L71,64.87a1.6,1.6,0,0,0,.73-1.26c0-.46-.33-.65-.74-.42" transform="translate(-4.9 -3)" style="fill: #fff"/>
              <path d="M131.33,34.35,107.88,47.89a1.61,1.61,0,0,0-.72,1.26c0,.47.32.66.73.42L131.34,36a1.63,1.63,0,0,0,.72-1.27c0-.46-.33-.65-.73-.42" transform="translate(-4.9 -3)" style="fill: #fff"/>
              <path d="M101.7,51.46l-9.93,5.73A1.59,1.59,0,0,0,91,58.46c0,.46.33.65.73.42l9.93-5.74a1.6,1.6,0,0,0,.74-1.26c0-.47-.34-.66-.74-.42" transform="translate(-4.9 -3)" style="fill: #fff"/>
              <path d="M85.58,60.76l-4.72,2.73a1.59,1.59,0,0,0-.73,1.27c0,.46.33.65.73.42l4.72-2.73a1.6,1.6,0,0,0,.74-1.27c0-.46-.34-.65-.74-.42" transform="translate(-4.9 -3)" style="fill: #f9737a"/>
              <path d="M75.57,66.54,63.85,73.31a1.57,1.57,0,0,0-.73,1.27c0,.46.33.65.73.42l11.72-6.77A1.59,1.59,0,0,0,76.3,67c0-.46-.33-.65-.73-.42" transform="translate(-4.9 -3)" style="fill: #fff"/>
              <path d="M127.11,42.78l-5.13,3a1.62,1.62,0,0,0-.73,1.27c0,.46.34.65.74.42l5.13-3a1.64,1.64,0,0,0,.73-1.27c0-.46-.33-.65-.74-.42" transform="translate(-4.9 -3)" style="fill: #f9737a"/>
              <path d="M118.73,47.62,107.9,53.87a1.64,1.64,0,0,0-.73,1.27c0,.46.33.65.74.42l10.82-6.25a1.58,1.58,0,0,0,.73-1.27c0-.46-.33-.65-.73-.42" transform="translate(-4.9 -3)" style="fill: #fff"/>
              <path d="M101.72,57.44l-4.89,2.82a1.64,1.64,0,0,0-.73,1.27c0,.46.33.65.74.42l4.88-2.82a1.59,1.59,0,0,0,.73-1.27c0-.46-.33-.65-.73-.42" transform="translate(-4.9 -3)" style="fill: #ffe269"/>
              <path d="M91.79,63.18,63.86,79.3a1.62,1.62,0,0,0-.73,1.26c0,.47.34.66.74.42L91.79,64.86a1.59,1.59,0,0,0,.73-1.26c0-.47-.33-.66-.73-.42" transform="translate(-4.9 -3)" style="fill: #fff"/>
              <path d="M135.68,43.84l-16.94,9.77a1.61,1.61,0,0,0-.72,1.26c0,.47.32.66.73.42l16.93-9.77a1.63,1.63,0,0,0,.73-1.27c0-.46-.33-.65-.73-.41" transform="translate(-4.9 -3)" style="fill: #fff"/>
              <path d="M107.92,59.86,96.85,66.25a1.63,1.63,0,0,0-.73,1.26c0,.47.33.66.73.42l11.07-6.39a1.57,1.57,0,0,0,.73-1.26c0-.47-.33-.65-.73-.42" transform="translate(-4.9 -3)" style="fill: #fff"/>
              <path d="M91.8,69.17,80.89,75.46a1.64,1.64,0,0,0-.73,1.27c0,.46.33.65.74.42l10.91-6.3a1.64,1.64,0,0,0,.73-1.27c0-.46-.33-.65-.74-.41" transform="translate(-4.9 -3)" style="fill: #fff"/>
              <path d="M75.6,78.52,63.88,85.29a1.6,1.6,0,0,0-.73,1.26c0,.46.33.65.74.42L75.61,80.2a1.62,1.62,0,0,0,.73-1.26c0-.47-.33-.65-.74-.42" transform="translate(-4.9 -3)" style="fill: #fff"/>
              <path d="M122,57.72l-8.88,5.12a1.61,1.61,0,0,0-.72,1.26c0,.47.32.66.73.42L122,59.4a1.62,1.62,0,0,0,.74-1.27c0-.46-.34-.65-.74-.41" transform="translate(-4.9 -3)" style="fill: #fff"/>
              <path d="M107.93,65.85,96.87,72.24a1.6,1.6,0,0,0-.74,1.26c0,.47.34.65.74.42l11.07-6.39a1.62,1.62,0,0,0,.73-1.27c0-.46-.33-.65-.74-.41" transform="translate(-4.9 -3)" style="fill: #fff"/>
              <path d="M91.82,75.15l-10.91,6.3a1.62,1.62,0,0,0-.73,1.26c0,.47.33.66.73.42l10.91-6.3a1.58,1.58,0,0,0,.73-1.26c0-.47-.33-.65-.73-.42" transform="translate(-4.9 -3)" style="fill: #ffe269"/>
              <path d="M75.62,84.51,63.9,91.27a1.61,1.61,0,0,0-.73,1.26c0,.47.33.66.73.42l11.72-6.76a1.58,1.58,0,0,0,.73-1.27c0-.46-.33-.65-.73-.41" transform="translate(-4.9 -3)" style="fill: #fff"/>
              <path d="M135.71,55.81l-8.54,4.93a1.6,1.6,0,0,0-.74,1.27c0,.46.34.65.74.41l8.55-4.93a1.63,1.63,0,0,0,.73-1.26c0-.47-.34-.66-.74-.42" transform="translate(-4.9 -3)" style="fill: #fff"/>
              <path d="M122,63.7l-3.26,1.88a1.61,1.61,0,0,0-.73,1.27c0,.46.33.65.73.41L122,65.38a1.6,1.6,0,0,0,.73-1.26c0-.46-.33-.65-.73-.42" transform="translate(-4.9 -3)" style="fill: #f9737a"/>
              <path d="M113.16,68.83,101.77,75.4a1.6,1.6,0,0,0-.73,1.27c0,.47.33.65.73.42l11.4-6.58a1.63,1.63,0,0,0,.73-1.26c0-.47-.33-.66-.74-.42" transform="translate(-4.9 -3)" style="fill: #ffe269"/>
              <path d="M96.88,78.22,85.65,84.71A1.59,1.59,0,0,0,84.92,86c0,.47.33.66.73.42l11.24-6.48a1.63,1.63,0,0,0,.73-1.26c0-.47-.33-.66-.74-.43" transform="translate(-4.9 -3)" style="fill: #fff"/>
              <path d="M80.93,87.44l-9.85,5.68a1.61,1.61,0,0,0-.73,1.27c0,.46.33.65.73.42l9.85-5.69a1.61,1.61,0,0,0,.73-1.26c0-.47-.33-.66-.73-.42" transform="translate(-4.9 -3)" style="fill: #fff"/>
              <path d="M67.82,95l-3.9,2.26a1.6,1.6,0,0,0-.74,1.26c0,.47.34.65.74.42l3.91-2.26a1.6,1.6,0,0,0,.73-1.26c0-.46-.33-.65-.74-.42" transform="translate(-4.9 -3)" style="fill: #f9737a"/>
              <path d="M135.73,61.79l-13.68,7.9a1.62,1.62,0,0,0-.73,1.26c0,.47.33.66.74.42l13.67-7.89a1.57,1.57,0,0,0,.73-1.27c0-.46-.33-.65-.73-.42" transform="translate(-4.9 -3)" style="fill: #ffe269"/>
              <path d="M118.8,71.57,108,77.82a1.59,1.59,0,0,0-.73,1.26c0,.47.33.66.73.43l10.83-6.26a1.62,1.62,0,0,0,.73-1.26c0-.47-.33-.66-.73-.42" transform="translate(-4.9 -3)" style="fill: #fff"/>
              <path d="M101.78,81.39,85.66,90.7A1.61,1.61,0,0,0,84.94,92c0,.46.33.66.73.42l16.12-9.3a1.65,1.65,0,0,0,.73-1.27c0-.47-.33-.65-.74-.42" transform="translate(-4.9 -3)" style="fill: #fff"/>
              <path d="M80.94,93.42l-17,9.82a1.65,1.65,0,0,0-.73,1.27c0,.46.33.65.74.42l17-9.82a1.64,1.64,0,0,0,.73-1.27c0-.46-.33-.65-.74-.42" transform="translate(-4.9 -3)" style="fill: #fff"/>
            </g>
          </g>
        </g>
        <g style="isolation: isolate">
          <g style="clip-path: url(#clip-path-2)">
            <g>
              <path d="M138.8,85.88l0-15.89L165,54.84l0,15.89L138.8,85.88m-22.18,9.41c-7.64,4.41-13.86.87-13.88-7.91s6.15-19.47,13.79-23.88,13.86-.88,13.88,7.9-6.15,19.48-13.79,23.89m22.13-28.7L138.7,50.7l26.24-15.15L165,51.44,138.75,66.59M91.58,68.5l.15,50.61c0,1.13.8,1.59,1.79,1l77.1-44.51a3.92,3.92,0,0,0,1.78-3.09l-.14-50L91.58,69.08V68.5" transform="translate(-4.9 -3)" style="fill: #ffe269"/>
              <path d="M156.86,28.54c-.45.26-.81.05-.81-.47a1.77,1.77,0,0,1,.81-1.41c.45-.26.82-.05.82.47a1.78,1.78,0,0,1-.82,1.41M161.3,26c-.46.26-.82.05-.83-.47a1.84,1.84,0,0,1,.82-1.41c.45-.26.82-.05.82.47A1.82,1.82,0,0,1,161.3,26m4.42-2.56c-.45.26-.81,0-.81-.47a1.76,1.76,0,0,1,.81-1.4c.45-.26.82-.06.82.46a1.78,1.78,0,0,1-.82,1.41m4.84-7.53L93.24,60.53a3.69,3.69,0,0,0-1.67,2.9v5.65l80.68-46.57,0-5.66c0-1.06-.75-1.49-1.68-1" transform="translate(-4.9 -3)" style="fill: #f9f9f9"/>
              <path d="M156.86,26.66a1.77,1.77,0,0,0-.81,1.41c0,.52.36.73.81.47a1.78,1.78,0,0,0,.82-1.41c0-.52-.37-.73-.82-.47" transform="translate(-4.9 -3)" style="fill: #2a3c67"/>
              <path d="M161.29,24.1a1.84,1.84,0,0,0-.82,1.41c0,.52.37.73.83.47a1.82,1.82,0,0,0,.81-1.41c0-.52-.37-.73-.82-.47" transform="translate(-4.9 -3)" style="fill: #f9737a"/>
              <path d="M165.72,21.55a1.76,1.76,0,0,0-.81,1.4c0,.52.36.73.81.47a1.78,1.78,0,0,0,.82-1.41c0-.52-.37-.72-.82-.46" transform="translate(-4.9 -3)" style="fill: #ffe269"/>
              <path d="M116.53,63.5c-7.64,4.41-13.82,15.1-13.79,23.88S109,99.7,116.62,95.29s13.82-15.11,13.79-23.89-6.24-12.31-13.88-7.9" transform="translate(-4.9 -3)" style="fill: #f9737a"/>
              <polyline points="160.04 32.55 133.8 47.7 133.85 63.59 160.09 48.44 160.04 32.55" style="fill: #f9f9f9"/>
              <path d="M147.83,75.12c-.86.5-1.55.1-1.56-.89a3.43,3.43,0,0,1,1.55-2.68l9.7-5.6c.86-.5,1.56-.1,1.56.89a3.41,3.41,0,0,1-1.55,2.68l-9.7,5.6M165,54.84,138.76,70l0,15.89L165,70.73l0-15.89" transform="translate(-4.9 -3)" style="fill: #f9f9f9"/>
              <path d="M157.52,66l-9.7,5.6a3.43,3.43,0,0,0-1.55,2.68c0,1,.7,1.39,1.56.89l9.7-5.6a3.41,3.41,0,0,0,1.55-2.68c0-1-.7-1.39-1.56-.89" transform="translate(-4.9 -3)" style="fill: #f9737a"/>
            </g>
          </g>
        </g>
      </g>
    </g>
  </g>
</svg>
