<svg xmlns="http://www.w3.org/2000/svg" xmlns:xlink="http://www.w3.org/1999/xlink" viewBox="0 0 183.42 159.57">
  <defs>
    <linearGradient id="Градієнт_без_назви_83" data-name="Градієнт без назви 83" x1="53.06" y1="88.23" x2="139.14" y2="112.68" gradientUnits="userSpaceOnUse">
      <stop offset="0" stop-color="#a5bdcb"/>
      <stop offset="1" stop-color="#d8e9f4" stop-opacity="0"/>
    </linearGradient>
    <linearGradient id="Градієнт_без_назви_31" data-name="Градієнт без назви 31" x1="50.16" y1="72.55" x2="159.76" y2="72.55" gradientUnits="userSpaceOnUse">
      <stop offset="0" stop-color="#9abed8"/>
      <stop offset="1" stop-color="#9abed8" stop-opacity="0.7"/>
    </linearGradient>
    <linearGradient id="Градієнт_без_назви_78" data-name="Градієнт без назви 78" x1="51.06" y1="131.97" x2="54.85" y2="131.97" gradientUnits="userSpaceOnUse">
      <stop offset="0" stop-color="#6cc0ff"/>
      <stop offset="1" stop-color="#51aee6"/>
    </linearGradient>
    <linearGradient id="Градієнт_без_назви_78-2" x1="69.37" y1="121.4" x2="73.16" y2="121.4" xlink:href="#Градієнт_без_назви_78"/>
    <linearGradient id="Градієнт_без_назви_78-3" x1="51.09" y1="144.42" x2="54.88" y2="144.42" xlink:href="#Градієнт_без_назви_78"/>
    <linearGradient id="Градієнт_без_назви_78-4" x1="57.22" y1="147.12" x2="61" y2="147.12" xlink:href="#Градієнт_без_назви_78"/>
    <linearGradient id="Градієнт_без_назви_78-5" x1="92.06" y1="69.45" x2="109.83" y2="114.4" xlink:href="#Градієнт_без_назви_78"/>
  </defs>
  <title>games</title>
  <g style="isolation: isolate">
    <g id="Game">
      <g>
        <path d="M148.32,62,93.5,32a4,4,0,0,0-3.85,0L4.72,79.13a4,4,0,0,0-.08,6.92l33.5,19.7L7.28,123.16a4,4,0,0,0-.09,6.89l41.17,24.7,92.92-60.56Z" transform="translate(-2.67 -2.98)" style="opacity: 0.25;mix-blend-mode: multiply;fill: url(#Градієнт_без_назви_83)"/>
        <g style="isolation: isolate">
          <path d="M154.25,3.25,52.37,62.07a4.87,4.87,0,0,0-2.21,3.82l0,6.68v.77l.19,65.92c0,1.49,3.42,3.44,4.72,2.69l99.23-60a5.18,5.18,0,0,0,2.35-4.07L156.49,12V11.2l3.28-6.54c0-1.4-4.29-2.11-5.51-1.41" transform="translate(-2.67 -2.98)" style="opacity: 0.7000000000000001;mix-blend-mode: multiply;fill: url(#Градієнт_без_назви_31)"/>
        </g>
        <g style="isolation: isolate">
          <g>
            <path d="M53.48,74.17l.19,66.68c0,1.5,1,2.1,2.35,1.35l101.6-58.66A5.18,5.18,0,0,0,160,79.48l-.19-65.92L53.48,74.93v-.76" transform="translate(-2.67 -2.98)" style="fill: #2a3c67"/>
            <path d="M139.5,21.51c-.6.34-1.08.07-1.09-.62A2.38,2.38,0,0,1,139.49,19c.59-.34,1.07-.06,1.08.62a2.38,2.38,0,0,1-1.07,1.86m5.83-3.37c-.59.34-1.07.06-1.08-.62a2.36,2.36,0,0,1,1.07-1.85c.6-.35,1.08-.07,1.09.61a2.38,2.38,0,0,1-1.08,1.86m5.84-3.37c-.6.34-1.08.07-1.08-.62a2.4,2.4,0,0,1,1.07-1.86c.6-.34,1.08-.06,1.08.62a2.4,2.4,0,0,1-1.07,1.86m6.37-9.93L55.66,63.67a4.82,4.82,0,0,0-2.2,3.81l0,6.69v.76l106.3-61.37,0-7.45c0-1.41-1-2-2.22-1.27" transform="translate(-2.67 -2.98)" style="fill: #f9f9f9"/>
            <path d="M139.49,19a2.38,2.38,0,0,0-1.08,1.86c0,.69.49,1,1.09.62a2.38,2.38,0,0,0,1.07-1.86c0-.68-.49-1-1.08-.62" transform="translate(-2.67 -2.98)" style="fill: #2a3c67"/>
            <path d="M145.32,15.67a2.36,2.36,0,0,0-1.07,1.85c0,.68.49,1,1.08.62a2.38,2.38,0,0,0,1.08-1.86c0-.68-.49-1-1.09-.61" transform="translate(-2.67 -2.98)" style="fill: #f9737a"/>
            <path d="M151.16,12.29a2.4,2.4,0,0,0-1.07,1.86c0,.69.48,1,1.08.62a2.4,2.4,0,0,0,1.07-1.86c0-.68-.48-1-1.08-.62" transform="translate(-2.67 -2.98)" style="fill: #ffe269"/>
          </g>
        </g>
        <g>
          <g style="isolation: isolate">
            <path d="M71,82.28,46.64,96.34a7.61,7.61,0,0,0-3.45,6l.16,56.21c0,2.2,3.26,4.86,5.17,3.76l22.65-15.84a7.61,7.61,0,0,0,3.46-6L76.82,85c0-2.2-3.92-3.78-5.83-2.68" transform="translate(-2.67 -2.98)" style="fill: #96b2cd"/>
          </g>
          <g style="isolation: isolate">
            <g>
              <path d="M53.06,99.47a5.6,5.6,0,0,1,2.45-3.77l12-6.93c1.22-.71,2.24-.29,2.46.92l2.27-1.31c1.7-1,3.09-.19,3.09,1.76l.14,50.36a6.74,6.74,0,0,1-3.06,5.32L51,158.22c-1.7,1-3.08.19-3.09-1.77l-.14-50.35a6.78,6.78,0,0,1,3.07-5.32l2.27-1.31M73.69,83.81,49.34,97.87a7.57,7.57,0,0,0-3.45,6l.16,56.21c0,2.2,1.56,3.08,3.47,2L73.87,148a7.63,7.63,0,0,0,3.46-6l-.16-56.21c0-2.2-1.57-3.09-3.48-2" transform="translate(-2.67 -2.98)" style="fill: #f9f9f9"/>
              <path d="M67.53,88.77l-12,6.93a5.6,5.6,0,0,0-2.45,3.77A3.53,3.53,0,0,0,53,100c0,1.59,1.14,2.23,2.52,1.43l12-6.94A5.49,5.49,0,0,0,70,90.2a2.76,2.76,0,0,0-.05-.51c-.22-1.21-1.24-1.63-2.46-.92" transform="translate(-2.67 -2.98)" style="fill: #f9f9f9"/>
              <path d="M52.93,123.57A4.19,4.19,0,0,0,51,126.84c0,1.2.86,1.69,1.9,1.08a4.18,4.18,0,0,0,1.89-3.26c0-1.2-.86-1.69-1.9-1.09" transform="translate(-2.67 -2.98)" style="fill: #f9737a"/>
              <path d="M71.24,113a4.19,4.19,0,0,0-1.89,3.27c0,1.2.86,1.69,1.9,1.08a4.18,4.18,0,0,0,1.89-3.26c0-1.2-.86-1.69-1.9-1.09" transform="translate(-2.67 -2.98)" style="fill: #f9737a"/>
              <path d="M53,129.79a4.17,4.17,0,0,0-1.89,3.28c0,1.19.86,1.68,1.9,1.08a4.2,4.2,0,0,0,1.89-3.27c0-1.2-.86-1.69-1.9-1.09" transform="translate(-2.67 -2.98)" style="fill: url(#Градієнт_без_назви_78)"/>
              <path d="M59.05,126.27a4.19,4.19,0,0,0-1.89,3.27c0,1.2.86,1.69,1.9,1.09A4.15,4.15,0,0,0,61,127.35c0-1.2-.86-1.68-1.9-1.08" transform="translate(-2.67 -2.98)" style="fill: #566d9b"/>
              <path d="M71.26,119.22a4.15,4.15,0,0,0-1.89,3.28c0,1.19.86,1.68,1.9,1.08a4.2,4.2,0,0,0,1.89-3.27c0-1.2-.86-1.69-1.9-1.09" transform="translate(-2.67 -2.98)" style="fill: url(#Градієнт_без_назви_78-2)"/>
              <path d="M53,136a4.17,4.17,0,0,0-1.89,3.28c0,1.2.85,1.69,1.9,1.08a4.19,4.19,0,0,0,1.89-3.27c0-1.19-.86-1.69-1.9-1.09" transform="translate(-2.67 -2.98)" style="fill: #fff"/>
              <path d="M59.07,132.49a4.2,4.2,0,0,0-1.89,3.27c0,1.21.86,1.69,1.9,1.09A4.19,4.19,0,0,0,61,133.58c0-1.2-.86-1.69-1.9-1.09" transform="translate(-2.67 -2.98)" style="fill: #f9737a"/>
              <path d="M75.35,90.14c0-2-1.39-2.74-3.09-1.76L70,89.69a2.76,2.76,0,0,1,.05.51,5.49,5.49,0,0,1-2.5,4.32l-12,6.94c-1.38.8-2.51.16-2.52-1.43a3.53,3.53,0,0,1,.05-.56l-2.27,1.31a6.78,6.78,0,0,0-3.07,5.32l.14,50.35c0,2,1.39,2.75,3.09,1.77l21.48-12.4a6.74,6.74,0,0,0,3.06-5.32ZM52.93,123.57c1-.6,1.9-.11,1.9,1.09a4.18,4.18,0,0,1-1.89,3.26c-1,.61-1.9.12-1.9-1.08A4.19,4.19,0,0,1,52.93,123.57Zm0,6.22c1-.6,1.89-.11,1.9,1.09A4.2,4.2,0,0,1,53,134.15c-1,.6-1.9.11-1.9-1.08A4.17,4.17,0,0,1,53,129.79ZM53,136c1-.6,1.89-.1,1.89,1.09A4.15,4.15,0,0,1,53,140.37c-1,.61-1.9.12-1.9-1.08A4.17,4.17,0,0,1,53,136Zm0,6.23c1-.6,1.9-.11,1.9,1.08A4.17,4.17,0,0,1,53,146.6c-1,.6-1.9.11-1.91-1.09A4.2,4.2,0,0,1,53,142.24Zm0,10.58c-1,.6-1.9.11-1.9-1.08A4.22,4.22,0,0,1,53,148.46c1-.6,1.9-.11,1.9,1.09A4.19,4.19,0,0,1,53,152.82Zm6-26.55c1-.6,1.9-.12,1.9,1.08a4.15,4.15,0,0,1-1.89,3.28c-1,.6-1.89.11-1.9-1.09A4.19,4.19,0,0,1,59.05,126.27Zm0,6.22c1-.6,1.9-.11,1.9,1.09a4.19,4.19,0,0,1-1.89,3.27c-1,.6-1.9.12-1.9-1.09A4.2,4.2,0,0,1,59.07,132.49Zm0,6.23c1.05-.6,1.9-.12,1.91,1.08a4.19,4.19,0,0,1-1.89,3.27c-1,.6-1.9.12-1.9-1.08A4.15,4.15,0,0,1,59.08,138.72Zm0,10.58c-1,.6-1.89.11-1.89-1.09a4.15,4.15,0,0,1,1.88-3.27c1-.6,1.9-.11,1.9,1.09A4.16,4.16,0,0,1,59.11,149.3Zm6.08-14.1c1-.61,1.9-.12,1.9,1.07a4.18,4.18,0,0,1-1.89,3.28c-1,.6-1.9.12-1.9-1.08A4.13,4.13,0,0,1,65.19,135.2Zm0,10.57c-1,.6-1.9.12-1.9-1.08a4.13,4.13,0,0,1,1.89-3.27c1-.61,1.9-.12,1.9,1.08A4.19,4.19,0,0,1,65.22,145.77Zm6-32.77c1-.6,1.9-.11,1.9,1.09a4.18,4.18,0,0,1-1.89,3.26c-1,.61-1.9.12-1.9-1.08A4.19,4.19,0,0,1,71.24,113Zm0,6.22c1-.6,1.89-.11,1.9,1.09a4.2,4.2,0,0,1-1.89,3.27c-1,.6-1.9.11-1.9-1.08A4.15,4.15,0,0,1,71.26,119.22Zm0,6.22c1-.6,1.9-.1,1.9,1.09a4.15,4.15,0,0,1-1.88,3.27c-1.05.61-1.9.12-1.91-1.08A4.22,4.22,0,0,1,71.27,125.44Zm0,6.23c1-.6,1.9-.11,1.9,1.08A4.19,4.19,0,0,1,71.3,136c-1,.6-1.89.11-1.9-1.09A4.2,4.2,0,0,1,71.29,131.67Zm0,10.58c-1,.6-1.9.11-1.9-1.08a4.22,4.22,0,0,1,1.89-3.28c1-.6,1.9-.11,1.9,1.09A4.19,4.19,0,0,1,71.32,142.25Z" transform="translate(-2.67 -2.98)" style="fill: #2a3c67"/>
              <path d="M71.27,125.44a4.22,4.22,0,0,0-1.89,3.28c0,1.2.86,1.69,1.91,1.08a4.15,4.15,0,0,0,1.88-3.27c0-1.19-.85-1.69-1.9-1.09" transform="translate(-2.67 -2.98)" style="fill: #fff"/>
              <path d="M53,142.24a4.2,4.2,0,0,0-1.89,3.27c0,1.2.86,1.69,1.91,1.09a4.17,4.17,0,0,0,1.88-3.28c0-1.19-.86-1.68-1.9-1.08" transform="translate(-2.67 -2.98)" style="fill: url(#Градієнт_без_назви_78-3)"/>
              <path d="M59.08,138.72A4.15,4.15,0,0,0,57.2,142c0,1.2.86,1.68,1.9,1.08A4.19,4.19,0,0,0,61,139.8c0-1.2-.86-1.68-1.91-1.08" transform="translate(-2.67 -2.98)" style="fill: #ffe269"/>
              <path d="M65.19,135.2a4.13,4.13,0,0,0-1.89,3.27c0,1.2.86,1.68,1.9,1.08a4.16,4.16,0,0,0,1.89-3.28c0-1.19-.86-1.68-1.9-1.07" transform="translate(-2.67 -2.98)" style="fill: #566d9b"/>
              <path d="M71.29,131.67a4.2,4.2,0,0,0-1.89,3.27c0,1.2.86,1.69,1.9,1.09a4.19,4.19,0,0,0,1.89-3.28c0-1.19-.86-1.68-1.9-1.08" transform="translate(-2.67 -2.98)" style="fill: #ffe269"/>
              <path d="M53,148.46a4.22,4.22,0,0,0-1.89,3.28c0,1.19.86,1.68,1.9,1.08a4.19,4.19,0,0,0,1.89-3.27c0-1.2-.86-1.69-1.9-1.09" transform="translate(-2.67 -2.98)" style="fill: #566d9b"/>
              <path d="M59.1,144.94a4.15,4.15,0,0,0-1.88,3.27c0,1.2.85,1.69,1.89,1.09A4.16,4.16,0,0,0,61,146c0-1.2-.85-1.69-1.9-1.09" transform="translate(-2.67 -2.98)" style="fill: url(#Градієнт_без_назви_78-4)"/>
              <path d="M65.21,141.42a4.13,4.13,0,0,0-1.89,3.27c0,1.2.85,1.68,1.9,1.08a4.19,4.19,0,0,0,1.89-3.27c0-1.2-.86-1.69-1.9-1.08" transform="translate(-2.67 -2.98)" style="fill: #f9737a"/>
              <path d="M71.31,137.89a4.22,4.22,0,0,0-1.89,3.28c0,1.19.86,1.68,1.9,1.08A4.19,4.19,0,0,0,73.21,139c0-1.2-.86-1.69-1.9-1.09" transform="translate(-2.67 -2.98)" style="fill: #fff"/>
            </g>
          </g>
        </g>
        <polygon points="122.69 122.04 167.29 96.83 161.04 89.07 156.59 102.29 150.2 95.89 144.99 108.32 138.71 102.21 133.75 114.86 127.21 109.18 122.69 122.04" style="fill: #9dcc4a"/>
        <path d="M94.13,62.11l6.1-3.4a.58.58,0,0,1,.87.51V101a1.8,1.8,0,0,1-.94,1.58L94.07,106a.59.59,0,0,1-.87-.52V63.68A1.81,1.81,0,0,1,94.13,62.11Z" transform="translate(-2.67 -2.98)" style="fill: url(#Градієнт_без_назви_78-5)"/>
        <path d="M127.39,62.29v9.45a1.53,1.53,0,0,0,2.26,1.35l9.72-5.24a.75.75,0,0,1,1.09.66V79.23a1.53,1.53,0,0,0,2.3,1.33l9.85-5.69a1.54,1.54,0,0,0,.76-1.33V32.45a1.53,1.53,0,0,0-2.31-1.32L142.75,36a4.85,4.85,0,0,0-2.4,4.19V51.59a.76.76,0,0,1-.38.65l-10.15,5.85A4.86,4.86,0,0,0,127.39,62.29Z" transform="translate(-2.67 -2.98)" style="fill: #2a3c67;opacity: 0.32;mix-blend-mode: multiply"/>
        <g>
          <path d="M130.9,60.22l4.27,2.32s-1.12,3-1.43,3.91-20.86,34.89-20.86,34.89-4.26-1.88-4.47-2.41a5.83,5.83,0,0,1,0-3.26" transform="translate(-2.67 -2.98)" style="fill: #af2e47"/>
          <g>
            <path d="M107.86,74.89V98a1.13,1.13,0,0,0,1.68,1l20.34-11.56a3.49,3.49,0,0,0,1.76-3V61.27a1.12,1.12,0,0,0-1.67-1L109.63,71.86A3.48,3.48,0,0,0,107.86,74.89Z" transform="translate(-2.67 -2.98)" style="fill: #af2e47"/>
            <path d="M112.09,77.19v23.08a1.11,1.11,0,0,0,1.67,1L134.1,89.68a3.48,3.48,0,0,0,1.77-3V63.58a1.13,1.13,0,0,0-1.68-1L113.85,74.16A3.49,3.49,0,0,0,112.09,77.19Z" transform="translate(-2.67 -2.98)" style="fill: #ea6376"/>
          </g>
        </g>
        <g>
          <g>
            <path d="M166.5,36.38V76.7a2.31,2.31,0,0,0,1.16,2L174,82.29V40.73Z" transform="translate(-2.67 -2.98)" style="fill: #e2a144"/>
            <path d="M154.6,57.14V70.08a1.85,1.85,0,0,0,1,1.62l6.25,3.53V61.34Z" transform="translate(-2.67 -2.98)" style="fill: #e2a144"/>
            <path d="M161.8,61.34V75.23C162,75.09,174,68.69,174,68.69V82.36L185,76a2.26,2.26,0,0,0,1.13-2V33.57l-12.18,7.12V54.36Z" transform="translate(-2.67 -2.98)" style="fill: #ffe269"/>
            <path d="M166.5,36.4,174,40.73l12.14-7.16-6.92-3.77a1.37,1.37,0,0,0-1.37,0Z" transform="translate(-2.67 -2.98)" style="fill: #fceba2"/>
            <polygon points="151.93 54.25 158.81 58.52 171.28 51.35 163.91 47.27 151.93 54.25" style="fill: #fceba2"/>
          </g>
          <path d="M175.51,58.25v5.88a1.19,1.19,0,0,0,1.77,1l5-2.75A3.31,3.31,0,0,0,184,59.54v-6a1.19,1.19,0,0,0-1.79-1l-5,2.91A3.31,3.31,0,0,0,175.51,58.25Z" transform="translate(-2.67 -2.98)" style="fill: #f9edbd"/>
          <path d="M175.51,44.31v5.88a1.19,1.19,0,0,0,1.77,1l5-2.75A3.31,3.31,0,0,0,184,45.6v-6a1.19,1.19,0,0,0-1.79-1l-5,2.92A3.28,3.28,0,0,0,175.51,44.31Z" transform="translate(-2.67 -2.98)" style="fill: #f9edbd"/>
          <path d="M175.51,72.11V78a1.2,1.2,0,0,0,1.77,1l5-2.76A3.3,3.3,0,0,0,184,73.39v-6a1.19,1.19,0,0,0-1.79-1l-5,2.91A3.31,3.31,0,0,0,175.51,72.11Z" transform="translate(-2.67 -2.98)" style="fill: #f9edbd"/>
          <path d="M164.27,64.52v5.15A1.51,1.51,0,0,0,166.52,71l4.33-2.4a3.62,3.62,0,0,0,1.86-3.16V60.16a1.52,1.52,0,0,0-2.27-1.31l-4.37,2.55A3.6,3.6,0,0,0,164.27,64.52Z" transform="translate(-2.67 -2.98)" style="fill: #f9edbd"/>
        </g>
      </g>
    </g>
  </g>
</svg>
