<svg xmlns="http://www.w3.org/2000/svg" xmlns:xlink="http://www.w3.org/1999/xlink" viewBox="0 0 202.75 159.34">
  <defs>
    <linearGradient id="Градієнт_без_назви_105" data-name="Градієнт без назви 105" x1="151.25" y1="53.07" x2="187.42" y2="53.07" gradientUnits="userSpaceOnUse">
      <stop offset="0" stop-color="#ffec5e"/>
      <stop offset="1" stop-color="#ffce4a"/>
    </linearGradient>
    <linearGradient id="Градієнт_без_назви_83" data-name="Градієнт без назви 83" x1="156.81" y1="85.02" x2="205.76" y2="33.15" gradientUnits="userSpaceOnUse">
      <stop offset="0" stop-color="#a5bdcb"/>
      <stop offset="1" stop-color="#d8e9f4" stop-opacity="0"/>
    </linearGradient>
    <linearGradient id="Градієнт_без_назви_83-2" x1="78.75" y1="142.4" x2="186.19" y2="-21.05" xlink:href="#Градієнт_без_назви_83"/>
    <linearGradient id="Градієнт_без_назви_78" data-name="Градієнт без назви 78" x1="65.52" y1="84.12" x2="82.02" y2="84.12" gradientUnits="userSpaceOnUse">
      <stop offset="0" stop-color="#6cc0ff"/>
      <stop offset="1" stop-color="#51aee6"/>
    </linearGradient>
    <linearGradient id="linear-gradient" x1="34.83" y1="57.17" x2="74.79" y2="57.17" gradientUnits="userSpaceOnUse">
      <stop offset="0" stop-color="#a5bdcb"/>
      <stop offset="1" stop-color="#d8e9f4" stop-opacity="0.4"/>
    </linearGradient>
    <linearGradient id="Градієнт_без_назви_78-2" x1="35.48" y1="55.31" x2="77.02" y2="55.31" xlink:href="#Градієнт_без_назви_78"/>
    <linearGradient id="Градієнт_без_назви_78-3" x1="262.43" y1="98.5" x2="283.58" y2="98.5" gradientTransform="matrix(-1, 0, 0, 1, 437.94, 0)" xlink:href="#Градієнт_без_назви_78"/>
    <linearGradient id="Градієнт_без_назви_78-4" x1="268.6" y1="98.25" x2="301.29" y2="98.25" gradientTransform="matrix(-1, 0, 0, 1, 437.94, 0)" xlink:href="#Градієнт_без_назви_78"/>
  </defs>
  <title>branding</title>
  <g style="isolation: isolate">
    <g id="Brand">
      <g>
        <path d="M169.61,63.86,187,53.32a.86.86,0,0,0,0-1.49l-16.66-9.57a1.39,1.39,0,0,0-1.37,0L151.72,52.72a1,1,0,0,0,0,1.68l16.5,9.47A1.37,1.37,0,0,0,169.61,63.86Z" transform="translate(-3.03 -4.28)" style="fill: url(#Градієнт_без_назви_105)"/>
        <g style="opacity: 0.54;mix-blend-mode: multiply">
          <path d="M165.22,87.93l18.52-11.22a.91.91,0,0,0,0-1.58L166,64.94a1.46,1.46,0,0,0-1.46,0L146.18,76.08a1,1,0,0,0,0,1.78L163.76,88A1.46,1.46,0,0,0,165.22,87.93Z" transform="translate(-3.03 -4.28)" style="fill: url(#Градієнт_без_назви_83)"/>
        </g>
        <path d="M198.23,110.06,91.09,50a3.56,3.56,0,0,0-3.53,0L6.37,96.85a3.56,3.56,0,0,0,0,6.19l49.35,27.69-10.87,6.39a1.51,1.51,0,0,0,0,2.6l37.62,21.06a2.13,2.13,0,0,0,2.13,0l12-7.07,16.87,9.46a3.56,3.56,0,0,0,3.52,0l20.8-12,40.49-23.38,19.91-11.49A3.57,3.57,0,0,0,198.23,110.06Z" transform="translate(-3.03 -4.28)" style="opacity: 0.33;mix-blend-mode: multiply;fill: url(#Градієнт_без_назви_83-2)"/>
        <path d="M84.65,151.2l25.15-14.78a1.33,1.33,0,0,0,0-2.31l-37.87-21.2a2.11,2.11,0,0,0-2.13,0l-24.9,14.63a1.51,1.51,0,0,0,0,2.6l37.62,21.06A2.11,2.11,0,0,0,84.65,151.2Z" transform="translate(-3.03 -4.28)" style="fill: #f9737a"/>
        <polygon points="114.37 142.87 202.75 91.85 88.38 27.67 0 78.7 114.37 142.87" style="fill: #fff"/>
        <path d="M109.78,134.11l-37.87-21.2a2.11,2.11,0,0,0-2.13,0L59,119.28l40.93,23,9.91-5.83A1.33,1.33,0,0,0,109.78,134.11Z" transform="translate(-3.03 -4.28)" style="fill: #969696;opacity: 0.30000000000000004;mix-blend-mode: multiply"/>
        <path d="M118.73,146.38l83-47.89a2.69,2.69,0,0,0,0-4.68L92.75,32.7a2.7,2.7,0,0,0-2.67,0L7.13,80.61a2.69,2.69,0,0,0,0,4.68L116.07,146.4A2.69,2.69,0,0,0,118.73,146.38Z" transform="translate(-3.03 -4.28)" style="fill: #ffe269"/>
        <path d="M165.62,73.65l-6.35-3.57-48.36,6.33a.5.5,0,0,1-.08-.08v.09l-8.38,3.3h0l1.7.19,7.25.83h0Z" transform="translate(-3.03 -4.28)" style="fill: #c48551;opacity: 0.30000000000000004;mix-blend-mode: multiply"/>
        <path d="M120.45,136.15,186.55,98a2.14,2.14,0,0,0,0-3.73L91.74,41.82a2.14,2.14,0,0,0-2.12,0L23.51,78.47a2.15,2.15,0,0,0,0,3.73l94.78,54A2.16,2.16,0,0,0,120.45,136.15Z" transform="translate(-3.03 -4.28)" style="fill: #c48551;opacity: 0.30000000000000004;mix-blend-mode: multiply"/>
        <path d="M120.45,133.76l66.1-38.16a2.15,2.15,0,0,0,0-3.74L91.74,39.43a2.16,2.16,0,0,0-2.12,0L23.51,77.61a2.15,2.15,0,0,0,0,3.73l94.78,52.43A2.13,2.13,0,0,0,120.45,133.76Z" transform="translate(-3.03 -4.28)" style="fill: #fff"/>
        <g>
          <path d="M104.06,93.65c10.86.06,18.86-4.8,18.06-11.2-.83-6.66-10.84-12.44-22.36-12.92C88.67,69.08,80.25,73.69,80.36,80l-15-.62c-.69-11.06,14-19.27,33.36-18.47,19.81.82,37,10.76,38.45,22.2,1.39,11.19-12.84,19.66-32,19.26Z" transform="translate(-3.03 -4.28)" style="fill: #2a3c67"/>
          <path d="M91.17,100.47l4.76-7.78a37.62,37.62,0,0,0,5.52.84l1.08,8.68a62.67,62.67,0,0,1-11.36-1.74" transform="translate(-3.03 -4.28)" style="fill: #f9737a"/>
          <path d="M68.54,87.4a15.75,15.75,0,0,1-3-6.55l15,.62A9,9,0,0,0,82,84.65Z" transform="translate(-3.03 -4.28)" style="fill: url(#Градієнт_без_назви_78)"/>
          <path d="M78.74,95.73,88.61,90a28.84,28.84,0,0,0,4.83,2l-4.76,7.79a51.64,51.64,0,0,1-9.94-4.06" transform="translate(-3.03 -4.28)" style="fill: #ffe269"/>
          <path d="M83.21,86.1a18.15,18.15,0,0,0,3.41,2.78l-9.87,5.7a31.23,31.23,0,0,1-7-5.74Z" transform="translate(-3.03 -4.28)" style="fill: #93c01f"/>
        </g>
        <path d="M46.54,68a3.58,3.58,0,0,0,3.19-.27L73.93,53a1.75,1.75,0,0,0,0-3l-7-3.92L34.83,64.61Z" transform="translate(-3.03 -4.28)" style="opacity: 0.5;mix-blend-mode: multiply;fill: url(#linear-gradient)"/>
        <path d="M49.62,67.77,76.16,51.85a1.76,1.76,0,0,0,0-3l-10.67-6a2.8,2.8,0,0,0-2.8,0L36.45,58.57a2,2,0,0,0,0,3.42L46.83,67.8A2.78,2.78,0,0,0,49.62,67.77Z" transform="translate(-3.03 -4.28)" style="fill: url(#Градієнт_без_назви_78-2)"/>
        <path d="M154.6,74.2l-6.42-3.55-38.47,5-.08-.09v.1L101.26,79h0l1.7.2,7.25.18Z" transform="translate(-3.03 -4.28)" style="fill: #c48551;opacity: 0.30000000000000004;mix-blend-mode: multiply"/>
        <g>
          <rect x="129.52" y="1.55" width="4.36" height="80.02" transform="translate(48 -74.81) rotate(36.75)" style="fill: #fc9e48"/>
          <path d="M157.53,10.59,154.09,8l2.15-2.88a2.17,2.17,0,0,1,3-.44h0a2.13,2.13,0,0,1,.43,3Z" transform="translate(-3.03 -4.28)" style="fill: #f9737a"/>
          <path d="M105.94,72.26s1.8-.06,1.82,1.36a1.36,1.36,0,0,1,1.74,1.31l-7,5.69,3.48-8.3" transform="translate(-3.03 -4.28)" style="fill: #efcca3"/>
          <path d="M103.83,77.51l-1.3,3.11,2.75-2.25A2.12,2.12,0,0,0,103.83,77.51Z" transform="translate(-3.03 -4.28)" style="fill: #2a3c67"/>
          <rect x="151.98" y="8.64" width="5.56" height="3.95" rx="0.68" ry="0.68" transform="translate(34.07 -94.76) rotate(36.75)" style="fill: #2a3c67"/>
          <path d="M153.36,7.86a2.58,2.58,0,0,1,3.53.17c1.87,1.59.92,3.12.92,3.12l-3.63-.48" transform="translate(-3.03 -4.28)" style="fill: #2a3c67"/>
          <path d="M151.9,10.94a1.77,1.77,0,0,1,2.65.09c1.43,1.42.71,2.42.71,2.42l-3.31.12" transform="translate(-3.03 -4.28)" style="fill: #fc9e48"/>
        </g>
        <path d="M154.86,102.52l17-9.83a3.23,3.23,0,0,1,2.91.12h0c.86.5,1,1.25.21,1.68l-17,9.83a3.26,3.26,0,0,1-2.91-.12h0C154.21,103.7,154.12,103,154.86,102.52Z" transform="translate(-3.03 -4.28)" style="fill: url(#Градієнт_без_назви_78-3)"/>
        <path d="M137.15,105.58l28.56-16.45a3.23,3.23,0,0,1,2.91.12h0c.87.5,1,1.25.21,1.68l-28.56,16.45a3.23,3.23,0,0,1-2.91-.12h0C136.5,106.76,136.4,106,137.15,105.58Z" transform="translate(-3.03 -4.28)" style="fill: url(#Градієнт_без_назви_78-4)"/>
        <path d="M83.88,146.33l6-3.61a.3.3,0,0,0,0-.51l-5.72-3.28a.46.46,0,0,0-.47,0l-5.9,3.58a.34.34,0,0,0,0,.58l5.66,3.25A.47.47,0,0,0,83.88,146.33Z" transform="translate(-3.03 -4.28)" style="fill: #fff"/>
      </g>
    </g>
  </g>
</svg>
