<svg id="Layer_1" data-name="Layer 1" xmlns="http://www.w3.org/2000/svg" xmlns:xlink="http://www.w3.org/1999/xlink" viewBox="0 0 539.49 591">
  <defs>
    <clipPath id="clip-path" transform="translate(-9.25 -7.87)">
      <rect x="9.25" y="7.87" width="539.49" height="532" rx="266" ry="266" style="fill: none"/>
    </clipPath>
    <linearGradient id="linear-gradient" x1="256.73" y1="625.62" x2="265.73" y2="531.13" gradientUnits="userSpaceOnUse">
      <stop offset="0" stop-color="#e5e0c8"/>
      <stop offset="1" stop-color="#f7f6f1"/>
    </linearGradient>
    <pattern id="New_Pattern" data-name="New Pattern" width="78.95" height="87" patternTransform="translate(-4.61 224.38) rotate(-4.31) scale(0.7)" patternUnits="userSpaceOnUse" viewBox="0 0 78.95 87">
      <rect width="78.95" height="87" style="fill: none"/>
      <path d="M43.5,10.46a18.84,18.84,0,0,0-6,5.28c-.83,1.13-1.37,3-.11,3.69a2.24,2.24,0,0,0,1.38.1,9.69,9.69,0,0,0,7.89-7.8,6.64,6.64,0,0,0-8.14-.4" style="fill: #aba99d"/>
      <path d="M73.93,37.28a9.22,9.22,0,0,0-6.11,5.77,2.72,2.72,0,0,0,.08,2.46c.78,1.1,2.51.78,3.7.14a12.47,12.47,0,0,0,5.85-6.9,5.61,5.61,0,0,0-6.92.66" style="fill: #aba99d"/>
      <path d="M7.36,74.26c-1.67.14-2.62,2.34-1.84,3.82A3.8,3.8,0,0,0,9.87,79.7a6.71,6.71,0,0,0,3.75-3.15c1.22-2,1.72-4.76.26-6.6s-5.2-1.32-5.38,1" style="fill: #aba99d"/>
      <path d="M21.84,44A6.37,6.37,0,0,0,20,48.47a3.57,3.57,0,0,0,2.95,3.45,4.2,4.2,0,0,0,2.85-1c1.67-1.26,2.86-3.56,2-5.46s-4.38-2-4.71.11" style="fill: #aba99d"/>
      <path d="M40.37,66.13l-2.14,6.7a6.27,6.27,0,0,0-.44,3,2.15,2.15,0,0,0,2,1.88,3,3,0,0,0,1.67-.92c1.8-1.67,3.38-4.06,2.77-6.44s-4.52-3.41-5.48-1.14" style="fill: #aba99d"/>
      <path d="M48.89,42.45a3,3,0,1,0,1.7,1.92A4.32,4.32,0,0,0,46,45.5" style="fill: #aba99d"/>
      <path d="M2.35,28.9c.41,0,.12-.78-.28-.69s-.55.56-.57,1A3.71,3.71,0,0,0,6.12,32.7a3.72,3.72,0,0,0,1.69-5.56A3.72,3.72,0,0,0,2,27.5" style="fill: #aba99d"/>
      <path d="M18.37,1.82a13.42,13.42,0,0,0,.52,13.05c2.54-1.16,3.92-4,4.2-6.81.24-2.35-.38-5.06-2.43-6.21s-5.34.76-4.59,3" style="fill: #aba99d"/>
      <path d="M66.55,15A7,7,0,0,0,62,18.7c-.68,1.43-.56,3.58.95,4.08a2.84,2.84,0,0,0,1.53,0,7.82,7.82,0,0,0,5.72-5.58,8,8,0,0,0-7.78,1.33" style="fill: #aba99d"/>
      <path d="M58,78.29a68.09,68.09,0,0,0,9.44,7.21A8.07,8.07,0,0,0,60,73.88" style="fill: #aba99d"/>
    </pattern>
  </defs>
  <title>matt</title>
  <g style="clip-path: url(#clip-path)">
    <rect width="539.49" height="532" rx="266" ry="266" style="fill: #c1d354"/>
    <path d="M457.2,501.32a127.78,127.78,0,0,0-79.53-108.87l-89.95-36.38-22.29-.27a169.24,169.24,0,0,0-105.89,35.6L118,423.69A127.86,127.86,0,0,0,70,505.56L56,598.87H462.58Z" transform="translate(-9.25 -7.87)" style="fill: url(#linear-gradient)"/>
    <path d="M457.2,501.32a127.78,127.78,0,0,0-79.53-108.87l-89.95-36.38-22.29-.27a169.24,169.24,0,0,0-105.89,35.6L118,423.69A127.86,127.86,0,0,0,70,505.56L56,598.87H462.58Z" transform="translate(-9.25 -7.87)" style="fill: url(#New_Pattern)"/>
    <path d="M243.48,249.31v14.36a5.07,5.07,0,0,0,4.93,5.2h4.47a5.07,5.07,0,0,0,4.93-5.2V233.48c0-42.55,32.72-77,73.09-77h0c40.37,0,73.09,34.49,73.09,77v19c0,4.77,5.58,7,8.6,3.47a5.25,5.25,0,0,0,1.19-2.61l10.15-63.66a87.33,87.33,0,0,0-5.81-47.76h0c-9-21.2-26-37.46-46.91-44.84l-22.29-7.89a67.44,67.44,0,0,0-24.78-4.31,68.16,68.16,0,0,0-34.12,10l-24.85,8a78.35,78.35,0,0,0-25.09,16.6l-3.91,3.84c-17.71,17.36-26.88,42.32-24.89,67.73l3.67,46.7a5.06,5.06,0,0,0,4.52,4.75l19.47,1.63Z" transform="translate(-9.25 -7.87)" style="fill: #282523"/>
    <path d="M286,507.87h0c-30.8,0-64-84-64-114.75V257.37a29.5,29.5,0,0,1,29.5-29.5H336V393.12C336,423.91,316.81,507.87,286,507.87Z" transform="translate(-9.25 -7.87)" style="fill: #f7ccb7"/>
    <path d="M240.09,324.41s35.31,70,53.51,78.63c7.13,3.38,15,4.11,22,3.75,11.06-.58,20.21-9.46,21.87-21.24L345,332s-58.91-15.08-72.83-15.08S240.09,324.41,240.09,324.41Z" transform="translate(-9.25 -7.87)" style="fill: #ef7d50"/>
    <path d="M318,378.54l1.33,2.66c-27.23-4.76-55-19.33-70.39-40.36a83,83,0,0,1-16.23-52.27l3.36-96c1.41-40.25,36.37-71.7,78.09-70.24l25.8.9c3.83-.26,33.22-1.78,55,21.63,20.77,22.31,18.39,49.79,18,53.9l-3.36,96C405.7,333.87,373.13,378.77,318,378.54Z" transform="translate(-9.25 -7.87)" style="fill: #f7ccb7"/>
    <path d="M418.19,152.36c-15.34-34.08-41.77-48.6-98.74-46.54C266.38,107.75,253,124.3,240.13,147L224,151.87v61.62c-.29,5.24-.31,8.48-.31,8.48l.31-.44v21.34c4.29,2.46,6.37,1.32,8,6l6,14,19,13v-90a35.15,35.15,0,0,1,11.11-25.69c15.35-14.39,33-16.12,58.92-16.63l35.67-.7a68.66,68.66,0,0,1,12.22.85c18.37,2.94,32.36,18.06,34.52,36.53L415,227.87S433.54,186.45,418.19,152.36Z" transform="translate(-9.25 -7.87)" style="fill: #282523"/>
    <path d="M329.76,346.56h0a16,16,0,0,1,16,16V364a11,11,0,0,1-11,11h-10a11,11,0,0,1-11-11v-1.42a16,16,0,0,1,16-16Z" style="fill: #423b35"/>
    <polygon points="212.76 344 186.76 344 161.76 373 231.76 455 259.76 418 212.76 370 212.76 344" style="fill: #e5e5df"/>
    <path d="M336,385.87,333.6,409.8a75,75,0,0,1-6.34,21.2l-31.41,66.94,8,34.93,53.89-94.23L402,399.87s-22-22-35-24a47.76,47.76,0,0,0-7-1c-6.92,3.73-16.34,6.73-24,8.36Z" transform="translate(-9.25 -7.87)" style="fill: #e5e5df"/>
    <polygon points="231.01 455.63 257.4 417.47 296.39 509.88 318.76 590 276.76 591 231.01 455.63" style="fill: #f4f4f2"/>
    <circle cx="227.76" cy="432" r="6" style="fill: #504f3a"/>
    <rect width="539.49" height="532" rx="266" ry="266" style="fill: none"/>
    <path d="M274.52,154.37s28-15,37-36.3S320,84.89,320,84.89,310,84.37,296.73,89,284,96.29,284,96.29a53,53,0,0,1,4.76,24.38C287.94,138.6,277.93,150.6,274.52,154.37Z" transform="translate(-9.25 -7.87)" style="fill: #6d5d4e"/>
    <path d="M302,144.87c31.94-1.05,51-11,61-17.79,5.38-3.67,25.41-18.19,23-23.21a2.45,2.45,0,0,0-1-1c-1.23-1-2.56-2-4-3a56.11,56.11,0,0,0-18-8c-4.82-2-16-6.16-17.85-3.33a1.66,1.66,0,0,0-.15.33,61.44,61.44,0,0,1-8.08,28.07C325.76,136.28,307.28,143.12,302,144.87Z" transform="translate(-9.25 -7.87)" style="fill: #6d5d4e"/>
    <path d="M358,142.87c.15.82,19.59.84,40-10a84.23,84.23,0,0,0,11-7,58.16,58.16,0,0,0-8-11l-.59-.62A2,2,0,0,0,397,115a39.58,39.58,0,0,1-9,14.89C375.67,142.44,357.87,142.09,358,142.87Z" transform="translate(-9.25 -7.87)" style="fill: #6d5d4e"/>
    <path d="M398.68,310.71c-.82,1.71-1.67,3.41-2.55,5.08-3.07,5.81-7.49,12-14,12.63-5.45.54-10.33-3-15.08-5.73-11.29-6.46-24.84-8.42-37.61-6.29A58.68,58.68,0,0,0,310,323.22c-5.5,3.14-9.62,8.83-16.32,8.82-26.65-.06-29.61-40.73-37.7-58.17-1-2.25.3-.3-1.95-.83l-20-16.17-1,35a83.67,83.67,0,0,0,17.83,51.67c16,20.49,45,38,69.66,41.36a86.17,86.17,0,0,0,64.51-30c20.54-23.13,26.58-57.49,25.85-87.6A133.75,133.75,0,0,1,398.68,310.71Z" transform="translate(-9.25 -7.87)" style="fill: #282523"/>
    <path d="M196,269.87c0,17.53,15.09,32,34.78,34.6A5.54,5.54,0,0,0,237,299V242.18a6.75,6.75,0,0,0-7.81-6.68C210.3,238.61,196,252.82,196,269.87Z" transform="translate(-9.25 -7.87)" style="fill: #f7ccb7"/>
    <path d="M348.61,296.7l-2.69,1.65a9.72,9.72,0,0,1-10.4,0l-2.68-1.65c-4-2.48-6.34-7.54-5.91-12.83l2.68-33.14c.54-6.73,5.36-11.86,11.11-11.86h0c5.76,0,10.57,5.13,11.12,11.86l2.68,33.14C355,289.16,352.61,294.22,348.61,296.7Z" transform="translate(-9.25 -7.87)" style="fill: #ff8f6c"/>
    <path d="M210.57,270.59a17.94,17.94,0,0,0,6.81,14.09,6.94,6.94,0,0,0,11.17-5.54V262.05a7,7,0,0,0-11.17-5.55A17.94,17.94,0,0,0,210.57,270.59Z" transform="translate(-9.25 -7.87)" style="fill: #ff8f6c"/>
  </g>
</svg>
