<svg xmlns="http://www.w3.org/2000/svg" xmlns:xlink="http://www.w3.org/1999/xlink" viewBox="0 0 539.91 595.09">
  <defs>
    <clipPath id="clip-path" transform="translate(-6.25 -9.92)">
      <rect x="6.25" y="10" width="539.49" height="532" rx="266" ry="266" transform="matrix(1, -0.02, 0.02, 1, -4.99, 5.09)" style="fill: none"/>
    </clipPath>
    <clipPath id="clip-path-2" transform="translate(-6.25 -9.92)">
      <path d="M458.74,500.15a127.81,127.81,0,0,0-81.51-107.4L286.63,358l-22.29.14a169.15,169.15,0,0,0-105.22,37.52l-41,33.05a127.85,127.85,0,0,0-46.45,82.73L59.36,605l406.54-7.42Z" style="fill: none"/>
    </clipPath>
    <clipPath id="clip-path-3" transform="translate(-6.25 -9.92)">
      <path d="M270.05,242.32h52.5a6.75,6.75,0,0,1,6.75,6.75V264A26.33,26.33,0,0,1,303,290.32H287.64A24.33,24.33,0,0,1,263.3,266V249.07A6.75,6.75,0,0,1,270.05,242.32Z" transform="translate(-4.81 5.46) rotate(-1.05)" style="fill: none"/>
    </clipPath>
    <clipPath id="clip-path-4" transform="translate(-6.25 -9.92)">
      <path d="M364.67,240.63h48a9,9,0,0,1,9,9V260a28.58,28.58,0,0,1-28.58,28.58H381.84a26.17,26.17,0,0,1-26.17-26.17V249.63A9,9,0,0,1,364.67,240.63Z" transform="translate(-4.77 7.14) rotate(-1.05)" style="fill: none"/>
    </clipPath>
  </defs>
  <title>Hans</title>
  <g style="isolation: isolate">
    <g id="Layer_1" data-name="Layer 1">
      <g>
        <g style="clip-path: url(#clip-path)">
          <rect x="6.25" y="10" width="539.49" height="532" rx="266" ry="266" transform="matrix(1, -0.02, 0.02, 1, -11.25, -4.84)" style="fill: #c1d354"/>
          <path d="M200.2,232.91c-1.8,5.18-15.45,46.59,8.88,81.18a81.56,81.56,0,0,0,31.09,26.11" transform="translate(-6.25 -9.92)" style="fill: #161616"/>
          <path d="M360,110.08c11.49,6.09,48.5,27.56,61,70.1,2.67,9.06,14.43,49.06-7.09,70.48A42.41,42.41,0,0,1,396.13,261" transform="translate(-6.25 -9.92)" style="fill: #161616"/>
          <path d="M458.74,500.15a127.81,127.81,0,0,0-81.51-107.4L286.63,358l-22.29.14a169.15,169.15,0,0,0-105.22,37.52l-41,33.05a127.85,127.85,0,0,0-46.45,82.73L59.36,605l406.54-7.42Z" transform="translate(-6.25 -9.92)" style="fill: #a0a0a0"/>
          <g style="clip-path: url(#clip-path-2)">
            <ellipse cx="281.13" cy="400.22" rx="77" ry="65.4" transform="translate(-13.51 -4.72) rotate(-1.05)" style="fill: #d3d3d3"/>
          </g>
          <path d="M286.45,441.27h0c-40.61.75-64.55-29.42-65.07-57.82l-2.28-125.2c-.28-15,12.7-27.45,29-27.75L332.58,229l2.78,152.41C335.88,409.76,327,440.53,286.45,441.27Z" transform="translate(-6.25 -9.92)" style="fill: #f4c4b8"/>
          <path d="M260.29,319.87A14.72,14.72,0,0,0,249,341.31c11.6,22.14,31.87,57.91,44.39,63.56,7.19,3.25,15.11,3.84,22.08,3.35,11-.78,20-9.82,21.47-21.64l6.56-53.72s-59.18-14-73.08-13.75A98.66,98.66,0,0,0,260.29,319.87Z" transform="translate(-6.25 -9.92)" style="fill: #ed9580"/>
          <path d="M319,370.56h0c-28.72-.48-55.44-17.89-71.29-36.55-11.09-13.07-17.54-29.26-17.25-46.7L232,201.06c.6-36.16,34.91-64.91,76.62-64.22l25.78.43c3.82-.29,31.79-6.49,54,14.22,21.2,19.72,20.74,48.84,20.39,52.53l-1.4,83.7a29.65,29.65,0,0,1-.65,5.71C397.86,334.9,356.66,369.93,319,370.56Z" transform="translate(-6.25 -9.92)" style="fill: #f4c4b8"/>
          <rect x="6.67" y="9.99" width="539.49" height="532" rx="266" ry="266" transform="matrix(1, -0.02, 0.02, 1, -11.25, -4.83)" style="fill: none"/>
          <path d="M350.27,296l-2.65,1.71a9.72,9.72,0,0,1-10.4.19l-2.71-1.61c-4.05-2.4-6.48-7.43-6.15-12.72l2.08-33.18c.42-6.74,5.14-12,10.9-12.06h0c5.75-.11,10.66,4.94,11.32,11.65L356,283C356.48,288.32,354.23,293.42,350.27,296Z" transform="translate(-6.25 -9.92)" style="fill: #ed9580"/>
          <path d="M404.39,151.3C383.92,108,335.16,97.54,291.11,102.18c-37.46,3.95-70,30.09-78.77,67a103.19,103.19,0,0,0,0,47.95c2,8.23,4.49,28.43,7.39,36.26,1.48,4,0,0,2.56,3.19,1.67,2.08,5.47-8.07,6.7-4.74l5.49,26.91,5-4.73c7.84-7.41,8.43-19.07,8.59-29.86q-.41-13.18-.8-26.37c-.62-20.26-3.94-40.57,15.26-54a10,10,0,0,1,3.13-1.62C274,160,291.08,170.3,299.06,173c12.07,4,24.54,6.67,37.29,4.91,8.63-1.19,17.72-2.65,24.59-8.39,4.3-3.59,7.79-7.84,12-11.18,7.32-5.87,17.92-1.78,20.32,7.29a1.27,1.27,0,0,0,.17.42c13.41,22.76,11.94,32.6,14.55,48.75,1.34,8.23,2.33,12.16.44,20.35C408.39,235.12,420.35,185.1,404.39,151.3Z" transform="translate(-6.25 -9.92)" style="fill: #161616"/>
          <path d="M219.28,289.32c-9.2-10.26-32.57-39.28-31.8-79,1.17-60,56.46-109.67,107.65-112.82,34.08-2.09,70.06,16.22,69.52,28.91-.59,13.81-44.62,24.63-67.81,28.27-40.88,6.43-59.44-2.78-70.86,9.6-6.74,7.31-11.93,23.16,3.15,62.62" transform="translate(-6.25 -9.92)" style="fill: #161616"/>
          <path d="M193.37,273.51c.32,17.52,15.67,31.76,35.41,34a5.53,5.53,0,0,0,6.11-5.62l-1-56.77a6.75,6.75,0,0,0-7.93-6.54C207.08,242,193.06,256.46,193.37,273.51Z" transform="translate(-6.25 -9.92)" style="fill: #f4c4b8"/>
          <path d="M207.94,274a17.94,17.94,0,0,0,7.06,14,6.94,6.94,0,0,0,11.06-5.75l-.31-17.09a6.94,6.94,0,0,0-11.26-5.34A17.93,17.93,0,0,0,207.94,274Z" transform="translate(-6.25 -9.92)" style="fill: #ed9580"/>
        </g>
        <path d="M270.05,242.32h52.5a6.75,6.75,0,0,1,6.75,6.75V264A26.33,26.33,0,0,1,303,290.32H287.64A24.33,24.33,0,0,1,263.3,266V249.07A6.75,6.75,0,0,1,270.05,242.32Z" transform="translate(-11.07 -4.47) rotate(-1.05)" style="fill: #a894f7"/>
        <path d="M364.67,240.63h48a9,9,0,0,1,9,9V260a28.58,28.58,0,0,1-28.58,28.58H381.84a26.17,26.17,0,0,1-26.17-26.17V249.63A9,9,0,0,1,364.67,240.63Z" transform="translate(-11.02 -2.78) rotate(-1.05)" style="fill: #a894f7"/>
        <g style="clip-path: url(#clip-path-3)">
          <g style="mix-blend-mode: overlay">
            <rect x="281.39" y="218.86" width="6.67" height="80" transform="translate(253.16 -135.03) rotate(43.95)" style="fill: #fff"/>
            <rect x="297.21" y="223.34" width="3.33" height="80" transform="translate(260.24 -143.6) rotate(43.95)" style="fill: #fff"/>
          </g>
        </g>
        <g style="clip-path: url(#clip-path-4)">
          <g style="mix-blend-mode: overlay">
            <rect x="385.34" y="216.96" width="6.67" height="80" transform="translate(280.96 -207.72) rotate(43.95)" style="fill: #fff"/>
            <rect x="401.17" y="221.44" width="3.33" height="80" transform="translate(288.04 -216.29) rotate(43.95)" style="fill: #fff"/>
          </g>
        </g>
        <path d="M235.27,226.81H408.15a6.81,6.81,0,0,1,6.81,6.81v0a0,0,0,0,1,0,0H228.46a0,0,0,0,1,0,0v0A6.81,6.81,0,0,1,235.27,226.81Z" style="fill: #8574e8"/>
      </g>
    </g>
  </g>
</svg>
