<svg id="Layer_1" data-name="Layer 1" xmlns="http://www.w3.org/2000/svg" xmlns:xlink="http://www.w3.org/1999/xlink" viewBox="0 0 539.91 592.15">
  <defs>
    <clipPath id="clip-path" transform="translate(-7.08 -10.83)">
      <rect x="7.08" y="10.83" width="539.49" height="532" rx="266" ry="266" style="fill: none"/>
    </clipPath>
  </defs>
  <title>Daniel</title>
  <g style="clip-path: url(#clip-path)">
    <rect width="539.49" height="532" rx="266" ry="266" style="fill: #f44a5a"/>
    <path d="M206.33,233.51c-1.9,5.14-10.77,47,12.93,82.06,9.8,14.49,16.92,21.78,25.07,25.94" transform="translate(-7.08 -10.83)" style="fill: #ffb048"/>
    <path d="M363.86,113.61c11.38,6.3,35.46,9.14,47.19,51.9,2.5,9.1,5,93.43-16.89,114.46-6,5.79,8.12-16.25,3-14.81" transform="translate(-7.08 -10.83)" style="fill: #ffb048"/>
    <path d="M455.45,505.42a127.81,127.81,0,0,0-79.54-108.87l-90-36.37-22.29-.28a169.24,169.24,0,0,0-105.89,35.6l-41.56,32.3a127.76,127.76,0,0,0-47.94,81.86L54.21,603H460.82Z" transform="translate(-7.08 -10.83)" style="fill: #0c1542"/>
    <path d="M284.26,458h0c-30.8,0-64-45.16-64-73.56V259.18c0-15,13.2-27.21,29.5-27.21h84.5V384.41C334.26,412.81,315.05,458,284.26,458Z" transform="translate(-7.08 -10.83)" style="fill: #f9e8e4"/>
    <path d="M260.32,321.54a14.73,14.73,0,0,0-11.71,21.24c11.2,22.35,30.81,58.48,43.23,64.36,7.13,3.38,15,4.11,22,3.75,11.06-.57,20.21-9.45,21.87-21.24l7.54-53.6S284.35,321,270.43,321C267.12,321,263.67,321.2,260.32,321.54Z" transform="translate(-7.08 -10.83)" style="fill: #f9b0aa"/>
    <path d="M331.42,371.28h0c-28.7-1-68.39-16.88-83.89-35.82-10.86-13.28-17-29.58-16.4-47l3-86.21c1.26-36.14,36.09-64.27,77.78-62.81l25.77.91c3.83-.23,31.9-5.92,53.77,15.19,20.83,20.11,19.84,49.21,19.43,52.9l-3,86.21C399.71,337.33,351.25,371.28,331.42,371.28Z" transform="translate(-7.08 -10.83)" style="fill: #f9e8e4"/>
    <rect x="0.41" y="1.15" width="539.49" height="532" rx="266" ry="266" style="fill: none"/>
    <path d="M346.85,300.8l-2.69,1.66a9.72,9.72,0,0,1-10.4,0l-2.68-1.66c-4-2.47-6.34-7.54-5.91-12.83l2.68-33.14c.54-6.72,5.36-11.86,11.11-11.86h0c5.76,0,10.57,5.14,11.12,11.86L352.76,288C353.19,293.26,350.85,298.33,346.85,300.8Z" transform="translate(-7.08 -10.83)" style="fill: #f9b0aa"/>
    <path d="M407.47,155.64c-19.68-43.71-68.23-55-112.36-51.18-37.52,3.27-70.54,28.8-80,65.55a103.35,103.35,0,0,0-.89,48c1.84,8.26,4,28.51,6.73,36.39,1.41,4,0,0,2.5,3.24,1.63,2.11,5.62-8,6.79-4.62l5,27,5.08-4.63c8-7.27,8.77-18.92,9.13-29.7q-.16-13.2-.32-26.39c-.13-11.23-.5-26.34,3.52-37.51a35.45,35.45,0,0,1,5.17-9.51c1.89-2.49,4.09-5.38,7.45-6.84,5.14-2.24,10.63-.12,12.86.69,16.09,5.82,40.56,7.61,54.19,6.82,11-.64,18.79-1.08,28-5.33,7.3-3.36,12.91-7.91,21.29-7,5.41.56,9.43,2.89,10.58,4,14.11,13.43,15.11,36.75,17.67,54.65,1.18,8.26,2.1,12.2.06,20.36C409.94,239.52,422.81,189.72,407.47,155.64Z" transform="translate(-7.08 -10.83)" style="fill: #ffb048"/>
    <path d="M219.88,290.25c-7.86-8.68-20.8-51.24-19.87-93,.37-16.42,3.32-37.21,18.3-57.43,29.49-39.82,80.76-37.91,83.2-37.78,22,1.18,50,10.46,49.7,19.48-.21,6.68-16,16-93.69,25.52" transform="translate(-7.08 -10.83)" style="fill: #ffb048"/>
    <path d="M194.26,274c0,17.53,15.09,32,34.78,34.6a5.54,5.54,0,0,0,6.22-5.51V246.28a6.74,6.74,0,0,0-7.81-6.67C208.54,242.72,194.26,256.92,194.26,274Z" transform="translate(-7.08 -10.83)" style="fill: #f9e8e4"/>
    <path d="M208.81,274.69a17.94,17.94,0,0,0,6.81,14.09,6.94,6.94,0,0,0,11.17-5.54V266.15a7,7,0,0,0-11.17-5.55A18,18,0,0,0,208.81,274.69Z" transform="translate(-7.08 -10.83)" style="fill: #f9b0aa"/>
    <path d="M328,148.57c6.38,3.27,22.82,10.56,42,6,19.45-4.62,38-20.54,35.5-28.5-1.76-5.69-14.14-7.14-22-6-14.49,2.09-21.91,14.17-23,16" transform="translate(-7.08 -10.83)" style="fill: #ffb048"/>
    <path d="M315.86,142c6.79,2.29,24.13,7.07,42.42-.27,18.56-7.44,34.77-32.64,30.91-33.43s-14.4,3.45-22,5.74c-14,4.21-47.05.07-47.85,2" transform="translate(-7.08 -10.83)" style="fill: #ffb048"/>
    <path d="M309.13,142.17c3.1,6.64,11.8,22.8,30.27,30.48,18.72,7.78,49.09.42,46.94-3s-12.79-7.8-19.9-11.58c-13.08-7-33.39-34-35.44-33.05" transform="translate(-7.08 -10.83)" style="fill: #ffb048"/>
  </g>
</svg>
