<svg xmlns="http://www.w3.org/2000/svg" xmlns:xlink="http://www.w3.org/1999/xlink" viewBox="0 0 539.49 666.25">
  <defs>
    <style>
      .cls-1 {
        fill: none;
      }

      .cls-2 {
        isolation: isolate;
      }

      .cls-3 {
        clip-path: url(#clip-path);
      }

      .cls-4 {
        fill: #6abefd;
      }

      .cls-5 {
        fill: #fff;
      }

      .cls-6 {
        clip-path: url(#clip-path-2);
      }

      .cls-7, .cls-9 {
        opacity: 0.54;
      }

      .cls-8 {
        fill: #778ce0;
      }

      .cls-9 {
        mix-blend-mode: multiply;
      }

      .cls-10 {
        fill: #f7bdad;
      }

      .cls-11 {
        fill: #ea7b78;
      }

      .cls-12 {
        fill: #281a0d;
      }

      .cls-13 {
        fill: #0f0f0f;
      }
    </style>
    <clipPath id="clip-path">
      <rect class="cls-1" width="539.49" height="532" rx="266"/>
    </clipPath>
    <clipPath id="clip-path-2">
      <path id="SVGID" class="cls-1" d="M448.37,493.45a127.81,127.81,0,0,0-79.54-108.87l-75.77-30.64A81.2,81.2,0,0,0,263.58,348l-7-.09a169.24,169.24,0,0,0-105.89,35.6l-41.56,32.29A127.8,127.8,0,0,0,61.2,497.69L47.13,591H453.74Z"/>
    </clipPath>
  </defs>
  <g class="cls-2">
    <g id="Layer_2" data-name="Layer 2">
      <g id="Avatars">
        <g class="cls-3">
          <g>
            <rect class="cls-4" width="539.49" height="532" rx="266"/>
            <g>
              <path class="cls-5" d="M448.37,493.45a127.81,127.81,0,0,0-79.54-108.87l-75.77-30.64A81.2,81.2,0,0,0,263.58,348l-7-.09a169.24,169.24,0,0,0-105.89,35.6l-41.56,32.29A127.8,127.8,0,0,0,61.2,497.69L47.13,591H453.74Z"/>
              <g class="cls-6">
                <g>
                  <g class="cls-7">
                    <rect class="cls-8" x="87.66" y="324.79" width="15.68" height="299.41"/>
                    <rect class="cls-8" x="148.97" y="324.79" width="15.68" height="299.41"/>
                    <rect class="cls-8" x="210.28" y="324.79" width="15.68" height="299.41"/>
                    <rect class="cls-8" x="271.58" y="324.79" width="15.68" height="299.41"/>
                    <rect class="cls-8" x="332.89" y="324.79" width="15.68" height="299.41"/>
                    <rect class="cls-8" x="394.2" y="324.79" width="15.68" height="299.41"/>
                    <rect class="cls-8" x="455.5" y="324.79" width="15.68" height="299.41"/>
                  </g>
                  <g class="cls-9">
                    <rect class="cls-8" x="43.47" y="282.73" width="456.24" height="15.68"/>
                    <rect class="cls-8" x="43.47" y="344.04" width="456.24" height="15.68"/>
                    <rect class="cls-8" x="43.47" y="405.34" width="456.24" height="15.68"/>
                    <rect class="cls-8" x="43.47" y="466.65" width="456.24" height="15.68"/>
                    <rect class="cls-8" x="43.47" y="527.96" width="456.24" height="15.68"/>
                    <rect class="cls-8" x="43.47" y="589.26" width="456.24" height="15.68"/>
                    <rect class="cls-8" x="43.47" y="650.57" width="456.24" height="15.68"/>
                  </g>
                </g>
              </g>
              <path class="cls-8" d="M175.16,367.74c3,5.29,14.57,2.92,21.19,12.18a18.52,18.52,0,0,1,2.34,4.5c8.22,22.76,4.86,52.95,20.24,63.75a23.63,23.63,0,0,0,5.29,2.62c22.38,9.09,34.51-8.92,57-3.37,9.41,2.31,13.87,7.07,24.08,5.69a33.06,33.06,0,0,0,12.83-4.76c18.48-11.79,11.85-35.75,29.46-52.75,3.75-3.61,10-8.27,20.37-11.16a1.29,1.29,0,0,0,1.28-1.86l-5.42-10.79A50.52,50.52,0,0,0,331,344.46l-90.87-23.85a1.24,1.24,0,0,0-.74,0l-40.94,13.9a24.06,24.06,0,0,0-13.55,11.55C174.35,358.62,173.37,364.64,175.16,367.74Z"/>
            </g>
            <g>
              <path class="cls-10" d="M242.68,220c-16.3,0-29.5,12.18-29.5,27.21V372.43c6.35,29.25,48.9,73.55,58.4,75s50.07-48.86,55.6-75V220Z"/>
              <path class="cls-11" d="M251.1,307.43a14.72,14.72,0,0,0-11.7,21.24C250.59,351,265.17,379,282.62,393c6.14,5,15,4.11,22,3.75,11.05-.58,20.2-9.45,21.86-21.24l7.54-53.6s-58.91-15.08-72.82-15.08C257.91,306.86,254.45,307.09,251.1,307.43Z"/>
              <path class="cls-10" d="M309.51,363.06l1.55-1.73c-28.71-1-55.11-18.9-70.61-37.85-10.86-13.27-17-29.57-16.4-47l3-86.21c1.26-36.15,36.09-64.27,77.78-62.81l25.77.9c3.83-.22,31.9-5.91,53.77,15.2,20.84,20.11,19.84,49.21,19.43,52.9l-3,86.2C399.32,325,358.31,364.77,309.51,363.06Z"/>
              <path class="cls-11" d="M339.77,288.83l-2.69,1.66a9.72,9.72,0,0,1-10.4,0L324,288.83c-4-2.48-6.34-7.54-5.91-12.83l2.68-33.14c.55-6.72,5.36-11.86,11.11-11.86h0c5.76,0,10.57,5.14,11.12,11.86L345.68,276C346.11,281.29,343.77,286.35,339.77,288.83Z"/>
              <path class="cls-12" d="M400.83,264.69a85.32,85.32,0,0,1-27.48,61.62,5.81,5.81,0,0,1-2.38,1.37c-4.22,1.16-6.41-3.64-8.33-7.13-3.58-6.49-10.3-10.83-17.43-12.85s-14.69-1.94-22.07-1.31c-12.18,1-25.8,4.58-30.64,16.53a13,13,0,0,1-2.83,4.4c-8.47,8.37-18.76-4.16-25.69-8a58.62,58.62,0,0,1-8.19-5.58c-10.14-8.13-16.87-18.46-22.23-30.3L228,273.61c-3.7,16.52,1.92,35.49,11.73,49.28,3.24,4.55,8.53,11.41,37.48,32.4,14.24,10.33,21.46,15.52,26.44,17.26s26.5,8.51,44.91-2.14c2.26-1.3,5.4-3.41,19.84-22.21,15.23-19.84,22.6-29.87,26.34-38.16C401.15,295.9,404.14,279.85,400.83,264.69Z"/>
              <path class="cls-10" d="M325.76,318.05c-.74.08-17.8,2-20.82,13.26-2.91,10.85,8.29,26.39,21.27,26.89,14.16.55,27.21-16.92,24.69-27.91C348.71,320.79,335.12,317.12,325.76,318.05Z"/>
              <path class="cls-13" d="M399.4,148.06a95.38,95.38,0,0,0-27.81-35.4c-26.24-20.14-54.42-21.6-64.86-21.81-43.09-.86-72.33,22.62-79.34,28.63C220,125.77,208.09,136,200.3,153.7c-8.54,19.38-4.75,41.2,2.85,84.83.84,4.86,2.91,16.1,7.84,16.88,3.77.59,8.39-5,8.2-5.36a53.05,53.05,0,0,0-5.3,3.37c1.41,4.31,0,0,2.5,3.47,1.63,2.26,5.62-8.55,6.79-4.95l4.93,28.58a4.73,4.73,0,0,0,.19.74c1.54,4.54,6.95-12.67,7.64-17.44,1.57-10.88.81-8.82,1.05-16.71.08-2.55.11-4.91.12-7.2a39.2,39.2,0,0,1,11.27-27.28c4.49-4.58,4.41-6.87,5.78-9.22,10.23-17.54.53-34.26,4.59-46.28,10-29.43,104.7-36.81,131.45,3.89,3.9,5.93,7,13.3,7.56,15.7,4.51,18.7,3.35,39.9,4.42,59.14C414,208.23,412.07,175.1,399.4,148.06Z"/>
              <path class="cls-10" d="M187.18,262c0,17.53,15.09,32,34.78,34.6a5.54,5.54,0,0,0,6.22-5.51V234.31a6.75,6.75,0,0,0-7.81-6.68C201.46,230.74,187.18,245,187.18,262Z"/>
              <path class="cls-11" d="M201.73,262.72a17.94,17.94,0,0,0,6.81,14.09,6.94,6.94,0,0,0,11.17-5.54V254.18a7,7,0,0,0-11.17-5.55A17.94,17.94,0,0,0,201.73,262.72Z"/>
            </g>
            <ellipse class="cls-12" cx="328.85" cy="355.68" rx="11.17" ry="10.46"/>
          </g>
        </g>
      </g>
    </g>
  </g>
</svg>
