<svg id="Layer_1" data-name="Layer 1" xmlns="http://www.w3.org/2000/svg" xmlns:xlink="http://www.w3.org/1999/xlink" viewBox="0 0 539.91 604.5">
  <defs>
    <clipPath id="clip-path" transform="translate(-5.92 -8.33)">
      <rect x="5.92" y="8.33" width="539.49" height="532" rx="266" ry="266" style="fill: none"/>
    </clipPath>
  </defs>
  <title>Ashraf</title>
  <g style="clip-path: url(#clip-path)">
    <rect width="539.49" height="532" rx="266" ry="266" style="fill: #6abefd"/>
    <path d="M454.29,501.78a127.81,127.81,0,0,0-79.54-108.87L284.8,356.54l-22.29-.27a169.17,169.17,0,0,0-105.89,35.59l-41.56,32.3A127.76,127.76,0,0,0,67.12,506L53.05,599.33H459.66Z" transform="translate(-5.92 -8.33)" style="fill: #f4f4f4"/>
    <path d="M314,457.33v155.5H465.41V480.54a71.16,71.16,0,0,0-33.13-60.16l-59.37-37.55" transform="translate(-5.92 -8.33)" style="fill: #252430"/>
    <path d="M349.05,359.67l36.13,18.62a17.83,17.83,0,0,1,7.12,25l-34.16,56.88a17.83,17.83,0,0,1-18.85,8.29l-18-3.69A15.91,15.91,0,0,1,309.46,444l25-71.79A19.07,19.07,0,0,1,348,359.91Z" transform="translate(-5.92 -8.33)" style="fill: #424254"/>
    <path d="M283.1,454.33h0c-30.8,0-64-45.16-64-73.56V255.55c0-15,13.2-27.22,29.5-27.22h84.5V380.77C333.1,409.17,313.89,454.33,283.1,454.33Z" transform="translate(-5.92 -8.33)" style="fill: #efac8f"/>
    <path d="M259.16,317.91a14.72,14.72,0,0,0-11.71,21.23c11.2,22.35,30.81,58.48,43.23,64.36,7.13,3.38,15,4.11,22,3.75,11.06-.57,20.21-9.45,21.87-21.24l7.54-53.6s-58.91-15.08-72.82-15.08A98.57,98.57,0,0,0,259.16,317.91Z" transform="translate(-5.92 -8.33)" style="fill: #d18266"/>
    <path d="M315.43,371.4l1.55-1.73c-28.71-1-55.11-18.9-70.61-37.85-10.86-13.27-17-29.58-16.4-47l3-86.21c1.27-36.14,36.09-64.27,77.78-62.81l25.77.91c3.83-.23,31.9-5.92,53.77,15.19,20.84,20.11,19.84,49.21,19.43,52.9l-3,86.21C405.24,333.32,364.23,373.1,315.43,371.4Z" transform="translate(-5.92 -8.33)" style="fill: #efac8f"/>
    <rect x="0.41" width="539.49" height="532" rx="266" ry="266" style="fill: none"/>
    <path d="M345.69,297.16,343,298.82a9.72,9.72,0,0,1-10.4,0l-2.68-1.66c-4-2.47-6.34-7.54-5.91-12.83l2.68-33.14c.55-6.72,5.36-11.86,11.11-11.86h0c5.76,0,10.57,5.14,11.12,11.86l2.68,33.14C352,289.62,349.69,294.69,345.69,297.16Z" transform="translate(-5.92 -8.33)" style="fill: #d18266"/>
    <path d="M207.65,364.26s-13.42,19.07,3,46.07,37.79,55.5,66.12,57,51.65-22.5,61-45.5,13.76-38.3,9.8-39.9" transform="translate(-5.92 -8.33)" style="fill: none;stroke: #a3a3a3;stroke-linecap: round;stroke-miterlimit: 10;stroke-width: 4px;opacity: 0"/>
    <path d="M407.37,272.65c-.14,3.09-1.22,6.52-1.59,9.66a78.67,78.67,0,0,1-2.4,13.19c-3.29,11.33-10.7,20.67-19.19,28.66-3.25,3-7.78,5.4-12.08,4.23-3-.81-5.26-3.13-7.74-5-9-6.71-23.75-9.43-34.79-8.59-10.32.79-19.26,5.19-27.43,11a25,25,0,0,1-29.55-.22,117.18,117.18,0,0,1-11.46-9.82c-19.5-19-18.37-33.87-22.94-45.56l-4.1.81c-1.3,8.26-3.32,20.61,2.54,40.77,11.73,40.34,38.74,50.29,66.35,58,13.65,3.79,33.12,5.18,47.86-3.5,5.34-3.15,30.65-10.76,43.89-35.92,5.09-9.67,9.83-17.05,12.63-34.79C408.43,288.88,407,280.66,407.37,272.65Z" transform="translate(-5.92 -8.33)" style="fill: #0f0f0f"/>
    <path d="M332.56,325.73c-7.11.58-16.93,4.67-17.45,10.38-.58,6.32,10.27,14.1,20.43,13.39,8.7-.61,18.34-7.53,18.07-13.5C353.32,329.64,341.83,325,332.56,325.73Z" transform="translate(-5.92 -8.33)" style="fill: #f2a391"/>
    <rect width="539.49" height="532" rx="266" ry="266" style="fill: none"/>
    <path d="M406.31,152C391.85,119.87,341,93.82,294,100.82c-5.89.88-54.85,8.79-70.2,42.09-8.68,18.83-12.34,50.34-7.1,73.44.9,4,0,0,0,.32-.09,4-3.47,15,3.17,34,1.41,4,0,0,2.5,3.24,1.63,2.11,5.62-8,6.79-4.62l5,27,3.81,10.5c8-7.26,4.65-31.22,5-42,.2-5.87.11-10.69,0-16.11a14.68,14.68,0,0,1,7.14-12.82,23.9,23.9,0,0,0,11.27-16.26l3.9-21.6a17.79,17.79,0,0,1,17.51-14.64,88.67,88.67,0,0,1,9.65.43c33.37,3.9,42,3.54,48,3,11-1,18-2.9,25.82-4.71,14.78-3.42,14.18-6.79,25.68-3.29s12.19,13.9,12.19,13.9h0s.5,18,.19,31.75c-.19,8.34,6.53,23.24,4.49,31.4C408.78,235.88,421.65,186.08,406.31,152Z" transform="translate(-5.92 -8.33)" style="fill: #0f0f0f"/>
    <path d="M216.61,346.85l76.05,78.56a11.49,11.49,0,0,1,2.24,12.7l-22.15,49.56L272.08,611,43.41,607.67s24-148,26-149.34,103.34-81.1,109.34-86.88c3.64-3.52,13.54-15.27,20.74-23.95A11.51,11.51,0,0,1,216.61,346.85Z" transform="translate(-5.92 -8.33)" style="fill: #252430"/>
    <line x1="192.99" y1="393.5" x2="266.83" y2="479.33" style="fill: #252430;stroke: #424254;stroke-linecap: round;stroke-miterlimit: 10;stroke-width: 6px"/>
    <path d="M315.24,424.5H318a0,0,0,0,1,0,0V598a0,0,0,0,1,0,0H300.83a0,0,0,0,1,0,0V438.92a14.42,14.42,0,0,1,14.42-14.42Z" style="fill: #424254"/>
    <path d="M193.1,270.33c0,17.53,15.09,32.05,34.78,34.6a5.54,5.54,0,0,0,6.22-5.51V242.64a6.74,6.74,0,0,0-7.81-6.67C207.38,239.08,193.1,253.28,193.1,270.33Z" transform="translate(-5.92 -8.33)" style="fill: #efac8f"/>
    <path d="M207.65,271.06a18,18,0,0,0,6.81,14.09,7,7,0,0,0,11.17-5.55V262.51A6.94,6.94,0,0,0,214.46,257,17.94,17.94,0,0,0,207.65,271.06Z" transform="translate(-5.92 -8.33)" style="fill: #d18266"/>
  </g>
</svg>
