<?xml version="1.0" encoding="utf-8"?>
<!-- Generator: Adobe Illustrator 27.8.0, SVG Export Plug-In . SVG Version: 6.00 Build 0)  -->
<svg version="1.1" id="Layer_1" xmlns="http://www.w3.org/2000/svg" xmlns:xlink="http://www.w3.org/1999/xlink" x="0px" y="0px"
	 viewBox="0 0 187 176.2" style="enable-background:new 0 0 187 176.2;" xml:space="preserve">
<style type="text/css">
	.st0{opacity:0.33;fill:url(#SVGID_1_);enable-background:new    ;}
	.st1{fill:#9DCC4A;}
	.st2{opacity:0.7;fill:url(#SVGID_00000113316000540497783640000006828574537171745944_);enable-background:new    ;}
	.st3{opacity:0.33;fill:url(#SVGID_00000095323143070937500800000006950827753109743021_);enable-background:new    ;}
	.st4{opacity:0.89;fill:#87AF40;enable-background:new    ;}
	.st5{fill:#6C8C26;}
	.st6{clip-path:url(#SVGID_00000061467669344804667750000014385896656001162929_);}
	.st7{fill:#FFFFFF;}
	.st8{fill:none;stroke:#6C8C26;stroke-width:3.0846;stroke-miterlimit:10;}
	.st9{fill:none;stroke:#9DCC4A;stroke-width:3.0846;stroke-linecap:round;stroke-miterlimit:10;}
	.st10{fill:#5CB5F1;}
	.st11{fill:#2A3C67;}
	.st12{fill:#F9F9F9;}
	.st13{fill:#F9737A;}
	.st14{fill:#FFE269;}
	.st15{fill:url(#SVGID_00000163037631037987372180000000766121565031283893_);}
	.st16{fill:url(#SVGID_00000086684923634245895860000017350972805770064825_);}
	.st17{fill:url(#SVGID_00000087405850830378326390000002977411851415370661_);}
	.st18{opacity:0.12;fill:#2A3C67;enable-background:new    ;}
	.st19{fill:#96B2CD;}
	.st20{fill:#BFD2E2;}
	.st21{fill:#E2505E;}
	.st22{opacity:0.12;}
	.st23{clip-path:url(#SVGID_00000124859134384271594140000003497126235360304561_);}
	.st24{fill:#2A3C68;}
</style>
<g>
	
		<linearGradient id="SVGID_1_" gradientUnits="userSpaceOnUse" x1="121.6166" y1="957.7352" x2="215.7646" y2="950.3948" gradientTransform="matrix(1 0 0 1 -4.91 -917.0307)">
		<stop  offset="0" style="stop-color:#A5BDCB"/>
		<stop  offset="0.26" style="stop-color:#B2C8D6;stop-opacity:0.74"/>
		<stop  offset="1" style="stop-color:#D8E9F4;stop-opacity:0"/>
	</linearGradient>
	<path class="st0" d="M128.8,34.4L128.8,34.4L128.8,34.4l-0.4-0.2h-0.1l-0.4-0.1h-0.1l-0.4-0.1l0,0l-0.4-0.1l0,0l-0.5-0.2l0,0
		l-0.5-0.1l0,0c-3.7-0.8-7.5-0.4-10.9,1.1C106,39,104.2,44.9,103.8,47c-0.1,0.5,0.5,0.9,1.3,0.9c0.8,0.1,1.8,0.1,3,0.1h2.5h0.3h0.5
		h0.3h0.5h0.3h0.4h0.3h0.4h0.3h0.4h0.3l0.5-0.1h0.3l0.5-0.1h0.2l0.8-0.1h0.2l0.6-0.1h0.3l0.5-0.1l0.3-0.1l0.5-0.1l0.3-0.1l0.5-0.1
		l0.3-0.1l0.5-0.1l0.3-0.1l0.7-0.2h0.1l0.8-0.2l0.2-0.1l0.6-0.2l0.3-0.1l0.5-0.2l0.3-0.1l0.5-0.2l0.3-0.1l0.5-0.2l0.3-0.1l0.5-0.2
		l0.3-0.1l0.8-0.4c0.3-0.1,0.6-0.3,0.9-0.4c0.5-0.3,1-0.6,1.5-0.9c2.7-2.1,3-4.9,0.4-7.1"/>
	<path class="st1" d="M124.6,6.9c-2.5,2.4-9,9.6-9.2,20.2c-0.2,5.7,4.3,10.6,10,10.8c0.1,0,0.2,0,0.3,0c5.6,0,10.2-4.6,10.2-10.2
		c0-11-6.6-18.3-9.2-20.8C126.1,6.4,125.2,6.4,124.6,6.9z"/>
	
		<linearGradient id="SVGID_00000012432073482346719030000007470255372659782814_" gradientUnits="userSpaceOnUse" x1="125.4649" y1="951.8676" x2="131.3942" y2="941.108" gradientTransform="matrix(1 0 0 1 -4.91 -917.0307)">
		<stop  offset="0" style="stop-color:#9ABED8"/>
		<stop  offset="1" style="stop-color:#9ABED8;stop-opacity:0.7"/>
	</linearGradient>
	<path style="opacity:0.7;fill:url(#SVGID_00000012432073482346719030000007470255372659782814_);enable-background:new    ;" d="
		M130.9,30c-5.8-0.1-10.4-4.8-10.3-10.5c0-0.1,0-0.2,0-0.3c0.1-3.7,0.9-7.3,2.4-10.6c-4.7,5.1-7.3,11.7-7.6,18.6
		c-0.2,5.7,4.3,10.6,10,10.8c0.1,0,0.2,0,0.3,0c5.3,0,9.7-4,10.2-9.3C134.4,29.5,132.7,30,130.9,30z"/>
</g>
<linearGradient id="SVGID_00000016075599429176661680000010063082979937288892_" gradientUnits="userSpaceOnUse" x1="24.7493" y1="69.4198" x2="162.059" y2="44.691" gradientTransform="matrix(1 0 0 -1 0 178)">
	<stop  offset="0" style="stop-color:#A5BDCB"/>
	<stop  offset="0.26" style="stop-color:#B2C8D6;stop-opacity:0.74"/>
	<stop  offset="1" style="stop-color:#D8E9F4;stop-opacity:0"/>
</linearGradient>
<path style="opacity:0.33;fill:url(#SVGID_00000016075599429176661680000010063082979937288892_);enable-background:new    ;" d="
	M151.4,94.1L92.5,61.2c-1-0.6-2.3-0.6-3.4,0l-70.7,39.2c-1.7,1-2.3,3.1-1.3,4.8c0.3,0.5,0.7,1,1.3,1.3l40.2,23.9l-30.7,17.3
	c-1.7,1-2.3,3.1-1.3,4.8c0.3,0.5,0.7,0.9,1.2,1.3l36,21.6l81.3-53L151.4,94.1z"/>
<g>
	<polygon class="st1" points="49.3,95.7 92.9,120.2 92.1,40.4 54.8,18.3 	"/>
	<path class="st4" d="M92.9,120.2l13.6-11.6l12.6-3.2c0.5-0.1,0.9-0.6,0.8-1.1l-14.1-70l-11,0.7l-2.7,5.4L92.9,120.2L92.9,120.2z"/>
	<polygon class="st5" points="55.2,18.7 92.1,40.4 95.5,35.7 105.7,34.3 72,12.6 68.3,17.5 	"/>
	<g>
		<g>
			<g>
				<g>
					<defs>
						<polygon id="SVGID_00000129900798575982611070000011844628414999005574_" points="61.9,80.9 62,45.2 80.2,55.8 80.1,91.4 
													"/>
					</defs>
					<clipPath id="SVGID_00000156564906432967129410000016944944969634427289_">
						<use xlink:href="#SVGID_00000129900798575982611070000011844628414999005574_"  style="overflow:visible;"/>
					</clipPath>
					<g style="clip-path:url(#SVGID_00000156564906432967129410000016944944969634427289_);">
						<path class="st7" d="M76.5,53.6c-0.3-0.2-0.7-0.4-1-0.5C67.4,49,63.6,53.4,64,60c0.4,7.9,7.1,11.5,7.3,16.3
							c0.1,1.2-0.6,2.4-2.3,1.5c-0.1-0.1-0.2-0.1-0.3-0.2c-2.6-1.5-5.6-5.9-5.6-5.9l-1.3,5.4c0,0,2.9,5.3,8.2,8.4
							c0.3,0.2,0.6,0.3,0.9,0.5c4.9,2.5,8.3-0.1,8-6.9c-0.5-8.6-8.6-14.2-8.8-17.8c-0.1-0.7,0-3.3,3.6-1.4c0.2,0.1,0.4,0.2,0.6,0.3
							c2.2,1.3,4,3.2,4,3.2l1.9-6.9C80.2,56.5,79,55,76.5,53.6"/>
					</g>
				</g>
			</g>
		</g>
	</g>
	<g>
		<g>
			<path class="st8" d="M87.7,3.3c5.4,3.1,9.7,10.6,9.7,16.8v11.6"/>
			<path class="st8" d="M87.7,3.3c-5.4-3.1-9.8-0.6-9.8,5.6V23"/>
		</g>
	</g>
	<g>
		<g>
			<path class="st9" d="M74.7,13c5.4,3.1,9.7,10.6,9.7,16.8v11.6"/>
			<path class="st9" d="M74.7,13c-5.4-3.1-9.8-0.6-9.8,5.6v14.2"/>
		</g>
	</g>
</g>
<path class="st7" d="M157.6,53.2c-0.8,0.4-1.4,1.5-1.4,2.4s0.6,1.2,1.4,0.8c0.8-0.4,1.4-1.5,1.4-2.4S158.4,52.8,157.6,53.2"/>
<polygon class="st1" points="29.6,124.4 24.9,128.6 21.3,119.3 16.7,123.8 12.9,114.8 8.3,119.4 5,109.8 0.4,115.4 33,133.8 "/>
<g>
	<g>
		<g>
			<path class="st10" d="M159.5,33.2L70.3,84.7c-1.1,0.7-1.9,2-1.9,3.3v5.8v0.7l0.2,57.7c0,1.3,3,3,4.1,2.4l86.9-52.5
				c1.2-0.8,2-2.1,2.1-3.6l-0.1-57.7v-0.7l2.9-5.7C164.3,33.2,160.6,32.6,159.5,33.2"/>
		</g>
		<g>
			<g>
				<path class="st11" d="M71.3,95.3l0.2,58.4c0,1.3,0.9,1.8,2.1,1.2l88.9-51.3c1.2-0.8,2-2.1,2.1-3.6l-0.2-57.7L71.3,95.9V95.3"/>
				<path class="st12" d="M146.6,49.2c-0.5,0.3-0.9,0.1-1-0.5c0-0.7,0.4-1.3,0.9-1.7c0.5-0.3,0.9-0.1,0.9,0.5
					C147.5,48.2,147.2,48.8,146.6,49.2 M151.7,46.2c-0.5,0.3-0.9,0.1-0.9-0.5c0-0.7,0.4-1.3,0.9-1.6s0.9-0.1,1,0.5
					C152.6,45.2,152.3,45.8,151.7,46.2 M156.8,43.2c-0.5,0.3-0.9,0.1-0.9-0.5c0-0.7,0.4-1.3,0.9-1.6s0.9-0.1,0.9,0.5
					C157.7,42.3,157.4,42.9,156.8,43.2 M162.4,34.6L73.2,86.1c-1.1,0.7-1.9,2-1.9,3.3v5.9V96l93-53.7v-6.5
					C164.3,34.5,163.5,33.9,162.4,34.6"/>
				<path class="st11" d="M146.6,47c-0.6,0.4-0.9,1-0.9,1.6s0.4,0.9,1,0.5s0.9-1,0.9-1.6C147.5,46.9,147.1,46.6,146.6,47"/>
				<path class="st13" d="M151.7,44.1c-0.6,0.4-0.9,1-0.9,1.6s0.4,0.9,0.9,0.5c0.6-0.4,0.9-1,0.9-1.6
					C152.7,44,152.2,43.7,151.7,44.1"/>
				<path class="st14" d="M156.8,41.1c-0.6,0.4-0.9,1-0.9,1.6s0.4,0.9,0.9,0.5c0.6-0.4,0.9-1,0.9-1.6
					C157.8,41.1,157.3,40.8,156.8,41.1"/>
			</g>
		</g>
	</g>
	<g>
		
			<linearGradient id="SVGID_00000047048533495559963160000009351225361839453362_" gradientUnits="userSpaceOnUse" x1="78.3491" y1="72.4" x2="99.1645" y2="72.4" gradientTransform="matrix(1 0 0 -1 0 178)">
			<stop  offset="0" style="stop-color:#D7E6F2"/>
			<stop  offset="1" style="stop-color:#DEE2F3"/>
		</linearGradient>
		<path style="fill:url(#SVGID_00000047048533495559963160000009351225361839453362_);" d="M78.3,101.5v20.2c0,0.5,0.4,1,0.9,1
			c0.2,0,0.4,0,0.5-0.1l17.8-10.1c0.9-0.5,1.5-1.5,1.5-2.6V89.5c0-0.5-0.4-1-1-1c-0.2,0-0.3,0-0.5,0.1L79.9,98.8
			C78.9,99.3,78.4,100.4,78.3,101.5z"/>
		<path class="st7" d="M83.6,112.9l5.3-7.7l5.3,1.6L83.6,112.9 M95,105.8l-5.3-1.6l5.3-7.7V105.8 M82.7,113v-9.6l5.5,1.7L82.7,113
			 M88.9,103.9l-5.6-1.7l11.2-6.5L88.9,103.9 M94.6,94.7L83,101.4c-0.7,0.5-1.2,1.3-1.2,2.1v10.1c0,0.8,0.6,1.1,1.2,0.7l11.6-6.7
			c0.7-0.5,1.2-1.3,1.2-2.1V95.4C95.8,94.6,95.3,94.3,94.6,94.7"/>
		<path class="st7" d="M92,110.6l-8.7,5c-0.7,0.5-1.2,1.3-1.2,2.1c0,0.8,0.6,1.1,1.2,0.7l8.7-5c0.7-0.5,1.2-1.2,1.2-2.1
			C93.2,110.5,92.7,110.2,92,110.6"/>
	</g>
	<g>
		
			<linearGradient id="SVGID_00000075851121606495326870000006045691618076124602_" gradientUnits="userSpaceOnUse" x1="109.3" y1="90.15" x2="130.1153" y2="90.15" gradientTransform="matrix(1 0 0 -1 0 178)">
			<stop  offset="0" style="stop-color:#D7E6F2"/>
			<stop  offset="1" style="stop-color:#DEE2F3"/>
		</linearGradient>
		<path style="fill:url(#SVGID_00000075851121606495326870000006045691618076124602_);" d="M109.3,83.7v20.2c0,0.5,0.4,1,0.9,1
			c0.2,0,0.4,0,0.5-0.1l17.8-10.1c0.9-0.5,1.5-1.5,1.5-2.6V71.8c0-0.5-0.4-1-1-1c-0.2,0-0.3,0-0.5,0.1L110.8,81
			C109.9,81.6,109.3,82.6,109.3,83.7z"/>
		<path class="st7" d="M114.5,95.1l5.3-7.7L125,89L114.5,95.1 M125.9,88l-5.3-1.6l5.3-7.7V88 M113.6,95.2v-9.6l5.5,1.7L113.6,95.2
			 M119.9,86.1l-5.6-1.7l11.2-6.5L119.9,86.1 M125.5,76.9l-11.6,6.7c-0.7,0.5-1.2,1.3-1.2,2.1v10.1c0,0.8,0.6,1.1,1.2,0.7l11.6-6.7
			c0.7-0.5,1.2-1.3,1.2-2.1V77.6C126.7,76.8,126.2,76.5,125.5,76.9"/>
		<path class="st7" d="M122.9,92.8l-8.7,5c-0.7,0.5-1.2,1.3-1.2,2.1c0,0.8,0.6,1.1,1.2,0.7l8.7-5c0.7-0.5,1.2-1.2,1.2-2.1
			C124.2,92.7,123.6,92.4,122.9,92.8"/>
	</g>
	<g>
		
			<linearGradient id="SVGID_00000132057882514910126360000009909098636644718774_" gradientUnits="userSpaceOnUse" x1="139.1438" y1="107.65" x2="159.9592" y2="107.65" gradientTransform="matrix(1 0 0 -1 0 178)">
			<stop  offset="0" style="stop-color:#D7E6F2"/>
			<stop  offset="1" style="stop-color:#DEE2F3"/>
		</linearGradient>
		<path style="fill:url(#SVGID_00000132057882514910126360000009909098636644718774_);" d="M139.1,66.2v20.2c0,0.5,0.4,1,0.9,1
			c0.2,0,0.4,0,0.5-0.1l17.8-10.1c0.9-0.5,1.5-1.5,1.5-2.6V54.3c0-0.5-0.4-1-1-1c-0.2,0-0.3,0-0.5,0.1l-17.8,10.1
			C139.7,64.1,139.1,65.1,139.1,66.2z"/>
		<path class="st7" d="M144.4,77.6l5.3-7.7l5.3,1.6L144.4,77.6 M155.8,70.5l-5.3-1.6l5.3-7.7V70.5 M143.5,77.7v-9.6l5.5,1.7
			L143.5,77.7 M149.7,68.7l-5.6-1.7l11.2-6.5L149.7,68.7 M155.4,59.4l-11.6,6.7c-0.7,0.5-1.2,1.3-1.2,2.1v10.1
			c0,0.8,0.6,1.1,1.2,0.7l11.6-6.7c0.7-0.5,1.2-1.3,1.2-2.1V60.1C156.6,59.3,156.1,59,155.4,59.4"/>
		<path class="st7" d="M152.8,75.3l-8.7,5c-0.7,0.5-1.2,1.3-1.2,2.1c0,0.8,0.6,1.1,1.2,0.7l8.7-5c0.7-0.5,1.2-1.2,1.2-2.1
			C154,75.2,153.5,74.9,152.8,75.3"/>
	</g>
</g>
<path class="st18" d="M176.7,112.3c-5.9-2.8-28.7-41.1-28.7-41.1l-46.7,27.3l0.7,43.9l37.3,16.4c0.3,0.3,0.7,0.5,1.2,0.5l0,0l0,0
	l0,0c0.7,0,1.2-0.5,1.1-1.1l-4.7-23.1c0.3-0.1,0.5-0.1,0.7-0.2c6.3-3.2,11.6-6,16.7-8.6l25.7,12.5v-0.1v0.1c0.1,0.6,0.8,1.1,1.5,1.1
	s1.2-0.5,1.1-1.1l-5-25C177.8,113.2,177.5,112.6,176.7,112.3z M128.8,132.5l4.9,1.9c0.2,0.1,0.3,0.2,0.5,0.2l4.4,21.8l-29.3-13.9
	L128.8,132.5z M157.5,124.6c5.6-2.9,11.1-5.8,17.8-9.3l4.1,20.1L157.5,124.6z"/>
<g>
	<polygon class="st19" points="110.4,109.6 110.4,139.5 143.3,159.3 143.5,156.8 117.2,139.7 156.8,116.8 184.4,135.3 185.6,132.3 
		155,111.4 129.8,100.6 	"/>
	<path class="st20" d="M142.1,128.5h2.5V158c0,0.7-0.5,1.2-1.2,1.2l0,0c-0.7,0-1.2-0.5-1.2-1.2L142.1,128.5L142.1,128.5L142.1,128.5
		z"/>
	<path class="st20" d="M184.4,105.7h2.5v29.6c0,0.7-0.5,1.2-1.2,1.2l0,0c-0.7,0-1.2-0.5-1.2-1.2L184.4,105.7L184.4,105.7
		L184.4,105.7z"/>
	<polygon class="st21" points="109.6,113.5 143.2,131 142.9,122.8 109.6,101.1 	"/>
	<path class="st13" d="M109.6,101.1c4,4.5,8.6,9.3,13.8,14.2c6.5,6,12.9,11.1,18.8,15.4c0.9,0.7,2.1,0.7,3,0.2
		c15.8-9,25.3-14.9,41-23.8c1-0.5,1-1.9,0.1-2.5c-5-3.3-10.5-7.3-16.2-12c-6.9-5.8-12.6-11.6-17.3-16.8
		C135.9,85.4,126.6,91.3,109.6,101.1L109.6,101.1L109.6,101.1z"/>
</g>
<g class="st22">
	<path class="st11" d="M93.1,124.1l-23.8,12.5l0.1,21l23.8-12.5c1.2-0.7,2.2-2.4,2.2-3.8v-15.9C95.3,123.9,94.3,123.4,93.1,124.1"/>
</g>
<g>
	<g>
		<g>
			<defs>
				<polygon id="SVGID_00000011742694221248463690000002458755793706579869_" points="62.9,176.2 62.8,149.9 101.8,127.4 
					101.8,153.7 				"/>
			</defs>
			<clipPath id="SVGID_00000070824244681510820900000006293893780804646077_">
				<use xlink:href="#SVGID_00000011742694221248463690000002458755793706579869_"  style="overflow:visible;"/>
			</clipPath>
			<g style="clip-path:url(#SVGID_00000070824244681510820900000006293893780804646077_);">
				<path class="st14" d="M96,139c-1.2,0.7-2.2,0.1-2.2-1.3c0-1.4,1-3.1,2.2-3.8s2.2-0.1,2.2,1.3S97.2,138.3,96,139 M99.9,128.5
					l-35.2,20.3c-1.1,0.6-1.9,2.1-1.9,3.3l0.1,21.9c0,1.2,0.9,1.7,1.9,1.1l35.2-20.3c1.1-0.6,1.9-2.1,1.9-3.3v-2.9l-39,22.5v-5.8
					l39-22.5v-13.2C101.8,128.3,100.9,127.9,99.9,128.5"/>
				<polyline class="st24" points="101.8,142.7 62.8,165.2 62.8,171.1 101.8,148.6 101.8,142.7 				"/>
				<path class="st7" d="M96,134c-1.2,0.7-2.2,2.4-2.2,3.8c0,1.4,1,2,2.2,1.3s2.2-2.4,2.2-3.8C98.2,133.8,97.2,133.2,96,134"/>
			</g>
		</g>
	</g>
</g>
</svg>
