<svg id="Layer_1" data-name="Layer 1" xmlns="http://www.w3.org/2000/svg" xmlns:xlink="http://www.w3.org/1999/xlink" viewBox="0 0 539.91 591">
  <defs>
    <clipPath id="clip-path" transform="translate(-4.86 -5.52)">
      <rect x="4.86" y="5.52" width="539.49" height="532" rx="266" ry="266" style="fill: none"/>
    </clipPath>
  </defs>
  <title>Sandeep</title>
  <g style="clip-path: url(#clip-path)">
    <rect width="539.49" height="532" rx="266" ry="266" style="fill: #c1d354"/>
    <path d="M453.23,499a127.82,127.82,0,0,0-79.54-108.88l-89.95-36.37-22.29-.27A169.17,169.17,0,0,0,155.56,389L114,421.34A127.73,127.73,0,0,0,66.06,503.2L52,596.52H458.6Z" transform="translate(-4.86 -5.52)" style="fill: #f9f9f9"/>
    <path d="M282,451.52h0c-30.79,0-64-45.17-64-73.57V252.73c0-15,13.2-27.21,29.5-27.21H332V378C332,406.35,312.83,451.52,282,451.52Z" transform="translate(-4.86 -5.52)" style="fill: #aa5e27"/>
    <path d="M258.1,315.09a14.72,14.72,0,0,0-11.71,21.23c11.2,22.35,30.81,58.48,43.23,64.37,7.13,3.37,15,4.1,22,3.74,11.05-.57,20.2-9.45,21.86-21.24L341,329.6s-58.91-15.08-72.82-15.08A98.54,98.54,0,0,0,258.1,315.09Z" transform="translate(-4.86 -5.52)" style="fill: #773815"/>
    <path d="M314.37,368.58l1.55-1.73c-28.71-1-55.11-18.9-70.61-37.85-10.86-13.27-17-29.58-16.4-47l3-86.2C233.2,159.64,268,131.52,309.71,133l25.77.9c3.83-.23,31.9-5.91,53.77,15.19,20.84,20.11,19.84,49.22,19.43,52.9l-3,86.21C404.18,330.5,363.17,370.29,314.37,368.58Z" transform="translate(-4.86 -5.52)" style="fill: #aa5822"/>
    <rect x="0.41" width="539.49" height="532" rx="266" ry="266" style="fill: none"/>
    <path d="M344.63,294.34,341.94,296a9.71,9.71,0,0,1-10.39,0l-2.69-1.66c-4-2.47-6.34-7.54-5.91-12.82l2.68-33.15c.55-6.72,5.36-11.85,11.11-11.85h0c5.76,0,10.57,5.13,11.12,11.85l2.68,33.15C351,286.8,348.63,291.87,344.63,294.34Z" transform="translate(-4.86 -5.52)" style="fill: #773815"/>
    <path d="M405.13,152.32c-13.41-29.12-44.77-40.15-55.77-44a136.67,136.67,0,0,0-74.75-5c-4.7,1-41.41,5-60.36,54.56-5.2,13.61-5.49,27.7-5.91,55.21a86.3,86.3,0,0,0,1.46,18c.93,4.84,2.51,9.61,5.39,17.52,1.44,3.92,0,0,2.55,3.16,1.66,2.05,5.72-7.77,6.91-4.5l5.09,26.32,5.18-4.52c8.11-7.09,8.93-18.44,9.3-28.95.32-9.31.13-13.06-.33-25.72-1-27.11-1.57-43.84,7.8-50a7.17,7.17,0,0,1,.79-.45c9.75-4.61,21-.46,24.84,1,13.06,5.23,29.88,13.91,52.95,14.05,31.93-1.14,32.7-25.2,54.43-21.3a33.32,33.32,0,0,1,13.18,5.62h0c.21.25.36.46.46.59,7.42,10,1.81,20.12,4.73,39.63,1.2,8.05,4.27,32.77,4.57,30.6.14-1,2.14-3.7,2.73-5.63,4.49-14.65,4.8-24.54,3.15-42.1a129.24,129.24,0,0,0-2.79-16.86A103.18,103.18,0,0,0,405.13,152.32Z" transform="translate(-4.86 -5.52)" style="fill: #211d1b"/>
    <path d="M192,267.52c0,17.52,15.09,32,34.78,34.6a5.55,5.55,0,0,0,6.22-5.51V239.83a6.75,6.75,0,0,0-7.81-6.68C206.32,236.26,192,250.46,192,267.52Z" transform="translate(-4.86 -5.52)" style="fill: #aa5e27"/>
    <path d="M206.59,268.24a18,18,0,0,0,6.81,14.09,7,7,0,0,0,11.17-5.55V259.69a6.94,6.94,0,0,0-11.17-5.54A17.94,17.94,0,0,0,206.59,268.24Z" transform="translate(-4.86 -5.52)" style="fill: #773815"/>
    <path d="M206.59,361.44s-13.42,19.08,3,46.08,37.79,55.5,66.12,57,51.65-22.5,61-45.5,13.76-38.31,9.8-39.91" transform="translate(-4.86 -5.52)" style="fill: none;stroke: #a3a3a3;stroke-linecap: round;stroke-miterlimit: 10;stroke-width: 4px;opacity: 0"/>
    <path d="M406.31,269.83c-.14,3.1-1.22,6.53-1.59,9.67a78.74,78.74,0,0,1-2.4,13.18c-3.29,11.34-10.7,20.68-19.19,28.66-3.25,3.05-7.78,5.4-12.08,4.24-3-.81-5.26-3.14-7.74-5-9-6.71-23.75-9.43-34.79-8.59-10.32.79-19.26,5.2-27.43,11a25,25,0,0,1-29.55-.23A117.18,117.18,0,0,1,260.08,313c-19.5-19-15.4-39.05-20-50.74l-7.08,6c-1.3,8.26-3.32,20.61,2.54,40.78,11.73,40.33,38.74,50.28,66.35,58,13.65,3.8,33.12,5.18,47.86-3.5,5.34-3.15,30.65-10.76,43.89-35.92,5.09-9.67,9.83-17.05,12.63-34.78C407.37,286.06,406,277.84,406.31,269.83Z" transform="translate(-4.86 -5.52)" style="fill: #51321d"/>
    <path d="M331.5,322.91c-7.11.58-16.93,4.68-17.45,10.39-.58,6.31,10.27,14.09,20.43,13.38,8.7-.6,18.34-7.53,18.07-13.5C352.26,326.83,340.77,322.16,331.5,322.91Z" transform="translate(-4.86 -5.52)" style="fill: #aa5822"/>
  </g>
</svg>
