<svg xmlns="http://www.w3.org/2000/svg" xmlns:xlink="http://www.w3.org/1999/xlink" viewBox="0 0 540.92 591.48">
  <defs>
    <style>
      .cls-1 {
        fill: none;
      }

      .cls-2 {
        clip-path: url(#clip-path);
      }

      .cls-3 {
        fill: #6abefd;
      }

      .cls-4 {
        fill: #3a3f45;
      }

      .cls-5 {
        fill: #697077;
      }

      .cls-6 {
        fill: #f7bdad;
      }

      .cls-7 {
        fill: #ea7b78;
      }

      .cls-8 {
        fill: #0f0f0f;
      }

      .cls-9 {
        fill: #f4b7a2;
      }

      .cls-10 {
        fill: #212121;
      }

      .cls-11 {
        clip-path: url(#clip-path-2);
      }

      .cls-12 {
        fill: #ddd;
      }
    </style>
    <clipPath id="clip-path">
      <rect id="SVGID" class="cls-1" width="539.49" height="532" rx="266"/>
    </clipPath>
    <clipPath id="clip-path-2">
      <path id="SVGID-2" data-name="SVGID" class="cls-1" d="M410.91,116.08c-1.76-1.1-3.43.32-5.35-1-2.83-1.87-1.11-6.33-3.33-9-1.49-1.82-4.94-3.36-13.78-1.43-.68-11.19-4.06-15.38-7.13-17.11-4.92-2.76-8.37,1.23-19.24,0-8.24-.93-8.46-3.47-17.83-4.27A52.11,52.11,0,0,0,330,84a58.09,58.09,0,0,0-12.83,4.28c-3.08,1.31-5.51,2.44-7.5,3.42.65-2.47.66-4.52-.35-5.56s-2.68-.2-10,.71c-8.8,1.1-11.91,3.31-17.82,3.57-10,.43-12.1-2-19.25-1.43-12.39.93-25.42,12.33-26.49,19.72-3.53.28-5.76.58-9.15,2.38-7.39,3.92-15,12.17-13.54,19.25.87,4.11,4.58,6.63,7.84,8.55A91.7,91.7,0,0,0,259.42,151c13.6,1.26,11.93-.77,25.67.71,12.61,1.37,16.84,3.38,27.8,3.21,5.87-.09,10.28-.85,19.12-2.37,23.48-4,23.25-7,34-7.25,17-.4,20.15,6.93,30.29,2.85,12.39-5,15.88-19.26,16-20S414.53,118.35,410.91,116.08Z"/>
    </clipPath>
  </defs>
  <g id="Layer_2" data-name="Layer 2">
    <g id="Layer_1-2" data-name="Layer 1">
      <g class="cls-2">
        <g>
          <rect class="cls-3" width="539.49" height="532" rx="266"/>
          <g>
            <path class="cls-4" d="M449.79,493.93a127.81,127.81,0,0,0-79.53-108.88l-75.78-30.64A81.15,81.15,0,0,0,265,348.49l-7-.08A169.17,169.17,0,0,0,152.12,384l-41.55,32.3a127.81,127.81,0,0,0-47.95,81.86L48.56,591.48H455.17Z"/>
            <path class="cls-5" d="M193.92,436.87l75.13-22.81,70.83,29.59a11.41,11.41,0,0,0,15.69-8.95L359,410.22a58.24,58.24,0,0,0-26.92-57.5L322.83,347A128.59,128.59,0,0,0,209.76,335.8l-.55.21a49,49,0,0,0-31.74,47.89l1.74,42.52A11.41,11.41,0,0,0,193.92,436.87Z"/>
          </g>
          <g>
            <path class="cls-6" d="M244.1,220.48c-16.29,0-29.5,12.18-29.5,27.21V372.91c6.36,29.25,33,68.13,61.26,66.1,25.38-1.83,47.22-40,52.74-66.1V220.48Z"/>
            <path class="cls-7" d="M252.53,307.91a14.72,14.72,0,0,0-11.71,21.23c11.2,22.35,30.81,58.49,43.23,64.37,7.13,3.38,15,4.1,22,3.74,11.06-.57,20.21-9.45,21.86-21.24l7.54-53.59s-58.91-15.08-72.82-15.08A98.35,98.35,0,0,0,252.53,307.91Z"/>
            <path class="cls-6" d="M310.93,363.54l1.55-1.73c-28.7-1-55.11-18.9-70.61-37.85-10.85-13.27-17-29.58-16.39-47l3-86.2c1.26-36.15,36.08-64.27,77.77-62.81l25.78.9c3.82-.23,31.9-5.91,53.77,15.19,20.83,20.11,19.84,49.22,19.43,52.9l-3,86.21C400.75,325.46,359.74,365.25,310.93,363.54Z"/>
            <path class="cls-7" d="M341.19,289.3,338.51,291a9.72,9.72,0,0,1-10.4,0l-2.68-1.66c-4-2.47-6.34-7.54-5.92-12.82l2.69-33.15c.54-6.72,5.35-11.85,11.11-11.85h0c5.76,0,10.57,5.13,11.11,11.85l2.69,33.15C347.53,281.76,345.2,286.83,341.19,289.3Z"/>
            <path class="cls-8" d="M402.88,264.79c-.14,3.1-1.23,6.53-1.59,9.67a107.86,107.86,0,0,1-2.4,13.18C395.82,302.16,387,313.05,383,317.9c-5.36,6.59-8.87,10.8-12.83,10.22-4.51-.67-4.86-6.82-10.32-12.56-7.91-8.31-19.87-8.77-27.46-9.07-5.22-.2-23.74-.92-34.7,10.93-5.69,6.16-5.08,11.11-10.22,12.83-7.2,2.42-15.67-4.9-22.09-10.45a79.68,79.68,0,0,1-21-28.9,84.43,84.43,0,0,1-6.62-29.32l-8.24,1.62A95.81,95.81,0,0,0,228.2,277a82.16,82.16,0,0,0,4,27,75.51,75.51,0,0,0,14.72,27.46c7.4,8.79,45,51.59,84.36,42.77,17.18-3.84,28.53-16.28,42.29-31.36a151.45,151.45,0,0,0,24.68-36.67l.05-.15a90.94,90.94,0,0,0,4.63-18.3C403.94,281,402.51,272.8,402.88,264.79Z"/>
            <path class="cls-9" d="M328.06,317.92c-.73.06-17.74,1.51-20.59,11.38-2.75,9.52,8.66,23.37,21.62,24,14.14.69,26.92-14.51,24.24-24.23C351,320.67,337.39,317.24,328.06,317.92Z"/>
            <path class="cls-10" d="M308.17,91.45h-.23c-42-1.4-82.87,15.91-96.64,46-1.46,3.19-2.52,7.59-4.63,16.39-11.89,49.54-.34,77.58,5.7,82l.81.57s9,6.21,13,6.9c.06,0,0-.09,0-.09.36,0,1.79,11.49,3.34,24.9a4.32,4.32,0,0,0,1.93,2.87c3,1.91,6.11.28,6.64-3.24,1.52-10.11.07-23.47.31-30.77.08-2.38.11-4.58.11-6.72,0-7.87,3.89-14.36,11.28-25.42,8.6-12.88,9-10.87,11.28-15.57,8.16-17-3.85-29.09,2.37-37.55,7.43-10.1,25.68,5.68,59.41,0,19.7-3.31,35-12.31,54.18-7.6a32.84,32.84,0,0,1,12.35,5.7c3.94,3.21,6.58,7.27,9,13.31,8.47,20.83,5.93,43.43,5.95,57.58,0,.27,0,1.24,0,2.55s-.07,2.93-.15,4.84a87.22,87.22,0,0,1-.8,9.88c-.12,0,.44-1.28.45-1.35,16-66.61,1-94.89,1-94.89S379.46,94,308.17,91.45Z"/>
            <path class="cls-6" d="M188.6,262.48c0,17.52,15.09,32,34.79,34.6a5.54,5.54,0,0,0,6.21-5.51V234.79a6.75,6.75,0,0,0-7.8-6.68C202.89,231.22,188.6,245.42,188.6,262.48Z"/>
            <path class="cls-7" d="M203.16,263.2A18,18,0,0,0,210,277.29a6.94,6.94,0,0,0,11.16-5.55V254.65A6.94,6.94,0,0,0,210,249.11,17.94,17.94,0,0,0,203.16,263.2Z"/>
          </g>
          <ellipse class="cls-8" cx="331.11" cy="340.83" rx="8.2" ry="5.94"/>
          <rect id="SVGID-3" data-name="SVGID" class="cls-1" x="1.43" y="0.48" width="539.49" height="532" rx="266"/>
          <path class="cls-8" d="M410.91,116.08c-1.76-1.1-3.43.32-5.35-1-2.83-1.87-1.11-6.33-3.33-9-1.49-1.82-4.94-3.36-13.78-1.43-.68-11.19-4.06-15.38-7.13-17.11-4.92-2.76-8.37,1.23-19.24,0-8.24-.93-8.46-3.47-17.83-4.27A52.11,52.11,0,0,0,330,84a58.09,58.09,0,0,0-12.83,4.28c-3.08,1.31-5.51,2.44-7.5,3.42.65-2.47.66-4.52-.35-5.56s-2.68-.2-10,.71c-8.8,1.1-11.91,3.31-17.82,3.57-10,.43-12.1-2-19.25-1.43-12.39.93-25.42,12.33-26.49,19.72-3.53.28-5.76.58-9.15,2.38-7.39,3.92-15,12.17-13.54,19.25.87,4.11,4.58,6.63,7.84,8.55A91.7,91.7,0,0,0,259.42,151c13.6,1.26,11.93-.77,25.67.71,12.61,1.37,16.84,3.38,27.8,3.21,5.87-.09,10.28-.85,19.12-2.37,23.48-4,23.25-7,34-7.25,17-.4,20.15,6.93,30.29,2.85,12.39-5,15.88-19.26,16-20S414.53,118.35,410.91,116.08Z"/>
          <g class="cls-11">
            <g>
              <path class="cls-10" d="M392,93.27c-.47-.17-2.57,11.76-12.12,21.38-13.14,13.25-28.77,8.69-34.93,20-1.81,3.32-3.18,8.92.23,18.54l15.69-1.43c-1-3.35-2-8.55,0-13.78,3.35-8.92,12.15-9.26,20.43-18.06C391.84,108.71,392.53,93.45,392,93.27Z"/>
              <path class="cls-10" d="M280.57,111.8c-2.31,1.87-10.28,9.1-10.45,19.49-.16,9.31,5.92,17.92,13.78,21.86,1.34.67,10.17,5.09,13.3,1.9,4.14-4.21-13.25-21.55-7.6-36.12,3.11-8,10.59-8,17.82-20.91a51.83,51.83,0,0,0,5.17-13.26A69.22,69.22,0,0,1,309,91.39a79.27,79.27,0,0,1-4.93,7.1C298.18,105.88,289,105,280.57,111.8Z"/>
              <path class="cls-10" d="M311,71.88c-.51-.11-1.32.67-1.43,1.43-.2,1.36,1.9,2.3,3,3.47C312.3,73.91,311.67,72,311,71.88Z"/>
              <path class="cls-10" d="M312.89,77.11l-.29-.33a41.54,41.54,0,0,1,0,8C313.85,81.45,314.05,78.63,312.89,77.11Z"/>
            </g>
          </g>
          <path class="cls-4" d="M224.49,428.67l16-7.13H264a4,4,0,0,1,4,4V488.2Z"/>
          <path class="cls-10" d="M266.55,440.44V538.1a3.56,3.56,0,0,0,3.57,3.56h0a3.56,3.56,0,0,0,3.56-3.56V439.72S266.55,439.72,266.55,440.44Z"/>
          <circle class="cls-12" cx="252.29" cy="440.91" r="5.94"/>
          <circle class="cls-12" cx="286.04" cy="476.08" r="5.94"/>
        </g>
      </g>
    </g>
  </g>
</svg>
