<?xml version="1.0" encoding="utf-8"?>
<!-- Generator: Adobe Illustrator 28.0.0, SVG Export Plug-In . SVG Version: 6.00 Build 0)  -->
<svg version="1.1" id="Layer_1" xmlns="http://www.w3.org/2000/svg" xmlns:xlink="http://www.w3.org/1999/xlink" x="0px" y="0px"
	 viewBox="0 0 187 199.2" style="enable-background:new 0 0 187 199.2;" xml:space="preserve">
<style type="text/css">
	.st0{opacity:0.33;fill:url(#SVGID_1_);enable-background:new    ;}
	.st1{fill:#9DCC4A;}
	.st2{opacity:0.7;fill:url(#SVGID_00000003091710104137297330000012210501901609680786_);enable-background:new    ;}
	.st3{opacity:0.33;fill:url(#SVGID_00000139985307221811774830000015151806411933209505_);enable-background:new    ;}
	.st4{fill:#BFD2E2;}
	.st5{fill:#D7E6F2;}
	.st6{fill:#F8FCFF;}
	.st7{opacity:0.11;fill:#2A3C67;}
	.st8{fill:#2A3C68;}
	.st9{fill:#FFCE6C;}
	.st10{fill:#FFFFFF;}
	.st11{fill:#252F3E;}
	.st12{enable-background:new    ;}
	.st13{fill:#FF9900;}
	.st14{fill:#8FA1C2;}
</style>
<g>
	<g>
		
			<linearGradient id="SVGID_1_" gradientUnits="userSpaceOnUse" x1="19.8955" y1="84.3498" x2="129.5018" y2="92.8956" gradientTransform="matrix(1 0 0 -1 -4.91 186.24)">
			<stop  offset="0" style="stop-color:#A5BDCB"/>
			<stop  offset="0.26" style="stop-color:#B2C8D6;stop-opacity:0.74"/>
			<stop  offset="1" style="stop-color:#D8E9F4;stop-opacity:0"/>
		</linearGradient>
		<path class="st0" d="M29,94.6L29,94.6h-0.1l-0.4-0.2h-0.1L28,94.3h-0.1l-0.4-0.1l0,0L27,94l0,0l-0.6-0.2l0,0l-0.5-0.1l0,0
			c-4.3-0.9-8.7-0.5-12.7,1.2C2.5,99.9,0.4,106.7,0,109.2c-0.1,0.6,0.6,1,1.6,1.1c1,0.1,2.1,0.1,3.5,0.1h3h0.3H9h0.3h0.6h0.3h0.5H11
			h0.5h0.4h0.5h0.3l0.5-0.1h0.3l0.6-0.1h0.2l0.9-0.1h0.2l0.7-0.1h0.3l0.6-0.1l0.4-0.1l0.6-0.1l0.4-0.1l0.6-0.1l0.4-0.1l0.6-0.2
			l0.3-0.1L21,109h0.1l0.9-0.3l0.3-0.1l0.7-0.2l0.3-0.1l0.6-0.2l0.4-0.1l0.6-0.2l0.4-0.1l0.6-0.2l0.4-0.1l0.6-0.3l0.3-0.1l0.9-0.4
			c0.4-0.2,0.7-0.3,1-0.5c0.6-0.3,1.2-0.7,1.7-1.1c3.1-2.5,3.5-5.8,0.5-8.2"/>
		<path class="st1" d="M24.2,62.7c-3,2.8-10.5,11.1-10.7,23.6c-0.3,6.7,5,12.3,11.6,12.6c0.1,0,0.2,0,0.4,0
			c6.5,0,11.8-5.4,11.8-11.9c0-12.8-7.7-21.4-10.7-24.3C25.9,62,24.9,62,24.2,62.7z"/>
		
			<linearGradient id="SVGID_00000098938628457384339400000009022235263245446070_" gradientUnits="userSpaceOnUse" x1="24.3958" y1="91.0533" x2="31.2986" y2="103.5798" gradientTransform="matrix(1 0 0 -1 -4.91 186.24)">
			<stop  offset="0" style="stop-color:#9ABED8"/>
			<stop  offset="1" style="stop-color:#9ABED8;stop-opacity:0.7"/>
		</linearGradient>
		<path style="opacity:0.7;fill:url(#SVGID_00000098938628457384339400000009022235263245446070_);enable-background:new    ;" d="
			M31.6,89.5c-6.7-0.1-12.1-5.6-12-12.3c0-0.1,0-0.2,0-0.3c0.1-4.3,1-8.5,2.8-12.3c-5.4,5.9-8.5,13.6-8.8,21.6
			c-0.3,6.7,5,12.3,11.6,12.6c0.1,0,0.2,0,0.3,0c6.1,0,11.3-4.7,11.8-10.8C35.6,89,33.6,89.5,31.6,89.5z"/>
	</g>
	
		<linearGradient id="SVGID_00000145055405164217663710000010205182514870420633_" gradientUnits="userSpaceOnUse" x1="23.4773" y1="112.4109" x2="174.2409" y2="143.4727">
		<stop  offset="0" style="stop-color:#A5BDCB"/>
		<stop  offset="0.26" style="stop-color:#B2C8D6;stop-opacity:0.74"/>
		<stop  offset="1" style="stop-color:#D8E9F4;stop-opacity:0"/>
	</linearGradient>
	<path style="opacity:0.33;fill:url(#SVGID_00000145055405164217663710000010205182514870420633_);enable-background:new    ;" d="
		M172.3,117.3l-68.1-39.1c-1.7-1-3.9-1-5.6,0l-84.5,51.4c-1.9,1.1-2.5,3.5-1.4,5.4c0.3,0.6,0.8,1.1,1.4,1.4l67.4,38.7
		c0.7,0.4,1.5,0.6,2.3,0.7h16.9l5.7-10.2h-3.7l69.6-42.3c1.7-1,2.2-3.1,1.2-4.8C173.3,118.1,172.9,117.6,172.3,117.3z"/>
	<polygon class="st1" points="104.5,199.2 153.7,171.4 146.8,162.9 141.9,177.5 134.9,170.4 129.1,184.1 122.2,177.4 116.8,191.3 
		109.5,185.1 	"/>
	<path class="st4" d="M172.2,80.9c1.3,0.6,3.1,0.6,4.4,0c1.3-0.6,1.3-1.9,0-2.5c-1.3-0.6-3.1-0.6-4.4,0
		C170.9,79.2,170.9,80.3,172.2,80.9"/>
	<path class="st5" d="M100.7,156.7v19.2l80.6-47c1.9-1,2.9-3.1,2.9-5.2v-15.5L100.7,156.7L100.7,156.7L100.7,156.7z"/>
	<path class="st4" d="M50,127.1v18c0,1.3,0.6,2.5,1.9,3.1l49.1,27.8v-19.2L50,127.1L50,127.1L50,127.1z"/>
	<path class="st6" d="M50,127.1l50.9,29.6l83.5-48.2l-46.4-27.1c-1.9-1.3-4.4-1.3-6.3,0L50,127.1L50,127.1L50,127.1z"/>
	<path class="st7" d="M182.5,107.3l-44.4-26.2c-1.9-1.3-4.4-1.3-6.3,0l-79,44.3L97,150.6c2.3,1.3,5.2,1.3,7.5,0L182.5,107.3z"/>
	<path class="st4" d="M50,98.7v18c0,1.3,0.6,2.5,1.9,3.1l49.1,27.8v-19.2L50,98.7L50,98.7L50,98.7z"/>
	<path class="st5" d="M100.7,128.3v19.2l80.6-47.2c1.9-1,2.9-3.1,2.9-5.2V79.7L100.7,128.3L100.7,128.3L100.7,128.3z"/>
	<path class="st6" d="M50,98.7l50.9,29.6l83.5-48.2l-46.4-27.4c-1.9-1.3-4.4-1.3-6.3,0L50,98.7L50,98.7L50,98.7z"/>
	<path class="st7" d="M182.5,78.9l-44.4-26.2c-1.9-1.3-4.4-1.3-6.3,0L52.9,97L97,122.1c2.3,1.3,5.2,1.3,7.5,0L182.5,78.9z"/>
	<path class="st4" d="M50,69.2v18c0,1.3,0.6,2.5,1.9,3.1l49.1,27.8V98.9L50,69.2L50,69.2L50,69.2z"/>
	<path class="st5" d="M100.5,98.9v19.2l80.6-47.2c1.9-1,2.9-3.1,2.9-5.2V50.2L100.5,98.9L100.5,98.9L100.5,98.9z"/>
	<path class="st6" d="M50,69.2L101,98.9l83.5-48.2l-46.4-27.4c-1.9-1.3-4.4-1.3-6.3,0L50,69.2L50,69.2L50,69.2z"/>
	<path class="st8" d="M79.7,68.8L98.4,79c2.3,1.3,5,1.3,7.1,0l46.4-25.5c2.1-1,2.1-4.2,0-5.2l-18.8-11.3c-2.3-1.3-5-1.3-7.3,0
		L79.4,63.4C77.4,64.6,77.4,67.5,79.7,68.8L79.7,68.8L79.7,68.8z"/>
	<path class="st7" d="M182.5,49.5l-44.4-26.2c-1.9-1.3-4.4-1.3-6.3,0l-79,44.3L97,92.7c2.3,1.3,5.2,1.3,7.5,0L182.5,49.5z"/>
	<path class="st9" d="M47.5,57.5L97,85.7c2.3,1.3,5.2,1.3,7.5,0l80.2-44.5c1-0.6,1.6-1.7,1.6-2.7c0-1,0-3.8,0-5.6l-54-26.8
		c-0.8-0.4-2.1-0.4-2.9,0L46,49.1c0,2,0,4.9,0,5.8C46,56,46.5,57,47.5,57.5L47.5,57.5L47.5,57.5z"/>
	<path class="st9" d="M47.5,51.7l52,29.6c0.8,0.4,2.1,0.4,2.9,0l82.3-45.7c2.1-1.3,2.1-4.2,0-5.2L132.3,0.3c-0.8-0.4-2.1-0.4-2.9,0
		L47.5,46.5C45.4,47.7,45.6,50.6,47.5,51.7L47.5,51.7L47.5,51.7z"/>
	<path class="st10" d="M50.1,52.3L100.4,81c0.8,0.4,2,0.4,2.8,0l79.6-44.2c2-1.2,2-4,0-5.1L132.1,2.6c-0.8-0.4-2-0.4-2.8,0
		L50.1,47.2C48.1,48.4,48.3,51.3,50.1,52.3L50.1,52.3L50.1,52.3z"/>
	<g>
		<g>
			<path class="st11" d="M113.1,23.2c0.3-0.2,0.6-0.2,1,0c0.1,0.1,0.2,0.1,0.3,0.2c0.1,0.1,0.2,0.2,0.3,0.4l10.1,11.4
				c0.3,0.3,0.4,0.5,0.3,0.7c0,0.2-0.2,0.3-0.5,0.5l-1.7,1c-0.4,0.2-0.7,0.3-1,0.3s-0.7-0.1-1.1-0.2l-15.4-5.6l9.4,9
				c0.3,0.3,0.4,0.5,0.4,0.7c0,0.2-0.2,0.4-0.6,0.6l-1.7,1c-0.4,0.2-0.6,0.3-0.9,0.3c-0.3,0-0.7-0.1-1.2-0.2L91.5,37
				c-0.5-0.2-0.8-0.3-0.9-0.4c-0.3-0.2-0.3-0.4,0-0.5l1.9-1.1c0.4-0.2,0.7-0.3,1-0.3c0.3,0,0.7,0.1,1.1,0.2l16,5.6l-9.7-9.2
				c-0.3-0.3-0.4-0.5-0.4-0.7c0-0.2,0.2-0.4,0.6-0.6l1.6-0.9c0.4-0.2,0.7-0.3,1-0.3c0.3,0,0.7,0.1,1.1,0.2l15.9,5.8l-9.5-9.5
				c-0.3-0.3-0.4-0.5-0.4-0.7c0-0.2,0.2-0.3,0.6-0.5L113.1,23.2z"/>
		</g>
		<g class="st12">
			<g>
				<path class="st11" d="M136.4,20.9c1.4,0.1,2.6,0.5,3.6,1.1c0.8,0.5,1.4,1,1.7,1.6c0.3,0.6,0.4,1.2,0.3,1.8
					c-0.1,0.6-0.5,1.2-1.1,1.9c-0.6,0.7-1.4,1.3-2.4,1.8c-1,0.6-2.1,1.1-3.3,1.5c-1.2,0.4-2.2,0.7-3,0.8c-0.5,0.1-0.9,0.1-1.1,0
					c-0.3-0.1-0.5-0.1-0.7-0.2l-1-0.6c-0.4-0.2-0.4-0.4-0.1-0.6c0.1-0.1,0.3-0.1,0.4-0.2c0.2,0,0.4-0.1,0.7-0.2
					c0.9-0.2,1.9-0.5,2.8-0.8c0.9-0.4,1.8-0.7,2.5-1.2c1.2-0.7,2-1.4,2.2-2c0.2-0.6,0-1.2-0.8-1.6c-0.5-0.3-1.2-0.5-1.9-0.5
					c-0.7,0-1.7,0.2-3,0.5l-3.7,1.1c-1.9,0.5-3.6,0.8-5.1,0.6c-1.5-0.1-2.8-0.5-3.8-1.1c-0.8-0.5-1.3-1-1.6-1.6
					c-0.3-0.6-0.3-1.1-0.2-1.7c0.1-0.6,0.5-1.2,1-1.7c0.5-0.6,1.3-1.1,2.1-1.6c0.4-0.2,0.9-0.5,1.4-0.7c0.5-0.2,1-0.4,1.5-0.6
					c0.5-0.2,1-0.3,1.4-0.5c0.5-0.1,0.9-0.2,1.2-0.3c0.4-0.1,0.8-0.1,1.1-0.1c0.3,0,0.5,0.1,0.8,0.3l0.9,0.5
					c0.4,0.2,0.5,0.5,0.2,0.6c-0.2,0.1-0.5,0.2-1,0.3c-1.6,0.3-3.1,0.9-4.5,1.7c-1.1,0.6-1.8,1.2-2.1,1.8c-0.2,0.6,0,1.1,0.8,1.5
					c0.5,0.3,1.2,0.5,1.9,0.5c0.8,0,1.8-0.2,3.2-0.6l3.6-1.1C133.4,21,135,20.8,136.4,20.9z"/>
			</g>
			<g>
				<path class="st13" d="M147.2,28.2c2-1.1,3.9-1.8,4.7-1.7c1.6,0.1,6.6,4.1,6,7.7c0,0.2-0.1,0.4-0.3,0.4c-0.3,0.2-0.6,0.1-0.9-0.2
					c-1.1-1.6-3.7-5.1-5.5-5.2c-0.8-0.1-2.1,0.5-3.4,1.2c-1.6,0.9-3.3,2.1-4.3,2.9c0,0-0.1,0-0.1,0.1c-0.5,0.3-1.1,0-0.9-0.5
					C143,31,145.1,29.4,147.2,28.2z"/>
			</g>
			<g>
				<path class="st13" d="M94.4,59.5c0.1-0.1,0.3-0.1,0.5-0.2c13-1.9,26-6,36.5-12c7.1-4,13.4-9.3,17.6-15.2
					c0.1-0.1,0.2-0.3,0.4-0.4c0.8-0.5,2.2-0.2,2,0.7c-1.7,6.4-8.6,13.1-16.6,17.7c-11.2,6.4-25.4,9.7-39.8,10.1
					C94.2,60.3,93.9,59.8,94.4,59.5z"/>
			</g>
		</g>
		<g>
			<path class="st11" d="M102.2,45.4c0.6,0.2,1.2,0.3,2,0.5c0.3,0,0.4,0.1,0.6,0.2c0.2,0.1,0.3,0.3,0.2,0.5l-0.4,1.2
				c-0.1,0.2-0.2,0.3-0.3,0.4c-0.2,0.1-0.5,0.2-0.9,0.2c-0.6,0-1.1-0.1-1.6-0.1c-0.5-0.1-1.1-0.2-1.7-0.3c0.2,1.9-0.8,3.5-3.1,4.8
				c-1.6,0.9-3.4,1.4-5.3,1.4c-1.9,0-3.6-0.4-5.1-1.4c-1.6-1-2.4-2.1-2.2-3.3c0.2-1.3,1.3-2.5,3.3-3.6c0.7-0.4,1.4-0.7,2.2-1.1
				c0.8-0.4,1.7-0.7,2.7-1l-1.4-0.8c-1.5-0.9-2.8-1.3-4-1.3c-1.2,0-2.6,0.4-4.1,1.3c-0.7,0.4-1.3,0.8-1.9,1.3c-0.5,0.5-1,1-1.4,1.6
				c-0.2,0.3-0.3,0.4-0.4,0.5c-0.1,0.1-0.2,0.2-0.3,0.2c-0.3,0.2-0.6,0.1-1-0.1l-0.9-0.6c-0.3-0.2-0.5-0.3-0.5-0.5
				c0-0.1,0-0.3,0.1-0.5c0.3-0.6,0.9-1.2,1.6-1.9c0.7-0.7,1.6-1.3,2.7-1.9c2.3-1.3,4.5-2,6.7-2c2.1,0,4.2,0.6,6.3,1.9l6.2,3.7
				C101,44.9,101.6,45.2,102.2,45.4z M95.5,45.4l-0.8-0.5c-0.7,0.2-1.4,0.5-2.1,0.8c-0.7,0.3-1.3,0.6-1.9,1c-1.3,0.7-2,1.4-2.1,2.1
				c-0.1,0.7,0.3,1.3,1.3,1.8c0.9,0.5,1.8,0.8,2.8,0.8c0.9,0,1.9-0.2,2.8-0.7c0.6-0.4,1.2-0.8,1.7-1.3c0.5-0.5,0.7-1.1,0.6-1.8
				c-0.1-0.4-0.2-0.8-0.6-1.1C96.6,46.1,96.2,45.8,95.5,45.4"/>
		</g>
	</g>
	<g>
		<g>
			<path class="st14" d="M113.1,97.8c0.7-0.4,1.2-0.1,1.2,0.7s-0.5,1.7-1.2,2.1c-0.7,0.4-1.2,0.1-1.2-0.7
				C111.9,99.1,112.5,98.2,113.1,97.8z"/>
		</g>
		<g>
			<path class="st14" d="M113.2,103.7c0.7-0.4,1.2-0.1,1.2,0.7c0,0.8-0.5,1.7-1.2,2.1c-0.7,0.4-1.2,0.1-1.2-0.7
				C111.9,105,112.5,104.1,113.2,103.7z"/>
		</g>
		<g>
			<path class="st14" d="M118.3,94.8c0.7-0.4,1.2-0.1,1.2,0.7c0,0.8-0.5,1.7-1.2,2.1c-0.7,0.4-1.2,0.1-1.2-0.7
				C117.1,96.1,117.6,95.2,118.3,94.8z"/>
		</g>
		<g>
			
				<ellipse transform="matrix(0.5024 -0.8646 0.8646 0.5024 -29.4377 153.1014)" class="st14" cx="118.3" cy="102.1" rx="1.7" ry="1"/>
		</g>
		<g>
			<path class="st14" d="M123.4,91.9c0.7-0.4,1.2-0.1,1.2,0.7c0,0.8-0.5,1.7-1.2,2.1c-0.7,0.4-1.2,0.1-1.2-0.7
				C122.2,93.2,122.7,92.2,123.4,91.9z"/>
		</g>
		<g>
			<path class="st14" d="M123.4,97.8c0.7-0.4,1.2-0.1,1.2,0.7c0,0.8-0.5,1.7-1.2,2.1c-0.7,0.4-1.2,0.1-1.2-0.7
				C122.2,99.1,122.8,98.2,123.4,97.8z"/>
		</g>
		<g>
			<path class="st14" d="M128.6,88.9c0.7-0.4,1.2-0.1,1.2,0.7s-0.5,1.7-1.2,2.1c-0.7,0.4-1.2,0.1-1.2-0.7
				C127.3,90.2,127.9,89.3,128.6,88.9z"/>
		</g>
		<g>
			<path class="st14" d="M128.6,94.8c0.7-0.4,1.2-0.1,1.2,0.7s-0.5,1.7-1.2,2.1c-0.7,0.4-1.2,0.1-1.2-0.7
				C127.4,96.1,127.9,95.2,128.6,94.8z"/>
		</g>
		<g>
			<path class="st14" d="M133.7,85.9c0.7-0.4,1.2-0.1,1.2,0.7s-0.5,1.7-1.2,2.1s-1.2,0.1-1.2-0.7C132.5,87.2,133,86.3,133.7,85.9z"
				/>
		</g>
		<g>
			
				<ellipse transform="matrix(0.5024 -0.8646 0.8646 0.5024 -14.0679 162.004)" class="st14" cx="133.7" cy="93.2" rx="1.7" ry="1"/>
		</g>
		<g>
			<path class="st14" d="M138.8,83c0.7-0.4,1.2-0.1,1.2,0.7c0,0.8-0.5,1.7-1.2,2.1c-0.7,0.4-1.2,0.1-1.2-0.7S138.2,83.3,138.8,83z"
				/>
		</g>
		<g>
			<path class="st14" d="M138.9,88.9c0.7-0.4,1.2-0.1,1.2,0.7c0,0.8-0.5,1.7-1.2,2.1c-0.7,0.4-1.2,0.1-1.2-0.7
				S138.2,89.2,138.9,88.9z"/>
		</g>
		<g>
			<path class="st14" d="M144,80c0.7-0.4,1.2-0.1,1.2,0.7c0,0.8-0.5,1.7-1.2,2.1c-0.7,0.4-1.2,0.1-1.2-0.7S143.3,80.4,144,80z"/>
		</g>
		<g>
			<path class="st14" d="M144,85.9c0.7-0.4,1.2-0.1,1.2,0.7c0,0.8-0.5,1.7-1.2,2.1c-0.7,0.4-1.2,0.1-1.2-0.7
				C142.8,87.2,143.3,86.3,144,85.9z"/>
		</g>
		<g>
			<path class="st14" d="M170.7,64.6c1.2-0.7,2.2-0.1,2.2,1.2l0,3.7c0,1.4-1,3-2.2,3.7l-19.8,11.4c-1.2,0.7-2.2,0.1-2.2-1.2l0-3.7
				c0-1.4,1-3,2.2-3.7L170.7,64.6z"/>
		</g>
	</g>
	<g>
		<g>
			<path class="st14" d="M113.1,127.2c0.7-0.4,1.2-0.1,1.2,0.7c0,0.8-0.5,1.7-1.2,2.1c-0.7,0.4-1.2,0.1-1.2-0.7
				C111.9,128.5,112.5,127.5,113.1,127.2z"/>
		</g>
		<g>
			<path class="st14" d="M113.2,133.1c0.7-0.4,1.2-0.1,1.2,0.7c0,0.8-0.5,1.7-1.2,2.1c-0.7,0.4-1.2,0.1-1.2-0.7
				S112.5,133.5,113.2,133.1z"/>
		</g>
		<g>
			<path class="st14" d="M118.3,124.2c0.7-0.4,1.2-0.1,1.2,0.7c0,0.8-0.5,1.7-1.2,2.1c-0.7,0.4-1.2,0.1-1.2-0.7
				C117.1,125.5,117.6,124.6,118.3,124.2z"/>
		</g>
		<g>
			
				<ellipse transform="matrix(0.5024 -0.8646 0.8646 0.5024 -54.8274 167.7127)" class="st14" cx="118.3" cy="131.5" rx="1.7" ry="1"/>
		</g>
		<g>
			<path class="st14" d="M123.4,121.2c0.7-0.4,1.2-0.1,1.2,0.7c0,0.8-0.5,1.7-1.2,2.1c-0.7,0.4-1.2,0.1-1.2-0.7
				S122.7,121.6,123.4,121.2z"/>
		</g>
		<g>
			<path class="st14" d="M123.4,127.1c0.7-0.4,1.2-0.1,1.2,0.7c0,0.8-0.5,1.7-1.2,2.1c-0.7,0.4-1.2,0.1-1.2-0.7
				C122.2,128.5,122.8,127.5,123.4,127.1z"/>
		</g>
		<g>
			<path class="st14" d="M128.6,118.3c0.7-0.4,1.2-0.1,1.2,0.7c0,0.8-0.5,1.7-1.2,2.1c-0.7,0.4-1.2,0.1-1.2-0.7
				C127.3,119.6,127.9,118.6,128.6,118.3z"/>
		</g>
		<g>
			<path class="st14" d="M128.6,124.2c0.7-0.4,1.2-0.1,1.2,0.7c0,0.8-0.5,1.7-1.2,2.1c-0.7,0.4-1.2,0.1-1.2-0.7
				S127.9,124.6,128.6,124.2z"/>
		</g>
		<g>
			<path class="st14" d="M133.7,115.3c0.7-0.4,1.2-0.1,1.2,0.7s-0.5,1.7-1.2,2.1s-1.2,0.1-1.2-0.7
				C132.5,116.6,133,115.7,133.7,115.3z"/>
		</g>
		<g>
			
				<ellipse transform="matrix(0.5024 -0.8646 0.8646 0.5024 -39.4576 176.6153)" class="st14" cx="133.7" cy="122.6" rx="1.7" ry="1"/>
		</g>
		<g>
			<path class="st14" d="M138.8,112.3c0.7-0.4,1.2-0.1,1.2,0.7s-0.5,1.7-1.2,2.1c-0.7,0.4-1.2,0.1-1.2-0.7
				C137.6,113.6,138.2,112.7,138.8,112.3z"/>
		</g>
		<g>
			<path class="st14" d="M138.9,118.2c0.7-0.4,1.2-0.1,1.2,0.7c0,0.8-0.5,1.7-1.2,2.1c-0.7,0.4-1.2,0.1-1.2-0.7
				C137.6,119.6,138.2,118.6,138.9,118.2z"/>
		</g>
		<g>
			<path class="st14" d="M144,109.4c0.7-0.4,1.2-0.1,1.2,0.7c0,0.8-0.5,1.7-1.2,2.1c-0.7,0.4-1.2,0.1-1.2-0.7S143.3,109.7,144,109.4
				z"/>
		</g>
		<g>
			<path class="st14" d="M144,115.3c0.7-0.4,1.2-0.1,1.2,0.7c0,0.8-0.5,1.7-1.2,2.1c-0.7,0.4-1.2,0.1-1.2-0.7
				C142.8,116.6,143.3,115.6,144,115.3z"/>
		</g>
		<g>
			<path class="st14" d="M170.7,93.9c1.2-0.7,2.2-0.1,2.2,1.2l0,3.7c0,1.4-1,3-2.2,3.7l-19.8,11.4c-1.2,0.7-2.2,0.1-2.2-1.2l0-3.7
				c0-1.4,1-3,2.2-3.7L170.7,93.9z"/>
		</g>
	</g>
	<g>
		<g>
			<path class="st14" d="M113.1,154.7c0.7-0.4,1.2-0.1,1.2,0.7s-0.5,1.7-1.2,2.1c-0.7,0.4-1.2,0.1-1.2-0.7
				C111.9,156.1,112.5,155.1,113.1,154.7z"/>
		</g>
		<g>
			<path class="st14" d="M113.2,160.6c0.7-0.4,1.2-0.1,1.2,0.7c0,0.8-0.5,1.7-1.2,2.1c-0.7,0.4-1.2,0.1-1.2-0.7
				S112.5,161,113.2,160.6z"/>
		</g>
		<g>
			<path class="st14" d="M118.3,151.8c0.7-0.4,1.2-0.1,1.2,0.7c0,0.8-0.5,1.7-1.2,2.1c-0.7,0.4-1.2,0.1-1.2-0.7
				C117.1,153.1,117.6,152.1,118.3,151.8z"/>
		</g>
		<g>
			
				<ellipse transform="matrix(0.5024 -0.8646 0.8646 0.5024 -78.6648 181.4307)" class="st14" cx="118.3" cy="159.1" rx="1.7" ry="1"/>
		</g>
		<g>
			<path class="st14" d="M123.4,148.8c0.7-0.4,1.2-0.1,1.2,0.7c0,0.8-0.5,1.7-1.2,2.1c-0.7,0.4-1.2,0.1-1.2-0.7
				S122.7,149.2,123.4,148.8z"/>
		</g>
		<g>
			<path class="st14" d="M123.4,154.7c0.7-0.4,1.2-0.1,1.2,0.7c0,0.8-0.5,1.7-1.2,2.1c-0.7,0.4-1.2,0.1-1.2-0.7
				C122.2,156,122.8,155.1,123.4,154.7z"/>
		</g>
		<g>
			<path class="st14" d="M128.6,145.8c0.7-0.4,1.2-0.1,1.2,0.7s-0.5,1.7-1.2,2.1c-0.7,0.4-1.2,0.1-1.2-0.7
				C127.3,147.2,127.9,146.2,128.6,145.8z"/>
		</g>
		<g>
			<path class="st14" d="M128.6,151.7c0.7-0.4,1.2-0.1,1.2,0.7s-0.5,1.7-1.2,2.1c-0.7,0.4-1.2,0.1-1.2-0.7S127.9,152.1,128.6,151.7z
				"/>
		</g>
		<g>
			<path class="st14" d="M133.7,142.9c0.7-0.4,1.2-0.1,1.2,0.7s-0.5,1.7-1.2,2.1c-0.7,0.4-1.2,0.1-1.2-0.7
				C132.5,144.2,133,143.2,133.7,142.9z"/>
		</g>
		<g>
			
				<ellipse transform="matrix(0.5024 -0.8646 0.8646 0.5024 -63.295 190.3333)" class="st14" cx="133.7" cy="150.2" rx="1.7" ry="1"/>
		</g>
		<g>
			<path class="st14" d="M138.8,139.9c0.7-0.4,1.2-0.1,1.2,0.7s-0.5,1.7-1.2,2.1c-0.7,0.4-1.2,0.1-1.2-0.7S138.2,140.3,138.8,139.9z
				"/>
		</g>
		<g>
			<path class="st14" d="M138.9,145.8c0.7-0.4,1.2-0.1,1.2,0.7c0,0.8-0.5,1.7-1.2,2.1c-0.7,0.4-1.2,0.1-1.2-0.7
				S138.2,146.2,138.9,145.8z"/>
		</g>
		<g>
			<path class="st14" d="M144,136.9c0.7-0.4,1.2-0.1,1.2,0.7s-0.5,1.7-1.2,2.1c-0.7,0.4-1.2,0.1-1.2-0.7S143.3,137.3,144,136.9z"/>
		</g>
		<g>
			<path class="st14" d="M144,142.8c0.7-0.4,1.2-0.1,1.2,0.7s-0.5,1.7-1.2,2.1c-0.7,0.4-1.2,0.1-1.2-0.7
				C142.8,144.2,143.3,143.2,144,142.8z"/>
		</g>
		<g>
			<path class="st14" d="M170.7,121.5c1.2-0.7,2.2-0.1,2.2,1.2l0,3.7c0,1.4-1,3-2.2,3.7l-19.8,11.4c-1.2,0.7-2.2,0.1-2.2-1.2l0-3.7
				c0-1.4,1-3,2.2-3.7L170.7,121.5z"/>
		</g>
	</g>
</g>
</svg>
