<?xml version="1.0" encoding="utf-8"?>
<!-- Generator: Adobe Illustrator 28.0.0, SVG Export Plug-In . SVG Version: 6.00 Build 0)  -->
<svg version="1.1" id="Layer_1" xmlns="http://www.w3.org/2000/svg" xmlns:xlink="http://www.w3.org/1999/xlink" x="0px" y="0px"
	 viewBox="0 0 197.7 176.2" style="enable-background:new 0 0 197.7 176.2;" xml:space="preserve">
<style type="text/css">
	.st0{opacity:0.33;fill:url(#SVGID_1_);enable-background:new    ;}
	.st1{opacity:0.33;fill:url(#SVGID_00000096026296248104613450000000895413641249578669_);enable-background:new    ;}
	.st2{fill:#9DCC4A;}
	.st3{fill:#BFD2E2;}
	.st4{fill:#F9F9F9;}
	.st5{enable-background:new    ;}
	.st6{fill:#FFDD55;}
	.st7{fill:#4483B4;}
	.st8{opacity:0.12;fill:#2A3C67;}
	.st9{opacity:0.33;fill:url(#SVGID_00000067932940683826511450000011390570008057435269_);enable-background:new    ;}
	.st10{opacity:0.7;fill:url(#SVGID_00000049182048047949029810000003547211839659373193_);enable-background:new    ;}
	.st11{fill:#197F58;}
	.st12{fill:#FFFFFF;}
</style>
<g>
	
		<linearGradient id="SVGID_1_" gradientUnits="userSpaceOnUse" x1="60.8053" y1="38.4278" x2="116.7672" y2="184.9801" gradientTransform="matrix(1 0 0 -1 -2.32 164.1593)">
		<stop  offset="0" style="stop-color:#A5BDCB"/>
		<stop  offset="1" style="stop-color:#D8E9F4;stop-opacity:0"/>
	</linearGradient>
	<path class="st0" d="M48.4,137.8l89.7-51.7c0.8-0.5,1-1.4,0.6-2.2c-0.1-0.2-0.3-0.4-0.6-0.6L93.3,55.8c-0.5-0.3-1.1-0.3-1.6,0
		L0.6,108.4c-1.1,0.6-1.1,2.2,3.1,4.7l46.2,26.7C47.2,138.1,47.9,138.1,48.4,137.8z"/>
	
		<linearGradient id="SVGID_00000106868941925537052070000004838400246713303730_" gradientUnits="userSpaceOnUse" x1="75.704" y1="110.3016" x2="171.7362" y2="115.356">
		<stop  offset="0" style="stop-color:#A5BDCB"/>
		<stop  offset="1" style="stop-color:#D8E9F4;stop-opacity:0"/>
	</linearGradient>
	<path style="opacity:0.33;fill:url(#SVGID_00000106868941925537052070000004838400246713303730_);enable-background:new    ;" d="
		M112.5,153.6l89.7-51.7c0.8-0.5,1-1.4,0.6-2.2c-0.1-0.2-0.3-0.4-0.6-0.6l-44.8-27.5c-0.5-0.3-1.1-0.3-1.6,0l-91.1,52.6
		c-1.1,0.6-1.1,2.2,3.1,4.7l46.2,26.7C111.3,153.9,112,153.9,112.5,153.6z"/>
	<polygon class="st2" points="148.4,170.3 197.7,142.4 190.8,133.8 185.9,148.4 178.8,141.3 173.1,155.1 166.1,148.3 160.6,162.3 
		153.4,156 	"/>
	<polygon class="st2" points="168.7,25.5 163.2,30.3 159,19.6 153.6,24.7 149.2,14.2 143.8,19.6 140,8.4 134.7,15 172.5,36.4 	"/>
	<g>
		<path class="st3" d="M123,0.6c-1.5-0.9-3.7-0.8-6,0.6L51.7,38.9c-4.7,2.7-8.5,9.2-8.4,14.6l0.2,78.6c0,2.7,0.9,4.5,2.5,5.4
			l4.3,2.5c-1.5-0.9-2.5-2.8-2.5-5.4L47.6,56c0-5.4,3.8-11.9,8.4-14.6l65.3-37.7c2.3-1.4,4.5-1.5,6-0.6L123,0.6z"/>
		<path class="st4" d="M129.8,8.5c0-5.4-3.8-7.5-8.5-4.8L56,41.4c-4.7,2.7-8.5,9.2-8.4,14.6l0.2,78.6c0,5.4,3.8,7.5,8.5,4.8
			l65.3-37.7c4.7-2.7,8.5-9.2,8.4-14.6L129.8,8.5z"/>
	</g>
	<g>
		<g class="st5">
			<g>
				<path class="st6" d="M118.5,46.4c1.5,5.8,1.5,10.7,0,16.8c-1.4,5.9-3,10.1-7.2,12.5l-7.2,4.1l-14.4,8.3l0,2.1l14.4-8.3l0,6.3
					c0,4.8-3.5,9.2-7.2,12.5c-2.6,2.4-5,4.1-7.2,5.4c-2.4,1.4-4.8,2.3-7.1,2.9c-3.8,0.9-7.2,0.2-7.2-4.2l0-15.7
					c0-4.5,3.2-10.3,7.2-12.5L97,68.3c4.8-2.8,9-10,9-15.7l0-7.3l5.4-3.1C115.5,39.7,117.4,42.2,118.5,46.4z M97.9,89.7
					c-1.5,0.9-2.7,3-2.7,4.7c0,1.7,1.2,2.5,2.7,1.6c1.5-0.9,2.7-3,2.7-4.7C100.6,89.6,99.4,88.9,97.9,89.7"/>
			</g>
			<g>
				<path class="st7" d="M96.9,33.5c3.9-1.5,7.2,0,7.2,4.4l0,15.7c0,4.6-3.2,10.2-7.2,12.5l-14.4,8.3c-4.9,2.8-9,10-9,15.4l0,7.5
					l-4.9,2.9c-4.2,2.4-6.6,0.3-7.7-4c-1.4-5.8-1.3-9.7,0-16.8c1.1-6.1,4.8-11.1,9-13.6l5.4-3.1l14.4-8.3l0-2.1l-14.4,8.3l0-6.3
					c0-4.8,1.1-8,7.2-12.7c2.1-1.6,4.4-3.2,6.9-4.6c0.1-0.1,0.2-0.1,0.3-0.2C92,35.6,94.5,34.4,96.9,33.5z M81.6,53
					c1.5-0.9,2.7-3,2.7-4.7c0-1.7-1.2-2.5-2.7-1.6c-1.5,0.9-2.7,3-2.7,4.7C78.9,53.1,80.1,53.8,81.6,53"/>
			</g>
		</g>
	</g>
	<path class="st8" d="M130.1,87.1l-0.2-63.7L79.5,52.5c-4.7,2.7-8.5,9.2-8.4,14.6l0.2,63.7l50.4-29.1
		C126.3,99,130.1,92.4,130.1,87.1z"/>
	<g>
		
			<linearGradient id="SVGID_00000115474141139760286930000018007955417272419254_" gradientUnits="userSpaceOnUse" x1="56.2107" y1="-4.6995" x2="166.2131" y2="3.8771" gradientTransform="matrix(1 0 0 -1 -4.91 162.9693)">
			<stop  offset="0" style="stop-color:#A5BDCB"/>
			<stop  offset="0.26" style="stop-color:#B2C8D6;stop-opacity:0.74"/>
			<stop  offset="1" style="stop-color:#D8E9F4;stop-opacity:0"/>
		</linearGradient>
		<path style="opacity:0.33;fill:url(#SVGID_00000115474141139760286930000018007955417272419254_);enable-background:new    ;" d="
			M65.4,160.4L65.4,160.4h-0.1l-0.4-0.2h-0.1l-0.4-0.2h-0.1l-0.4-0.1l0,0l-0.5-0.1l0,0l-0.6-0.2l0,0l-0.5-0.1l0,0
			c-4.3-0.9-8.8-0.5-12.8,1.2c-10.7,5-12.8,11.9-13.2,14.4c-0.1,0.6,0.6,1,1.6,1.1c1,0.1,2.1,0.1,3.5,0.1h3h0.3h0.6h0.3h0.6h0.3h0.5
			h0.3h0.5h0.4h0.5H49l0.5-0.1h0.3l0.6-0.1h0.2l0.9-0.1h0.2l0.7-0.1h0.3l0.6-0.1l0.4-0.1l0.6-0.1l0.4-0.1l0.6-0.1l0.4-0.1l0.6-0.2
			l0.3-0.1l0.8-0.2h0.1l1-0.3l0.3-0.1l0.7-0.2l0.3-0.1l0.6-0.2l0.4-0.1l0.6-0.2l0.4-0.1l0.6-0.2l0.4-0.1l0.6-0.3l0.3-0.1l0.9-0.4
			c0.4-0.2,0.7-0.3,1-0.5c0.6-0.3,1.2-0.7,1.7-1.1c3.1-2.5,3.5-5.8,0.5-8.3"/>
		<path class="st2" d="M60.6,128.3c-3,2.8-10.5,11.2-10.8,23.6c-0.3,6.7,5,12.4,11.7,12.6c0.1,0,0.2,0,0.4,0c6.6,0,11.9-5.4,11.9-12
			c0-12.8-7.7-21.4-10.8-24.3C62.3,127.7,61.3,127.7,60.6,128.3z"/>
		
			<linearGradient id="SVGID_00000101820728180964812740000014172281183508914874_" gradientUnits="userSpaceOnUse" x1="60.7273" y1="2.0282" x2="67.655" y2="14.5999" gradientTransform="matrix(1 0 0 -1 -4.91 162.9693)">
			<stop  offset="0" style="stop-color:#9ABED8"/>
			<stop  offset="1" style="stop-color:#9ABED8;stop-opacity:0.7"/>
		</linearGradient>
		<path style="opacity:0.7;fill:url(#SVGID_00000101820728180964812740000014172281183508914874_);enable-background:new    ;" d="
			M67.9,155.3c-6.7-0.1-12.1-5.6-12-12.3c0-0.1,0-0.2,0-0.3c0.1-4.3,1-8.5,2.8-12.4c-5.4,6-8.6,13.6-8.9,21.7
			c-0.3,6.7,5,12.4,11.7,12.6c0.1,0,0.2,0,0.3,0c6.2,0,11.3-4.7,11.9-10.8C72,154.8,70,155.3,67.9,155.3z"/>
	</g>
	<path class="st3" d="M186.5,16.2c-1.5-0.9-3.7-0.8-6,0.6l-65.3,37.7c-4.7,2.7-8.5,9.2-8.4,14.6l0.2,78.6c0,2.7,0.9,4.5,2.5,5.4
		l4.3,2.5c-1.5-0.9-2.5-2.8-2.5-5.4l-0.2-78.6c0-5.4,3.8-11.9,8.4-14.6l65.3-37.7c2.3-1.4,4.5-1.5,6-0.6L186.5,16.2z"/>
	<path class="st11" d="M193.3,24.1c0-5.4-3.8-7.5-8.5-4.8L119.5,57c-4.7,2.7-8.5,9.2-8.4,14.6l0.2,78.6c0,5.4,3.8,7.5,8.5,4.8
		l65.3-37.7c4.7-2.7,8.5-9.2,8.4-14.6L193.3,24.1z"/>
	<g>
		<g>
			<path class="st12" d="M163.6,88.9l-0.1-24.4l10.8-6.2l0.1,28.6c0,9.9-0.6,15-2.5,20.1c-1.7,4.9-4,8.7-8.8,14.2l-10,0.3
				c4.7-5.3,7-8.9,8.5-13.2C163.1,104,163.6,99.6,163.6,88.9z"/>
		</g>
		<g>
			<path class="st12" d="M146.4,55.3l10.8-6.2l0.2,57.2c-5.5,4.4-9.6,7.2-14,9.7c-13.1,7.6-20,4.7-20-8.4c0-12.6,7.2-25,18.4-31.5
				c1.7-1,3.1-1.6,4.7-2.1L146.4,55.3z M146.5,103.9l-0.1-19.8c-1.3,0.2-2.3,0.7-3.6,1.5c-5.4,3.1-8.6,8.8-8.6,15.6
				c0,6.6,3,8.5,8.5,5.3C144,105.7,145,105,146.5,103.9"/>
		</g>
		<g>
			<polygon class="st12" points="163.5,45.5 174.2,39.3 174.3,51.9 163.5,58.2 			"/>
		</g>
	</g>
</g>
</svg>
