<svg xmlns="http://www.w3.org/2000/svg" xmlns:xlink="http://www.w3.org/1999/xlink" viewBox="0 0 165.08 164.55">
  <defs>
    <linearGradient id="Градієнт_без_назви_2" data-name="Градієнт без назви 2" x1="138.55" y1="76.37" x2="146.55" y2="70.99" gradientUnits="userSpaceOnUse">
      <stop offset="0" stop-color="#9abed8"/>
      <stop offset="1" stop-color="#9abed8" stop-opacity="0.7"/>
    </linearGradient>
    <linearGradient id="linear-gradient" x1="-7.07" y1="184.47" x2="114.86" y2="105.71" gradientUnits="userSpaceOnUse">
      <stop offset="0" stop-color="#a5bdcb"/>
      <stop offset="0.26" stop-color="#b2c8d6" stop-opacity="0.74"/>
      <stop offset="1" stop-color="#d8e9f4" stop-opacity="0"/>
    </linearGradient>
    <linearGradient id="Градієнт_без_назви_69" data-name="Градієнт без назви 69" x1="24.61" y1="130.01" x2="154.62" y2="130.01" gradientUnits="userSpaceOnUse">
      <stop offset="0" stop-color="#c7d1e0"/>
      <stop offset="1" stop-color="#b3cade"/>
    </linearGradient>
    <linearGradient id="Градієнт_без_назви_31" data-name="Градієнт без назви 31" x1="24.61" y1="130.01" x2="154.62" y2="130.01" xlink:href="#Градієнт_без_назви_2"/>
    <linearGradient id="Градієнт_без_назви_32" data-name="Градієнт без назви 32" x1="24.61" y1="116.14" x2="154.62" y2="116.14" gradientUnits="userSpaceOnUse">
      <stop offset="0" stop-color="#d7e6f2"/>
      <stop offset="1" stop-color="#dee2f3"/>
    </linearGradient>
    <linearGradient id="linear-gradient-2" x1="76.67" y1="117.81" x2="-63.01" y2="126.2" xlink:href="#linear-gradient"/>
    <linearGradient id="Градієнт_без_назви_83" data-name="Градієнт без назви 83" x1="-723.21" y1="49.96" x2="-516.61" y2="28.52" gradientTransform="matrix(-1, 0, 0, 1, -628.32, 0)" gradientUnits="userSpaceOnUse">
      <stop offset="0" stop-color="#a5bdcb"/>
      <stop offset="1" stop-color="#d8e9f4" stop-opacity="0"/>
    </linearGradient>
    <linearGradient id="Градієнт_без_назви_83-3" x1="-680.01" y1="17.77" x2="-564.36" y2="34.34" gradientTransform="matrix(-1, 0, 0, 1, -520.77, 0)" xlink:href="#Градієнт_без_назви_83"/>
    <linearGradient id="Градієнт_без_назви_78" data-name="Градієнт без назви 78" x1="70.38" y1="120.08" x2="107.52" y2="120.08" gradientUnits="userSpaceOnUse">
      <stop offset="0" stop-color="#6cc0ff"/>
      <stop offset="1" stop-color="#51aee6"/>
    </linearGradient>
    <linearGradient id="linear-gradient-3" x1="20.71" y1="98.24" x2="120.11" y2="90.49" xlink:href="#linear-gradient"/>
    <linearGradient id="Градієнт_без_назви_31-2" data-name="Градієнт без назви 31" x1="24.79" y1="92.3" x2="31.05" y2="80.94" xlink:href="#Градієнт_без_назви_2"/>
    <clipPath id="clip-path" transform="translate(-4.91 -4.99)">
      <circle cx="90.7" cy="66.96" r="12.89" style="fill: none"/>
    </clipPath>
    <linearGradient id="Градієнт_без_назви_78-2" x1="72.9" y1="64.73" x2="98.68" y2="64.73" xlink:href="#Градієнт_без_назви_78"/>
  </defs>
  <title>startup</title>
  <g style="isolation: isolate">
    <g id="Stratup">
      <g>
        <path d="M119.68,101.07c-8,4.37-9,11.25-2.28,15.36s18.71,3.89,26.72-.49c7.77-4.25,8.95-10.86,2.83-15l5.12-2.8c1.1-.61,1.24-1.55.31-2.12a4.05,4.05,0,0,0-3.68.07l-5.48,3C136.31,96.62,126.54,97.31,119.68,101.07Z" transform="translate(-4.91 -4.99)" style="fill: #7e9daa;opacity: 0.29;mix-blend-mode: multiply"/>
        <path d="M151.24,69.19a1.9,1.9,0,0,0-1.91,1.9v6.4l-3.73-2.62a1.6,1.6,0,1,0-1.84,2.63L149,81.2a1.82,1.82,0,0,0,.31.16V97a1.91,1.91,0,0,0,3.82,0V71.09A1.91,1.91,0,0,0,151.24,69.19Z" transform="translate(-4.91 -4.99)" style="fill: #344550"/>
        <circle cx="145.15" cy="63.59" r="19.92" style="fill: #c3cc4c"/>
        <path d="M158.57,77.14a17.22,17.22,0,0,1-15.79-24.09,17.22,17.22,0,1,0,23,22.53A17.16,17.16,0,0,1,158.57,77.14Z" transform="translate(-4.91 -4.99)" style="opacity: 0.7000000000000001;mix-blend-mode: multiply;fill: url(#Градієнт_без_назви_2)"/>
      </g>
      <path d="M133.31,126.58,71.59,91.14a5,5,0,0,0-5.07,0L6.67,127.59a3.58,3.58,0,0,0,0,6.19l61.12,35.1a4.94,4.94,0,0,0,2.07.63h20.5v-9.25H87l46.36-28.19A3.18,3.18,0,0,0,133.31,126.58Z" transform="translate(-4.91 -4.99)" style="opacity: 0.33;mix-blend-mode: multiply;fill: url(#linear-gradient)"/>
      <path d="M154.62,116.37h-19.4L91.29,91.14a5,5,0,0,0-5.07,0l-41.4,25.18H24.61V130h.08a3.54,3.54,0,0,0,1.73,3.77l61.12,35.1a5,5,0,0,0,5.07,0l60.45-36.76a3.16,3.16,0,0,0,1.48-2.07h.08Z" transform="translate(-4.91 -4.99)" style="fill: url(#Градієнт_без_назви_69)"/>
      <path d="M154.62,116.37h-19.4L91.29,91.14a5,5,0,0,0-5.07,0l-41.4,25.18H24.61V130h.08a3.54,3.54,0,0,0,1.73,3.77l61.12,35.1a5,5,0,0,0,5.07,0l60.45-36.76a3.16,3.16,0,0,0,1.48-2.07h.08Z" transform="translate(-4.91 -4.99)" style="opacity: 0.7000000000000001;mix-blend-mode: multiply;fill: url(#Градієнт_без_назви_31)"/>
      <path d="M92.61,155l60.45-36.76a3.17,3.17,0,0,0-.05-5.49L91.29,77.27a5,5,0,0,0-5.07,0L26.37,113.72a3.58,3.58,0,0,0,.05,6.19L87.54,155A5,5,0,0,0,92.61,155Z" transform="translate(-4.91 -4.99)" style="fill: url(#Градієнт_без_назви_32)"/>
      <path d="M26.42,119.91l19.12,11L88,134.44l4.68-7.31c3.62-1.1,1-2.38,3.63-3.81l23-3.24-14.79-10.23c-3.79-8.8-24.3-7.79-49-7.79-3.64,0-7.14.14-10.54.33L26.37,113.72A3.58,3.58,0,0,0,26.42,119.91Z" transform="translate(-4.91 -4.99)" style="opacity: 0.33;mix-blend-mode: multiply;fill: url(#linear-gradient-2)"/>
      <g style="opacity: 0.33;mix-blend-mode: multiply">
        <path d="M19.24,56.57h77.4s-1.53-12.92-12.31-13a11.36,11.36,0,0,0-9.63,4.59s-2-16.43-18.2-16.51c-10.7-.05-14.13,16.12-14.13,16.12S23.25,39.77,19.24,56.57Z" transform="translate(-4.91 -4.99)" style="fill: url(#Градієнт_без_назви_83)"/>
        <path d="M19.24,56.57h77.4s-1.53-12.92-12.31-13a11.36,11.36,0,0,0-9.63,4.59s-2-16.43-18.2-16.51c-10.7-.05-14.13,16.12-14.13,16.12S23.25,39.77,19.24,56.57Z" transform="translate(-4.91 -4.99)" style="fill: url(#Градієнт_без_назви_83)"/>
      </g>
      <g style="opacity: 0.49;mix-blend-mode: multiply">
        <path d="M95.52,30.53h47.67s-1.12-9.41-9-9.48a8.27,8.27,0,0,0-7,3.34S123,14.3,111.94,14.3C96.42,14.3,95.52,30.53,95.52,30.53Z" transform="translate(-4.91 -4.99)" style="fill: url(#Градієнт_без_назви_83-3)"/>
        <path d="M95.52,30.53h47.67s-1.12-9.41-9-9.48a8.27,8.27,0,0,0-7,3.34S123,14.3,111.94,14.3C96.42,14.3,95.52,30.53,95.52,30.53Z" transform="translate(-4.91 -4.99)" style="fill: url(#Градієнт_без_назви_83-3)"/>
      </g>
      <path d="M70,111.67c.35-.33,24.13-22.78,5.42-22.76s-19.09,25.34-19.09,25.34v3.64a2.62,2.62,0,0,0,3.49,2.47l10.1-3.55a2.57,2.57,0,0,0,2.57-2.58h0A2.56,2.56,0,0,0,70,111.67Z" transform="translate(-4.91 -4.99)" style="fill: #2a3c67"/>
      <path d="M108,111.67c-.35-.33-24.17-22.74-5.47-22.75s19.15,25.3,19.15,25.3v3.65a2.62,2.62,0,0,1-3.49,2.47l-10.1-3.53a2.58,2.58,0,0,1-2.58-2.57h0A2.58,2.58,0,0,1,108,111.67Z" transform="translate(-4.91 -4.99)" style="fill: #2a3c67"/>
      <path d="M112.5,59.14c0-21.27-14-44.39-20.82-52.82a3.61,3.61,0,0,0-5.61,0c-6.86,8.44-20.74,30-20.73,51.27,0,26.63,5.37,59.1,5.37,59.1h0c.79,5.5,8.64,9.82,18.23,9.82s17.4-4.3,18.22-9.78h0S112.52,85.77,112.5,59.14Z" transform="translate(-4.91 -4.99)" style="fill: #ffe269"/>
      <path d="M86.07,6.33a106.79,106.79,0,0,0-11,17A37.17,37.17,0,0,0,88.8,25.8a37.19,37.19,0,0,0,13.63-2.46,103,103,0,0,0-10.75-17A3.61,3.61,0,0,0,86.07,6.33Z" transform="translate(-4.91 -4.99)" style="fill: #f9737a"/>
      <path d="M89,119c-7.55,0-14.26-2.09-18.57-5.33l.33,3h0c.79,5.5,8.64,9.82,18.23,9.82s17.4-4.3,18.22-9.78h0s.13-1.12.34-3.1C103.22,116.88,96.51,119,89,119Z" transform="translate(-4.91 -4.99)" style="fill: url(#Градієнт_без_назви_78)"/>
      <path d="M86.69,124.52l-1.54-17.47-6.83,4.81c-1.21-8-4.6-31.94-4.62-54.26,0-20.31,8.08-42.48,13.55-52.21a3.41,3.41,0,0,0-1.18.94c-6.86,8.44-20.74,30-20.73,51.27,0,26.63,5.37,59.1,5.37,59.1h0c.79,5.5,8.64,9.82,18.23,9.82a29.65,29.65,0,0,0,4.17-.3A26.09,26.09,0,0,1,86.69,124.52Z" transform="translate(-4.91 -4.99)" style="fill: #c48551;opacity: 0.30000000000000004;mix-blend-mode: multiply"/>
      <path d="M86.83,106.54h3.54A3.17,3.17,0,0,1,93.54,110l-1.61,21.57a3.17,3.17,0,0,1-3.1,2.85h0a3.16,3.16,0,0,1-3.19-2.76l-1.93-21.57A3.16,3.16,0,0,1,86.83,106.54Z" transform="translate(-4.91 -4.99)" style="fill: #2a3c67"/>
      <g>
        <path d="M33.47,91.82l0,0-.1,0L33,91.61l-.09,0-.37-.14-.08,0-.39-.13,0,0-.44-.13h0L31.09,91h0l-.49-.12h0A19,19,0,0,0,19.05,92C9.41,96.56,7.51,102.76,7.14,105c-.09.5.53.94,1.41,1s1.87.09,3.15.09h2.69l.31,0,.55,0h.3l.51,0,.29,0,.44,0,.3,0,.44,0,.32,0,.45,0,.31,0,.49-.06.29,0,.58-.08.21,0,.8-.11.17,0,.65-.1.28,0,.54-.1.32-.06.52-.1.33-.07.52-.11.32-.07.57-.14.28-.06.72-.19.13,0,.86-.24.23-.06.62-.19.31-.1.55-.17.34-.12.52-.18.34-.12.53-.2.33-.13.57-.23.28-.11.84-.37c.33-.15.64-.3.93-.46a10.54,10.54,0,0,0,1.58-1c2.81-2.24,3.16-5.22.47-7.46" transform="translate(-4.91 -4.99)" style="opacity: 0.33;mix-blend-mode: multiply;fill: url(#linear-gradient-3)"/>
        <path d="M29.11,62.82c-2.69,2.55-9.48,10.1-9.72,21.36A11,11,0,0,0,30.27,95.61,10.81,10.81,0,0,0,41,84.8c0-11.61-7-19.37-9.73-22A1.58,1.58,0,0,0,29.11,62.82Z" transform="translate(-4.91 -4.99)" style="fill: #9dcc4a"/>
        <path d="M35.75,87.19A11,11,0,0,1,24.88,75.76a28.63,28.63,0,0,1,2.54-11.19,30.63,30.63,0,0,0-8,19.61A11,11,0,0,0,30.27,95.61,10.81,10.81,0,0,0,41,85.81,10.72,10.72,0,0,1,35.75,87.19Z" transform="translate(-4.91 -4.99)" style="opacity: 0.7000000000000001;mix-blend-mode: multiply;fill: url(#Градієнт_без_назви_31-2)"/>
      </g>
      <circle cx="85.79" cy="64.73" r="15.65" style="fill: #fffcf3"/>
      <circle cx="85.79" cy="64.73" r="12.89" style="fill: #308db2"/>
      <g style="clip-path: url(#clip-path)">
        <circle cx="85.79" cy="64.73" r="12.89" style="fill: url(#Градієнт_без_назви_78-2)"/>
      </g>
      <rect x="85.79" y="50.12" width="9.22" height="9.22" rx="4.61" ry="4.61" style="fill: #fff;opacity: 0.5700000000000001"/>
    </g>
  </g>
</svg>
