<?xml version="1.0" encoding="utf-8"?>
<!-- Generator: Adobe Illustrator 16.0.0, SVG Export Plug-In . SVG Version: 6.00 Build 0)  -->
<!DOCTYPE svg PUBLIC "-//W3C//DTD SVG 1.1//EN" "http://www.w3.org/Graphics/SVG/1.1/DTD/svg11.dtd">
<svg version="1.1" id="Layer_1" xmlns="http://www.w3.org/2000/svg" xmlns:xlink="http://www.w3.org/1999/xlink" x="0px" y="0px"
	 width="496.667px" height="137.333px" viewBox="0 0 496.667 137.333" enable-background="new 0 0 496.667 137.333"
	 xml:space="preserve">
<g>
	<path fill="#E20613" d="M488.204,104.658l-18.829-7.8c-1.087,2.216-2.483,4.31-4.185,6.236l14.408,14.409
		C483.223,113.607,486.095,109.265,488.204,104.658"/>
	<path fill="#009EE2" d="M488.204,64.194c-2.108-4.606-4.98-8.949-8.605-12.844L465.19,65.758c1.701,1.927,3.098,4.022,4.185,6.238
		L488.204,64.194z"/>
	<path fill="#F8AF00" d="M492.564,86.206h-20.373c-0.156,2.497-0.645,4.972-1.462,7.364l18.828,7.799
		C491.374,96.476,492.377,91.355,492.564,86.206"/>
	<path fill="#93C01F" d="M470.729,75.283c0.817,2.394,1.306,4.868,1.462,7.365h20.373c-0.187-5.149-1.19-10.273-3.007-15.163
		L470.729,75.283z"/>
	<path fill="#3C3C3B" d="M424.048,104.416c-11.039-11.039-11.039-28.939,0-39.978c10.616-10.616,27.557-10.993,38.659-1.194
		l14.407-14.407c-19.058-17.734-48.884-17.333-67.441,1.224c-5.383,5.382-9.234,11.713-11.564,18.454V38.529h-2.847h-15.039h-4.015
		h-11.703V4.926h-21.903v33.604h-13.216h-2h-8.95h-10.95v6.33c-7.966-5.709-17.722-9.081-28.27-9.081
		c-22.991,0-42.24,15.97-47.292,37.418c-5.034-21.507-24.321-37.529-47.364-37.529c-13.701,0-26.07,5.67-34.913,14.783V38.529
		c-10.549,0-20.304,3.372-28.271,9.081v-9.081H99.475v28.91C92.6,48.952,74.808,35.777,53.926,35.777
		c-26.84,0-48.6,21.759-48.6,48.601c0,26.843,21.759,48.602,48.6,48.602c20.881,0,38.673-13.173,45.549-31.658v29.003h21.901V87.128
		h0.001c0-13.167,9.003-24.231,21.189-27.374c-4.229,7.212-6.664,15.603-6.664,24.568c0,26.871,21.784,48.656,48.656,48.656
		c18.986,0,35.42-10.881,43.437-26.741h-25.536c-4.879,3.989-11.108,6.387-17.901,6.387c-11.747,0-21.821-7.158-26.102-17.351
		h52.203h18.771h2.426c4.949,21.592,24.265,37.703,47.358,37.703c10.548,0,20.304-3.371,28.27-9.08v6.427h21.9V58.838h13.216v71.486
		h21.903V58.838h11.703v71.486h21.9v-29.986c2.33,6.741,6.182,13.072,11.564,18.454c18.558,18.56,48.384,18.96,67.441,1.226
		l-14.407-14.407C451.605,115.409,434.665,115.032,424.048,104.416z M79.977,95.376c-4.291,10.148-14.338,17.271-26.05,17.271
		c-15.612,0-28.269-12.656-28.269-28.271c0-15.612,12.657-28.268,28.269-28.268c11.749,0,21.817,7.167,26.086,17.367h19.462v21.9
		H79.977z M157.85,74.966c3.864-11.032,14.36-18.946,26.71-18.946s22.847,7.915,26.711,18.946H157.85z M279.216,112.648
		c-15.612,0-28.271-12.656-28.271-28.271c0-15.612,12.658-28.268,28.271-28.268s28.27,12.656,28.27,28.268
		C307.486,99.992,294.829,112.648,279.216,112.648z M398.109,26.828h-21.9V4.926h21.9V26.828z"/>
</g>
</svg>
