<?xml version="1.0" encoding="utf-8"?>
<!-- Generator: Adobe Illustrator 16.0.0, SVG Export Plug-In . SVG Version: 6.00 Build 0)  -->
<!DOCTYPE svg PUBLIC "-//W3C//DTD SVG 1.1//EN" "http://www.w3.org/Graphics/SVG/1.1/DTD/svg11.dtd">
<svg version="1.1" xmlns="http://www.w3.org/2000/svg" xmlns:xlink="http://www.w3.org/1999/xlink" x="0px" y="0px"
	 width="20px" height="20px" viewBox="-1.016 -1.25 9.016 6.25" enable-background="new -1.016 -1.25 9.016 6.25"
	 xml:space="preserve">
<g>
	<path fill="#999999" d="M7.102,0.775L3.625,4.253C3.58,4.298,3.513,4.327,3.453,4.327S3.326,4.298,3.282,4.253l-3.478-3.478
		C-0.24,0.731-0.27,0.664-0.27,0.604s0.03-0.127,0.074-0.171l0.374-0.374c0.044-0.044,0.104-0.074,0.171-0.074
		c0.06,0,0.127,0.03,0.171,0.074l2.933,2.933l2.933-2.933c0.045-0.044,0.111-0.074,0.171-0.074c0.061,0,0.127,0.03,0.172,0.074
		l0.373,0.374c0.045,0.044,0.075,0.112,0.075,0.171S7.146,0.731,7.102,0.775z"/>
</g>
</svg>
