<svg xmlns="http://www.w3.org/2000/svg" xmlns:xlink="http://www.w3.org/1999/xlink" viewBox="0 0 197.89 176.93">
  <defs>
    <linearGradient id="Градієнт_без_назви_83" data-name="Градієнт без назви 83" x1="59.51" y1="164.98" x2="114.23" y2="21.68" gradientUnits="userSpaceOnUse">
      <stop offset="0" stop-color="#a5bdcb"/>
      <stop offset="1" stop-color="#d8e9f4" stop-opacity="0"/>
    </linearGradient>
    <linearGradient id="Градієнт_без_назви_69" data-name="Градієнт без назви 69" x1="368.97" y1="97.2" x2="494.75" y2="115.92" gradientTransform="translate(-330.37)" gradientUnits="userSpaceOnUse">
      <stop offset="0" stop-color="#c7d1e0"/>
      <stop offset="1" stop-color="#b3cade"/>
    </linearGradient>
    <linearGradient id="Градієнт_без_назви_78" data-name="Градієнт без назви 78" x1="375.45" y1="105.55" x2="475.14" y2="105.55" gradientTransform="translate(-330.37)" gradientUnits="userSpaceOnUse">
      <stop offset="0" stop-color="#6cc0ff"/>
      <stop offset="1" stop-color="#51aee6"/>
    </linearGradient>
    <linearGradient id="Градієнт_без_назви_32" data-name="Градієнт без назви 32" x1="54.22" y1="106.47" x2="141.84" y2="106.47" gradientUnits="userSpaceOnUse">
      <stop offset="0" stop-color="#d7e6f2"/>
      <stop offset="1" stop-color="#dee2f3"/>
    </linearGradient>
    <clipPath id="clip-path" transform="translate(-2.32 -3.8)">
      <polygon points="79.81 161.04 79.63 95.17 169.34 43.37 169.53 109.24 79.81 161.04" style="fill: none"/>
    </clipPath>
    <clipPath id="clip-path-2" transform="translate(-2.32 -3.8)">
      <polygon points="162.24 97.39 162.03 23.25 200.02 1.32 200.23 75.46 162.24 97.39" style="fill: none"/>
    </clipPath>
    <linearGradient id="Градієнт_без_назви_105" data-name="Градієнт без назви 105" x1="168.49" y1="11.44" x2="206.08" y2="124.2" gradientUnits="userSpaceOnUse">
      <stop offset="0" stop-color="#ffec5e"/>
      <stop offset="1" stop-color="#ffce4a"/>
    </linearGradient>
  </defs>
  <title>ui-design</title>
  <g style="isolation: isolate">
    <g id="UI">
      <g>
        <polygon points="8.24 113.5 54.47 140.19 51.8 126.12 43.03 129.96 41.41 118.24 31.11 123.49 28.89 111.58 19.81 117.03 18.37 107.95 8.24 113.5" style="fill: #9dcc4a"/>
        <path d="M49.62,176.78l87.72-50.6a1.58,1.58,0,0,0,0-2.72L93.58,96.56a1.57,1.57,0,0,0-1.57,0L2.93,148c-1.08.59-1.1,2.14,3.07,4.55l45.13,26.07C48.52,177.07,49.13,177.07,49.62,176.78Z" transform="translate(-2.32 -3.8)" style="opacity: 0.33;mix-blend-mode: multiply;fill: url(#Градієнт_без_назви_83)"/>
        <path d="M144.77,35.49l-2.9-1.18h0a1.88,1.88,0,0,0-1.85.07L46,90.21a1.91,1.91,0,0,0-.94,1.65V174.8a1,1,0,0,0,.53.85h0l3,1.38,1.56-3.49,92.81-53.28V39.41l.59.38Z" transform="translate(-2.32 -3.8)" style="fill: url(#Градієнт_без_назви_69)"/>
        <path d="M144.77,35.49l-2.9-1.18h0a1.88,1.88,0,0,0-1.85.07L46,90.21a1.91,1.91,0,0,0-.94,1.65V174.8a1,1,0,0,0,.53.85h0L48.94,177l1.18-3.44,92.81-53.28V39.41l.59.38Z" transform="translate(-2.32 -3.8)" style="fill: url(#Градієнт_без_назви_78)"/>
        <path d="M145.91,120.34a2,2,0,0,1-1,1.75L49.49,176.87a1,1,0,0,1-1.44-.84V93.09A1.93,1.93,0,0,1,49,91.44l94-55.83a1.93,1.93,0,0,1,2.91,1.65Z" transform="translate(-2.32 -3.8)" style="fill: #2a3c67"/>
        <path d="M141.84,119,55.5,168.51a.85.85,0,0,1-1.28-.74V96.05a1.94,1.94,0,0,1,.94-1.66l84.1-49.84A1.71,1.71,0,0,1,141.84,46Z" transform="translate(-2.32 -3.8)" style="fill: url(#Градієнт_без_назви_32)"/>
        <g style="opacity: 0.18;mix-blend-mode: multiply">
          <g style="isolation: isolate">
            <path d="M145.91,49.36,68.58,94a8.14,8.14,0,0,0-3.66,6.36l.17,57.2c0,4.22,3,5.95,6.67,3.84l76.53-44.19" transform="translate(-2.32 -3.8)" style="fill: #2a3c67"/>
          </g>
        </g>
        <polygon points="101.36 176.93 145.97 151.72 139.72 143.96 135.26 157.18 128.87 150.79 123.67 163.21 117.38 157.11 112.43 169.75 105.89 164.07 101.36 176.93" style="fill: #9dcc4a"/>
        <g style="isolation: isolate">
          <g style="clip-path: url(#clip-path)">
            <g>
              <path d="M96.17,142.34c-2.19,1.27-4,.24-4-2.28l-.11-38.22A8.8,8.8,0,0,1,96,95l16-9.26c2.2-1.27,4-.24,4,2.28l.1,38.22a8.79,8.79,0,0,1-4,6.89l-16,9.26m40.91-23.62c-2.2,1.27-4,.24-4-2.28L133,78.22a8.84,8.84,0,0,1,4-6.89l16-9.26c2.2-1.27,4-.24,4,2.28l.11,38.22a8.79,8.79,0,0,1-4,6.89l-16,9.26M167.6,44.38,81.38,94.16a3.85,3.85,0,0,0-1.75,3L79.81,159c0,1.11.79,1.56,1.75,1l86.22-49.78a3.83,3.83,0,0,0,1.74-3l-.17-61.85c0-1.11-.79-1.56-1.75-1" transform="translate(-2.32 -3.8)" style="fill: #f9737a"/>
              <path d="M145.15,90.65l-6,8.75,12-7-6-1.8m6.89-10-6,8.76,6.07,1.83,0-10.59m-14,7.84,0,11,6.27-9.09-6.3-1.9m13.58-8.66-12.8,7.39,6.38,1.93,6.42-9.32m-11.44,34.34c-.77.44-1.39.08-1.4-.8a3.06,3.06,0,0,1,1.39-2.41l9.92-5.73c.77-.44,1.4-.08,1.4.8a3.06,3.06,0,0,1-1.39,2.41l-9.92,5.73M138.4,101c-.78.45-1.41.08-1.41-.81l0-11.5a3.09,3.09,0,0,1,1.41-2.43l13.3-7.68c.78-.45,1.41-.09,1.42.8l0,11.51a3.11,3.11,0,0,1-1.41,2.43L138.4,101M145,73.26c-.62.36-1.22.34-1.55-.13-.5-.7-.21-2.13.65-3.2a3.23,3.23,0,0,1,.89-.79c.62-.36,1.22-.33,1.55.14.51.69.22,2.12-.64,3.18a3,3,0,0,1-.9.8m8-11.19-16,9.26a8.84,8.84,0,0,0-4,6.89l.11,38.22c0,2.52,1.81,3.55,4,2.28l16-9.26a8.79,8.79,0,0,0,4-6.89L157,64.35c0-2.52-1.81-3.55-4-2.28" transform="translate(-2.32 -3.8)" style="fill: #fff"/>
              <path d="M145,69.14a3.23,3.23,0,0,0-.89.79c-.86,1.07-1.15,2.5-.65,3.2.33.47.93.49,1.55.13a3,3,0,0,0,.9-.8c.86-1.06,1.15-2.49.64-3.18-.33-.47-.93-.5-1.55-.14" transform="translate(-2.32 -3.8)" style="fill: #bac2d3"/>
              <path d="M150,105.23,140.12,111a3.06,3.06,0,0,0-1.39,2.41c0,.88.63,1.24,1.4.8l9.92-5.73a3.06,3.06,0,0,0,1.39-2.41c0-.88-.63-1.24-1.4-.8" transform="translate(-2.32 -3.8)" style="fill: #bac2d3"/>
              <path d="M104.35,114l-6,8.76,12-7-6-1.81m6.9-10-6,8.75,6.07,1.83,0-10.58m-14,7.83,0,11,6.27-9.1-6.3-1.9m13.58-8.65L98,110.61l6.38,1.92,6.42-9.31M97.57,138.74c-.77.45-1.4.09-1.4-.8a3.06,3.06,0,0,1,1.39-2.41l9.92-5.72c.77-.45,1.39-.09,1.4.8a3,3,0,0,1-1.4,2.4l-9.91,5.73m0-14.35c-.78.45-1.41.09-1.41-.81l0-11.5a3.11,3.11,0,0,1,1.41-2.43l13.3-7.68c.78-.45,1.41-.09,1.41.81l0,11.49a3.11,3.11,0,0,1-1.41,2.44l-13.3,7.68m4.81-26.55c-.62.35-1.22.33-1.56-.14-.49-.7-.2-2.13.65-3.19a3.21,3.21,0,0,1,.89-.79c.62-.36,1.23-.34,1.56.13.5.7.21,2.13-.64,3.19a3.62,3.62,0,0,1-.9.8m9.66-12.15L96,95a8.8,8.8,0,0,0-4,6.89l.11,38.22c0,2.52,1.81,3.55,4,2.28l16-9.26a8.79,8.79,0,0,0,4-6.89L116.09,88c0-2.52-1.81-3.55-4-2.28" transform="translate(-2.32 -3.8)" style="fill: #fff"/>
              <path d="M102.4,93.72a3.21,3.21,0,0,0-.89.79c-.85,1.06-1.14,2.49-.65,3.19.34.47.94.49,1.56.14a3.62,3.62,0,0,0,.9-.8c.85-1.06,1.14-2.49.64-3.19-.33-.47-.94-.49-1.56-.13" transform="translate(-2.32 -3.8)" style="fill: #f9737a"/>
              <path d="M107.48,129.81l-9.92,5.72a3.06,3.06,0,0,0-1.39,2.41c0,.89.63,1.25,1.4.8l9.91-5.73a3,3,0,0,0,1.4-2.4c0-.89-.63-1.25-1.4-.8" transform="translate(-2.32 -3.8)" style="fill: #f9737a"/>
              <path d="M98.32,122.79l6-8.76,6,1.81-12,7m13-8.17-6.07-1.83,6-8.75,0,10.58m-14,8.25,0-11,6.3,1.9-6.27,9.1m7.13-10.34L98,110.61l12.8-7.39-6.42,9.31M110.87,102l-13.3,7.68a3.11,3.11,0,0,0-1.41,2.43l0,11.5c0,.9.63,1.26,1.41.81l13.3-7.68a3.11,3.11,0,0,0,1.41-2.44l0-11.49c0-.9-.63-1.26-1.41-.81" transform="translate(-2.32 -3.8)" style="fill: #f9c0c6"/>
              <path d="M139.11,99.4l6-8.75,6,1.8-12,7m13-8.16L146,89.41l6-8.76,0,10.59m-14,8.24,0-11,6.3,1.9L138,99.48m7.13-10.33-6.38-1.93,12.8-7.39-6.42,9.32m6.51-10.56-13.3,7.68A3.09,3.09,0,0,0,137,88.7l0,11.5c0,.89.63,1.26,1.41.81l13.3-7.68a3.11,3.11,0,0,0,1.41-2.43l0-11.51c0-.89-.64-1.25-1.42-.8" transform="translate(-2.32 -3.8)" style="fill: #bac2d3"/>
            </g>
          </g>
        </g>
        <g style="opacity: 0.59;mix-blend-mode: multiply">
          <g style="isolation: isolate">
            <g>
              <path d="M138.47,61.36l.16,52.7c0,3.8,2.78,5.33,6.18,3.42l24.68-13.62V44.3Z" transform="translate(-2.32 -3.8)" style="fill: #c48551"/>
              <path d="M173.77,19.57" transform="translate(-2.32 -3.8)" style="fill: #c48551"/>
            </g>
          </g>
        </g>
        <g style="isolation: isolate">
          <g style="clip-path: url(#clip-path-2)">
            <g>
              <path d="M169.33,89.13c-.5.29-.91.06-.91-.52a2,2,0,0,1,.91-1.56L193.1,73.32c.51-.29.92-.06.92.51a2,2,0,0,1-.91,1.57L169.33,89.13M167,31.44c-.4.24-.73,0-.73-.41a1.57,1.57,0,0,1,.73-1.25l6.72-3.88c.39-.23.72,0,.72.41a1.57,1.57,0,0,1-.72,1.25L167,31.44m0-4c-.4.23-.73.05-.73-.42a1.59,1.59,0,0,1,.72-1.25l6.72-3.88c.4-.23.73,0,.73.42a1.59,1.59,0,0,1-.72,1.25L167,27.48m27.37-22.9L167.67,20a12.37,12.37,0,0,0-5.62,9.74l.17,61.17c0,3.58,2.54,5,5.66,3.23l26.71-15.42A12.41,12.41,0,0,0,200.21,69L200,7.81c0-3.58-2.55-5-5.66-3.23" transform="translate(-2.32 -3.8)" style="fill: url(#Градієнт_без_назви_105)"/>
              <path d="M193.1,73.32,169.33,87.05a2,2,0,0,0-.91,1.56c0,.58.41.81.91.52L193.11,75.4a2,2,0,0,0,.91-1.57c0-.57-.41-.8-.92-.51" transform="translate(-2.32 -3.8)" style="fill: #e2a144"/>
              <path d="M181.08,38.09c-5.42,3.13-9.79,10.71-9.77,16.93s4.42,8.73,9.83,5.6,9.79-10.7,9.77-16.92-4.42-8.73-9.83-5.61" transform="translate(-2.32 -3.8)" style="fill: #fff"/>
              <path d="M173.72,21.93,167,25.81a1.59,1.59,0,0,0-.72,1.25c0,.47.33.65.73.42l6.72-3.88a1.59,1.59,0,0,0,.72-1.25c0-.46-.33-.65-.73-.42" transform="translate(-2.32 -3.8)" style="fill: #e2a144"/>
              <path d="M173.74,25.9,167,29.78a1.57,1.57,0,0,0-.73,1.25c0,.46.33.65.73.41l6.72-3.88a1.57,1.57,0,0,0,.72-1.25c0-.46-.33-.64-.72-.41" transform="translate(-2.32 -3.8)" style="fill: #e2a144"/>
            </g>
          </g>
        </g>
      </g>
    </g>
  </g>
</svg>
