<svg xmlns="http://www.w3.org/2000/svg" xmlns:xlink="http://www.w3.org/1999/xlink" viewBox="0 0 187.01 156.54">
  <defs>
    <linearGradient id="Градієнт_без_назви_83" data-name="Градієнт без назви 83" x1="91.32" y1="160.38" x2="91.66" y2="-31.19" gradientUnits="userSpaceOnUse">
      <stop offset="0" stop-color="#a5bdcb"/>
      <stop offset="1" stop-color="#d8e9f4" stop-opacity="0"/>
    </linearGradient>
    <linearGradient id="Градієнт_без_назви_78" data-name="Градієнт без назви 78" x1="14.01" y1="104.15" x2="179.47" y2="104.15" gradientUnits="userSpaceOnUse">
      <stop offset="0" stop-color="#6cc0ff"/>
      <stop offset="1" stop-color="#51aee6"/>
    </linearGradient>
    <linearGradient id="Градієнт_без_назви_31" data-name="Градієнт без назви 31" x1="40.9" y1="64.77" x2="39.16" y2="70.42" gradientUnits="userSpaceOnUse">
      <stop offset="0" stop-color="#9abed8"/>
      <stop offset="1" stop-color="#9abed8" stop-opacity="0.7"/>
    </linearGradient>
    <linearGradient id="Градієнт_без_назви_31-2" x1="41.3" y1="54.21" x2="38.32" y2="62.02" xlink:href="#Градієнт_без_назви_31"/>
    <linearGradient id="Градієнт_без_назви_31-3" x1="40.63" y1="44.12" x2="35.5" y2="52.54" xlink:href="#Градієнт_без_назви_31"/>
    <linearGradient id="Градієнт_без_назви_78-2" x1="56.05" y1="87.82" x2="184.52" y2="87.82" xlink:href="#Градієнт_без_назви_78"/>
    <clipPath id="clip-path" transform="translate(-8.69 -9.03)">
      <polygon points="197.87 68.75 114 20.01 65.05 48.28 148.92 97.02 197.87 68.75" style="fill: none"/>
    </clipPath>
    <linearGradient id="Градієнт_без_назви_105" data-name="Градієнт без назви 105" x1="127.56" y1="35.7" x2="164.59" y2="35.7" gradientUnits="userSpaceOnUse">
      <stop offset="0" stop-color="#ffec5e"/>
      <stop offset="1" stop-color="#ffce4a"/>
    </linearGradient>
  </defs>
  <title>app</title>
  <g style="isolation: isolate">
    <g id="App">
      <path d="M170.41,133.06,66.79,73.24c-4.42-2.56-11.12-2.83-15-.62l-3.17,1.83c-3.75-.37-7.28.09-9.59,1.5a4.75,4.75,0,0,0-2.38,3s0,.1,0,.16,0,.09,0,.14a10.44,10.44,0,0,0-3.59,1.28,4.49,4.49,0,0,0-2.28,3c0,.07,0,.14,0,.21h-.11l-.45.06-.34.08h0c-.23,0-.47.09-.69.15a11.12,11.12,0,0,0-1.87.67,9.08,9.08,0,0,0-.82.44,5.73,5.73,0,0,0-1.64,1.45h0L22.7,89.45,13.07,95c-3.36,1.94-3.4,5.15-.38,7.63l-4,5.27h0l8.53-2.49,100.54,58.05c4.43,2.55,11.12,2.83,15,.62l38.77-22.39C175.32,139.48,174.84,135.62,170.41,133.06Z" transform="translate(-8.69 -9.03)" style="opacity: 0.39;mix-blend-mode: multiply;fill: url(#Градієнт_без_назви_83)"/>
      <path d="M179.47,117.44l-8.07-1.94L73.28,58.78c-4.63-2.67-11.62-3-15.62-.65L18.34,80.83l-4.25-1s-1,7.31,4.16,10.74l102,59c4.62,2.67,11.62,3,15.62.65l40.53-23.4C179.61,124.82,179.47,117.44,179.47,117.44Z" transform="translate(-8.69 -9.03)" style="fill: url(#Градієнт_без_назви_78)"/>
      <path d="M136.07,144.77l40.69-23.49c4-2.32,3.52-6.37-1.13-9L73.17,53c-4.64-2.68-11.66-3-15.68-.65L16.8,75.84c-4,2.32-3.52,6.37,1.13,9l102.46,59.23C125,146.8,132.05,147.09,136.07,144.77Z" transform="translate(-8.69 -9.03)" style="fill: #2a3c67"/>
      <path d="M32.11,84.05,73.38,60.23a2.2,2.2,0,0,1,2.22,0l80.5,46.55a1.85,1.85,0,0,1,0,3.2L114.84,133.8a2.22,2.22,0,0,1-2.23,0L32.11,87.26A1.86,1.86,0,0,1,32.11,84.05Z" transform="translate(-8.69 -9.03)" style="fill: #ffe269"/>
      <path d="M142.27,129.5c3.44,2,8.65,2.21,11.64.49s2.61-4.73-.84-6.72-8.65-2.21-11.64-.48S138.83,127.52,142.27,129.5Z" transform="translate(-8.69 -9.03)" style="fill: #7f99c6"/>
      <path d="M46.25,75.54l-.58-.32a5.41,5.41,0,0,0-4.85.32L36,78.49c-6-2.34-13-2.53-16.8-.22a4.73,4.73,0,0,0-2.37,3,.9.9,0,0,0,0,.16.77.77,0,0,1,0,.15,12.38,12.38,0,0,0-1.93.5l3,2.08C20.48,86,24,88.41,25.05,89c3.47,2.11,6.8,3.93,9.94,5.49a9.9,9.9,0,0,0,.87-.71c0-.06.12-.11.18-.17s.21-.26.3-.39l.15-.19a3,3,0,0,0,.24-.47l0,0,.76-.07h0a14.2,14.2,0,0,0,1.65-.27h0L40,92l.1,0a10.19,10.19,0,0,0,2.37-1c2.74-1.67,3.13-4.25,1.46-6.81a7.48,7.48,0,0,0-.56-.77,12.64,12.64,0,0,0-2.2-2.08l4.84-3C47.38,77.49,47.51,76.23,46.25,75.54Z" transform="translate(-8.69 -9.03)" style="fill: #c48551;opacity: 0.30000000000000004;mix-blend-mode: multiply"/>
      <rect x="31.61" y="57.95" width="7.12" height="12.41" rx="3.49" ry="3.49" style="fill: #5b5b2e"/>
      <ellipse cx="35.17" cy="51.7" rx="16.07" ry="9.78" style="fill: #c6cc48"/>
      <path d="M58,56.11C55.31,53,50,51,43.86,51c-.55,0-1.09,0-1.62,0l-.6,0c-.33,0-.66.05-1,.09l-.73.11-.79.13q-.41.07-.81.18c-.21,0-.43.08-.64.14s-.59.16-.88.25-.34.09-.5.15c-.32.1-.63.22-.93.33l-.37.14c-.33.13-.65.28-1,.42l-.25.12c-.34.16-.66.34-1,.52l-.15.08c-.33.2-.65.4-.95.62l-.07.05a10.75,10.75,0,0,0-.9.7h0a7.67,7.67,0,0,0-2.92,5.29h0c0,.12,0,.23,0,.35,0,5.41,7.2,9.79,16.07,9.79.4,0,.8,0,1.2,0-2.77-1.11-4.7-2.93-5.11-5,.66.06,1.34.09,2,.09C50.66,65.54,57.71,61.34,58,56.11Z" transform="translate(-8.69 -9.03)" style="opacity: 0.7000000000000001;mix-blend-mode: multiply;fill: url(#Градієнт_без_назви_31)"/>
      <ellipse cx="41.89" cy="47.96" rx="16.07" ry="9.78" style="fill: none"/>
      <ellipse cx="35.17" cy="43.28" rx="14.92" ry="9.21" style="fill: #c6cc48"/>
      <path d="M56.88,47.82c-2.55-2.82-7.42-4.73-13-4.73-.51,0-1,0-1.51,0l-.58,0c-.3,0-.6.05-.89.09l-.7.11-.72.11c-.27,0-.52.12-.78.18l-.57.13c-.3.07-.58.16-.87.25l-.42.13c-.31.1-.61.22-.91.33l-.31.12c-.32.13-.63.27-.94.42l-.19.09c-.33.17-.64.34-.95.52l-.09.06a10.73,10.73,0,0,0-.93.62h0A7.63,7.63,0,0,0,29,52.09h0c0,.07,0,.14,0,.22,0,5.08,6.67,9.2,14.9,9.21-2.4-1.16-4.07-2.89-4.47-4.85a24.74,24.74,0,0,0,2.61.15C50.1,56.82,56.7,52.81,56.88,47.82Z" transform="translate(-8.69 -9.03)" style="opacity: 0.7000000000000001;mix-blend-mode: multiply;fill: url(#Градієнт_без_назви_31-2)"/>
      <path d="M57.53,41.08h0L43.86,9,30.18,41.08h0a6.35,6.35,0,0,0-.54,2.5c0,5.09,6.36,9.21,14.21,9.21s14.21-4.12,14.21-9.21A6.18,6.18,0,0,0,57.53,41.08Z" transform="translate(-8.69 -9.03)" style="fill: #c6cc48"/>
      <path d="M54.42,47.68c-7.66,1.72-14.77-.91-15.89-5.87a6.31,6.31,0,0,1,0-2.56h0L44,9.39,43.86,9,30.18,41.08h0a6.35,6.35,0,0,0-.54,2.5c0,5.09,6.36,9.21,14.21,9.21,6,0,11.2-2.45,13.25-5.9A22.67,22.67,0,0,1,54.42,47.68Z" transform="translate(-8.69 -9.03)" style="opacity: 0.7000000000000001;mix-blend-mode: multiply;fill: url(#Градієнт_без_назви_31-3)"/>
      <g style="opacity: 0.34;mix-blend-mode: multiply">
        <path d="M48.67,98l41.5-24a8.19,8.19,0,0,1,7.42,0l76.47,44.44c2,1.19,2,3.12,0,4.3l-41.5,24a8.18,8.18,0,0,1-7.43,0L48.64,102.34c-2-1.19-2-3.12,0-4.31" transform="translate(-8.69 -9.03)" style="fill: #b7703b"/>
      </g>
      <g style="isolation: isolate">
        <g>
          <path d="M170.81,95.39l-5,2.9a2.33,2.33,0,0,1-2.12,0,.65.65,0,0,1,0-1.23l5-2.9a2.33,2.33,0,0,1,2.12,0,.65.65,0,0,1,0,1.22m-9.35,5.4-26.84,15.49a2.33,2.33,0,0,1-2.12,0c-.59-.34-.58-.89,0-1.23l26.84-15.5a2.36,2.36,0,0,1,2.12,0,.65.65,0,0,1,0,1.23m3.35-8.88L150,100.48a2.33,2.33,0,0,1-2.12,0,.65.65,0,0,1,0-1.23l14.85-8.57a2.31,2.31,0,0,1,2.11,0,.65.65,0,0,1,0,1.23m-21,12.12-15.19,8.77a2.35,2.35,0,0,1-2.13,0c-.58-.34-.57-.89,0-1.23l15.19-8.77a2.33,2.33,0,0,1,2.12,0,.65.65,0,0,1,0,1.23m15-15.6-5,2.9a2.35,2.35,0,0,1-2.13,0,.65.65,0,0,1,0-1.23l5-2.9a2.33,2.33,0,0,1,2.12,0,.65.65,0,0,1,0,1.23m-9.34,5.39-26.84,15.5a2.33,2.33,0,0,1-2.12,0,.65.65,0,0,1,0-1.23l26.84-15.5a2.33,2.33,0,0,1,2.12,0c.59.33.59.88,0,1.22M152.83,85l-21,12.11a2.33,2.33,0,0,1-2.12,0,.65.65,0,0,1,0-1.23l21-12.12a2.33,2.33,0,0,1,2.12,0,.65.65,0,0,1,0,1.23m-27.31,15.77-8.87,5.12a2.33,2.33,0,0,1-2.12,0,.65.65,0,0,1,0-1.23l8.87-5.12a2.33,2.33,0,0,1,2.12,0,.65.65,0,0,1,0,1.23m21.32-19.25L119.53,97.24a2.35,2.35,0,0,1-2.13,0,.66.66,0,0,1,0-1.24l27.31-15.76a2.33,2.33,0,0,1,2.12,0,.65.65,0,0,1,0,1.23m-32.46,18.74-3.72,2.15a2.35,2.35,0,0,1-2.13,0,.66.66,0,0,1,0-1.24L112.26,99a2.35,2.35,0,0,1,2.13,0,.65.65,0,0,1,0,1.23M140.85,78l-5,2.9a2.33,2.33,0,0,1-2.12,0,.65.65,0,0,1,0-1.23l5-2.9a2.33,2.33,0,0,1,2.12,0c.59.34.58.88,0,1.22M126,86.55,104.66,98.87a2.31,2.31,0,0,1-2.11,0,.65.65,0,0,1,0-1.23l21.34-12.32a2.35,2.35,0,0,1,2.13,0c.58.34.57.88,0,1.22m8.86-12-21,12.12a2.33,2.33,0,0,1-2.12,0c-.59-.34-.58-.89,0-1.23l21-12.11a2.31,2.31,0,0,1,2.11,0,.64.64,0,0,1,0,1.22M107.55,90.27l-8.87,5.12a2.35,2.35,0,0,1-2.13,0,.65.65,0,0,1,0-1.22l8.87-5.12a2.33,2.33,0,0,1,2.12,0,.65.65,0,0,1,0,1.22M128.86,71l-5,2.9a2.33,2.33,0,0,1-2.12,0,.65.65,0,0,1,0-1.23l5-2.9a2.33,2.33,0,0,1,2.12,0c.58.34.58.88,0,1.22m-9.34,5.39-11.64,6.73a2.33,2.33,0,0,1-2.12,0,.65.65,0,0,1,0-1.23l11.64-6.72a2.33,2.33,0,0,1,2.12,0c.58.34.58.88,0,1.22m-18,10.38-8.87,5.12a2.33,2.33,0,0,1-2.12,0,.65.65,0,0,1,0-1.23l8.87-5.12a2.33,2.33,0,0,1,2.12,0c.58.33.58.88,0,1.22m21.33-19.25-9.34,5.39a2.35,2.35,0,0,1-2.13,0,.65.65,0,0,1,0-1.22l9.34-5.4a2.33,2.33,0,0,1,2.12,0,.65.65,0,0,1,0,1.23M108,76.11,86.69,88.43a2.33,2.33,0,0,1-2.12,0,.65.65,0,0,1,0-1.23l21.34-12.32a2.33,2.33,0,0,1,2.12,0,.65.65,0,0,1,0,1.23m8.86-12-21,12.12a2.33,2.33,0,0,1-2.12,0,.65.65,0,0,1,0-1.23l21-12.12a2.33,2.33,0,0,1,2.12,0,.65.65,0,0,1,0,1.23M89.58,79.83,80.71,85a2.35,2.35,0,0,1-2.13,0,.65.65,0,0,1,0-1.23l8.87-5.12a2.33,2.33,0,0,1,2.12,0,.65.65,0,0,1,0,1.23m16.29-16.35-31.16,18a2.33,2.33,0,0,1-2.12,0c-.59-.34-.58-.89,0-1.23l31.16-18a2.31,2.31,0,0,1,2.11,0,.65.65,0,0,1,0,1.23M57.6,75.42c-2.06,1.19-2.06,3.12,0,4.31L134,124.16a8.21,8.21,0,0,0,7.43,0l41.5-24c2.06-1.19,2.06-3.12,0-4.3L106.52,51.47a8.19,8.19,0,0,0-7.42,0l-41.5,24" transform="translate(-8.69 -9.03)" style="fill: url(#Градієнт_без_назви_78-2)"/>
          <path d="M72.6,80.24l31.16-18a2.31,2.31,0,0,1,2.11,0,.65.65,0,0,1,0,1.23l-31.16,18a2.33,2.33,0,0,1-2.12,0c-.59-.34-.58-.89,0-1.23" transform="translate(-8.69 -9.03)" style="fill: #fff"/>
          <path d="M93.78,75l21-12.12a2.33,2.33,0,0,1,2.12,0,.65.65,0,0,1,0,1.23l-21,12.12a2.33,2.33,0,0,1-2.12,0,.65.65,0,0,1,0-1.23" transform="translate(-8.69 -9.03)" style="fill: #fff"/>
          <path d="M78.59,83.72l8.87-5.12a2.33,2.33,0,0,1,2.12,0,.65.65,0,0,1,0,1.23L80.71,85a2.35,2.35,0,0,1-2.13,0,.65.65,0,0,1,0-1.23" transform="translate(-8.69 -9.03)" style="fill: #fff"/>
          <path d="M111.42,71.71l9.34-5.4a2.33,2.33,0,0,1,2.12,0,.65.65,0,0,1,0,1.23l-9.34,5.39a2.35,2.35,0,0,1-2.13,0,.65.65,0,0,1,0-1.22" transform="translate(-8.69 -9.03)" style="fill: #fff"/>
          <path d="M84.58,87.2l21.34-12.32a2.33,2.33,0,0,1,2.12,0,.65.65,0,0,1,0,1.23L86.69,88.43a2.33,2.33,0,0,1-2.12,0,.65.65,0,0,1,0-1.23" transform="translate(-8.69 -9.03)" style="fill: #fff"/>
          <path d="M121.73,72.69l5-2.9a2.33,2.33,0,0,1,2.12,0c.58.34.58.88,0,1.22l-5,2.9a2.33,2.33,0,0,1-2.12,0,.65.65,0,0,1,0-1.23" transform="translate(-8.69 -9.03)" style="fill: #fff"/>
          <path d="M105.77,81.91l11.64-6.72a2.33,2.33,0,0,1,2.12,0c.58.34.58.88,0,1.22l-11.64,6.73a2.33,2.33,0,0,1-2.12,0,.65.65,0,0,1,0-1.23" transform="translate(-8.69 -9.03)" style="fill: #fff"/>
          <path d="M90.57,90.68l8.87-5.12a2.33,2.33,0,0,1,2.12,0c.58.33.58.88,0,1.22l-8.87,5.12a2.33,2.33,0,0,1-2.12,0,.65.65,0,0,1,0-1.23" transform="translate(-8.69 -9.03)" style="fill: #fff"/>
          <path d="M111.76,85.39l21-12.11a2.31,2.31,0,0,1,2.11,0,.64.64,0,0,1,0,1.22l-21,12.12a2.33,2.33,0,0,1-2.12,0c-.59-.34-.58-.89,0-1.23" transform="translate(-8.69 -9.03)" style="fill: #fff"/>
          <path d="M96.56,94.17l8.87-5.12a2.33,2.33,0,0,1,2.12,0,.65.65,0,0,1,0,1.22l-8.87,5.12a2.35,2.35,0,0,1-2.13,0,.65.65,0,0,1,0-1.22" transform="translate(-8.69 -9.03)" style="fill: #fff"/>
          <path d="M133.71,79.66l5-2.9a2.33,2.33,0,0,1,2.12,0c.59.34.58.88,0,1.22l-5,2.9a2.33,2.33,0,0,1-2.12,0,.65.65,0,0,1,0-1.23" transform="translate(-8.69 -9.03)" style="fill: #fff"/>
          <path d="M102.55,97.65l21.34-12.32a2.35,2.35,0,0,1,2.13,0c.58.34.57.88,0,1.22L104.66,98.87a2.31,2.31,0,0,1-2.11,0,.65.65,0,0,1,0-1.23" transform="translate(-8.69 -9.03)" style="fill: #fff"/>
          <path d="M117.41,96l27.31-15.76a2.33,2.33,0,0,1,2.12,0,.65.65,0,0,1,0,1.23L119.53,97.24a2.35,2.35,0,0,1-2.13,0,.66.66,0,0,1,0-1.24" transform="translate(-8.69 -9.03)" style="fill: #fff"/>
          <path d="M108.54,101.12,112.26,99a2.35,2.35,0,0,1,2.13,0,.65.65,0,0,1,0,1.23l-3.72,2.15a2.35,2.35,0,0,1-2.13,0,.66.66,0,0,1,0-1.24" transform="translate(-8.69 -9.03)" style="fill: #fff"/>
          <path d="M129.73,95.84l21-12.12a2.33,2.33,0,0,1,2.12,0,.65.65,0,0,1,0,1.23l-21,12.11a2.33,2.33,0,0,1-2.12,0,.65.65,0,0,1,0-1.23" transform="translate(-8.69 -9.03)" style="fill: #fff"/>
          <path d="M114.53,104.61l8.87-5.12a2.33,2.33,0,0,1,2.12,0,.65.65,0,0,1,0,1.23l-8.87,5.12a2.33,2.33,0,0,1-2.12,0,.65.65,0,0,1,0-1.23" transform="translate(-8.69 -9.03)" style="fill: #fff"/>
          <path d="M151.68,90.1l5-2.9a2.33,2.33,0,0,1,2.12,0,.65.65,0,0,1,0,1.23l-5,2.9a2.35,2.35,0,0,1-2.13,0,.65.65,0,0,1,0-1.23" transform="translate(-8.69 -9.03)" style="fill: #fff"/>
          <path d="M120.52,108.09l26.84-15.5a2.33,2.33,0,0,1,2.12,0c.59.33.59.88,0,1.22l-26.84,15.5a2.33,2.33,0,0,1-2.12,0,.65.65,0,0,1,0-1.23" transform="translate(-8.69 -9.03)" style="fill: #fff"/>
          <path d="M147.85,99.25l14.85-8.57a2.31,2.31,0,0,1,2.11,0,.65.65,0,0,1,0,1.23L150,100.48a2.33,2.33,0,0,1-2.12,0,.65.65,0,0,1,0-1.23" transform="translate(-8.69 -9.03)" style="fill: #fff"/>
          <path d="M126.52,111.57l15.19-8.77a2.33,2.33,0,0,1,2.12,0,.65.65,0,0,1,0,1.23l-15.19,8.77a2.35,2.35,0,0,1-2.13,0c-.58-.34-.57-.89,0-1.23" transform="translate(-8.69 -9.03)" style="fill: #fff"/>
          <path d="M163.66,97.06l5-2.9a2.33,2.33,0,0,1,2.12,0,.65.65,0,0,1,0,1.22l-5,2.9a2.33,2.33,0,0,1-2.12,0,.65.65,0,0,1,0-1.23" transform="translate(-8.69 -9.03)" style="fill: #fff"/>
          <path d="M132.51,115.05l26.84-15.5a2.36,2.36,0,0,1,2.12,0,.65.65,0,0,1,0,1.23l-26.84,15.49a2.33,2.33,0,0,1-2.12,0c-.59-.34-.58-.89,0-1.23" transform="translate(-8.69 -9.03)" style="fill: #fff"/>
        </g>
      </g>
      <g style="opacity: 0.31;mix-blend-mode: multiply">
        <path d="M66.9,58.38,92,43.9l84.64,48.3-25.84,14.93a8.26,8.26,0,0,1-7.44,0L66.88,62.69c-2-1.19-2-3.12,0-4.31" transform="translate(-8.69 -9.03)" style="fill: #2a3c67"/>
      </g>
      <g style="isolation: isolate">
        <g style="clip-path: url(#clip-path)">
          <g>
            <path d="M182.94,67.31l-3.32,1.92a2,2,0,0,1-1.8,0l-3.3-1.91a.55.55,0,0,1,0-1l3.32-1.92a2,2,0,0,1,1.8,0l3.3,1.92a.55.55,0,0,1,0,1M164,78.24a5.65,5.65,0,0,1-5.11,0c-1.41-.82-1.4-2.14,0-3a5.61,5.61,0,0,1,5.11,0c1.4.82,1.4,2.14,0,3m-14.75,8.88a1.54,1.54,0,0,1-.51.15l-5.35.54c-.63.07-1.2-.26-1.08-.63l1-3.1a.59.59,0,0,1,.26-.29,1.45,1.45,0,0,1,1.33,0l4.4,2.55c.38.23.34.57,0,.78M84,47.92l-6.12,3.53a.32.32,0,0,1-.27,0l-1.14-.67c-.08,0-.07-.11,0-.15l6.12-3.53a.29.29,0,0,1,.27,0l1.14.66c.07,0,.07.11,0,.16m-2.82-1.64L75,49.81a.3.3,0,0,1-.26,0l-1.15-.67c-.07,0-.08-.11,0-.15l6.12-3.53a.3.3,0,0,1,.26,0l1.15.66a.09.09,0,0,1,0,.16m-12.37-.16c-2.06,1.19-2.07,3.12,0,4.31L86.9,61l48.95-28.26,21.85,12.7L108.75,73.67l36.47,21.2a8.21,8.21,0,0,0,7.43,0l41.5-24c2-1.18,2.07-3.11,0-4.3L117.7,22.16a8.22,8.22,0,0,0-7.42,0l-41.5,24" transform="translate(-8.69 -9.03)" style="fill: #f9737a"/>
            <path d="M143.54,83.79a1.45,1.45,0,0,1,1.33,0l4.4,2.55c.38.23.34.57,0,.78a1.54,1.54,0,0,1-.51.15l-5.35.54c-.63.07-1.2-.26-1.08-.63l1-3.1a.59.59,0,0,1,.26-.29" transform="translate(-8.69 -9.03)" style="fill: #fff"/>
            <path d="M158.91,75.28a5.61,5.61,0,0,1,5.11,0c1.4.82,1.4,2.14,0,3a5.65,5.65,0,0,1-5.11,0c-1.41-.82-1.4-2.14,0-3" transform="translate(-8.69 -9.03)" style="fill: #fff"/>
            <path d="M174.52,66.27l3.32-1.92a2,2,0,0,1,1.8,0l3.3,1.92a.55.55,0,0,1,0,1l-3.32,1.92a2,2,0,0,1-1.8,0l-3.3-1.91a.55.55,0,0,1,0-1" transform="translate(-8.69 -9.03)" style="fill: #fff"/>
            <path d="M73.62,49l6.12-3.53a.3.3,0,0,1,.26,0l1.15.66a.09.09,0,0,1,0,.16L75,49.81a.3.3,0,0,1-.26,0l-1.15-.67c-.07,0-.08-.11,0-.15" transform="translate(-8.69 -9.03)" style="fill: #fff"/>
            <path d="M76.44,50.63l6.12-3.53a.29.29,0,0,1,.27,0l1.14.66c.07,0,.07.11,0,.16l-6.12,3.53a.32.32,0,0,1-.27,0l-1.14-.67c-.08,0-.07-.11,0-.15" transform="translate(-8.69 -9.03)" style="fill: #fff"/>
            <polyline points="78.2 51.94 127.16 23.68 149.01 36.38 100.06 64.64 78.2 51.94" style="fill: #fc97a1"/>
          </g>
        </g>
      </g>
      <path d="M125.67,55.83l12.09,7.08a8.19,8.19,0,0,0,8.18,0l12.58-7.19a4.19,4.19,0,0,0,.1-7.21l-12-7.34a8.18,8.18,0,0,0-8.43,0l-12.51,7.45A4.19,4.19,0,0,0,125.67,55.83Z" transform="translate(-8.69 -9.03)" style="fill: #d10f55;opacity: 0.34;mix-blend-mode: multiply"/>
      <path d="M129.63,39.5l12.1,7.08a8.19,8.19,0,0,0,8.18.05l12.57-7.19a4.19,4.19,0,0,0,.11-7.21l-12-7.34a8.16,8.16,0,0,0-8.43-.05l-12.51,7.45A4.19,4.19,0,0,0,129.63,39.5Z" transform="translate(-8.69 -9.03)" style="fill: url(#Градієнт_без_назви_105)"/>
    </g>
  </g>
</svg>
