<svg xmlns="http://www.w3.org/2000/svg" xmlns:xlink="http://www.w3.org/1999/xlink" viewBox="0 0 539.49 591">
  <defs>
    <style>
      .cls-1 {
        fill: none;
      }

      .cls-2 {
        clip-path: url(#clip-path);
      }

      .cls-3 {
        fill: #f44a5a;
      }

      .cls-4 {
        fill: #151823;
      }

      .cls-5 {
        fill: #1e1713;
      }

      .cls-6 {
        fill: #f9e1d9;
      }

      .cls-7 {
        fill: #fff;
      }

      .cls-8 {
        fill: #282f3f;
      }

      .cls-9 {
        fill: #e2817a;
      }

      .cls-10 {
        fill: #423b35;
      }

      .cls-11 {
        fill: #312823;
      }

      .cls-12 {
        fill: #3d231b;
      }
    </style>
    <clipPath id="clip-path">
      <rect class="cls-1" width="539.49" height="532" rx="266"/>
    </clipPath>
  </defs>
  <g id="Layer_2" data-name="Layer 2">
    <g id="Avatars">
      <g class="cls-2">
        <g>
          <rect class="cls-3" width="539.49" height="532" rx="266"/>
          <path class="cls-4" d="M448,493.45a127.8,127.8,0,0,0-79.53-108.87l-90-36.38-22.29-.27a169.24,169.24,0,0,0-105.89,35.6l-41.55,32.29a127.86,127.86,0,0,0-47.95,81.87L46.72,591H453.33Z"/>
          <path class="cls-5" d="M226.06,256.15a5.11,5.11,0,0,0,5.16,5.05h4.68a5.11,5.11,0,0,0,5.16-5.05V226.83c0-41.34,34.27-74.85,76.53-74.85s76.53,33.51,76.53,74.85v18.44a5.18,5.18,0,0,0,9,3.37,5,5,0,0,0,1.25-2.54c12.07-89.69-11.63-116.89-11.63-116.89-6.05-5.91-41.29-39.15-94.05-37.4-7.22.24-49.78,1.66-76.13,30.13-2.77,3-8.59,13.74-20.15,35.31-14.62,27.28-18.1,37.64-15.37,47.79a127.26,127.26,0,0,0,6.42,16.62,105.45,105.45,0,0,0,7.45,13.93C204.13,240.37,211.23,249.12,226.06,256.15Z"/>
          <path class="cls-5" d="M268,110.16a34.27,34.27,0,0,1-6.72,14.35C253,135,238.45,138.37,226.87,137.17c-2.71-.28-23.23-2.39-30.34-18.52-7.62-17.26,7.32-34.28,8.78-35.89,14.42-15.93,42.29-20.16,53.63-9.51,5.55,5.22,7.29,14.16,8.65,21.16C268.43,98.74,269.36,103.76,268,110.16Z"/>
          <path class="cls-6" d="M276.76,500h0c-30.79,0-64-84-64-114.75V249.5a29.5,29.5,0,0,1,29.5-29.5h84.5V385.25C326.76,416,307.55,500,276.76,500Z"/>
          <path class="cls-7" d="M218.89,402s26.62,22.81,52.76,21.38,56.55-15.21,56.55-15.21L298.26,479.9s-29.94,11.88-35.17,8.55-31.84-41.35-31.84-41.35Z"/>
          <path class="cls-8" d="M384.05,384c-7.58-6.52-18.53-14.83-26.29-16a47.57,47.57,0,0,0-7-1c-6.91,3.73-16.34,6.73-24,8.36V378l-2.42,23.93a74.93,74.93,0,0,1-6.33,21.2l-23.9,48a23.53,23.53,0,0,1-17.37,13,23,23,0,0,1-24.07-12.5l-24.14-48.52c-.83-2-2.34-5.67-3.95-10.37-5.36-15.58-10.42-29.68-10.79-46.69-.27-11.94-.9-16.75-1.07-23.88-.09-3.61-8.72,1.4-10.93,2.26-25,9.68-55.33,21.44-53.71,38,.31,3.08,2,9.77,14.31,17.08l19.37,17a129.33,129.33,0,0,1,27,33L241.06,506a37.34,37.34,0,0,0,32.7,18.81h0a37.33,37.33,0,0,0,32.28-19l31.76-56.3a129.08,129.08,0,0,1,27-33l19.37-17A10.27,10.27,0,0,0,384.05,384Z"/>
          <path class="cls-9" d="M230.84,316.54c6,16.84,25.91,69.07,58.39,86.84,5.13,2.81,14.15,7.57,22.81,4.28,14.2-5.4,16-28.08,16.18-30l7.54-53.6S276.85,309,262.94,309,230.84,316.54,230.84,316.54Z"/>
          <path class="cls-6" d="M308.78,370.67l1.33,2.66c-27.23-4.76-55-19.33-70.4-40.36a83.07,83.07,0,0,1-16.22-52.27l3.36-96c1.41-40.25,36.37-71.7,78.09-70.24l25.8.9c3.82-.26,33.22-1.78,55,21.63,20.77,22.31,18.39,49.79,18,53.9l-3.36,96C396.44,326,363.88,370.9,308.78,370.67Z"/>
          <path class="cls-5" d="M413.27,181.15c-.63-3-3.43-9.23-9-21.7-9.95-22.18-14.25-28-16.63-30.93A80.77,80.77,0,0,0,372,113.63c-18.55-13.06-40.16-11.6-61.84-10.81-20.82.76-41.39,1.69-59.93,16-8.51,6.54-14,14.76-19.4,24l-5.32,17.57-10.79,47c-.28,5.08-.3,8.23-.3,8.23l.3-.43v20.73c4.3,2.39,6.37,1.29,8,5.83l6,13.6,19,12.63c-2.89-5.23-16-30.26-6.17-58.81a70.58,70.58,0,0,1,18.18-28c-1.45-3.65-5-14-.9-25.54,5.52-15.55,20.87-21.7,25.49-23.28,15.4-5.3,20.77,2.59,49.19,4.15,27.48,1.51,34.35-5.22,46,1,7.41,4,16.67,13.2,20.67,37.58l5.56,46.27C416,202.21,414.77,188.22,413.27,181.15Z"/>
          <path class="cls-10" d="M329.76,346.56h0a16,16,0,0,1,16,16V364a11,11,0,0,1-11,11h-10a11,11,0,0,1-11-11v-1.42A16,16,0,0,1,329.76,346.56Z"/>
          <rect class="cls-1" width="539.49" height="532" rx="266"/>
          <path class="cls-11" d="M389.42,302.84q-1.21,2.57-2.55,5.09c-3.06,5.8-7.48,12-14,12.62-5.45.54-10.32-3-15.08-5.73-11.29-6.46-24.84-8.42-37.6-6.29a58.6,58.6,0,0,0-19.38,6.82c-5.51,3.14-9.63,8.83-16.33,8.82-26.65-.06-29.61-40.73-37.7-58.17-1-2.25.3-.3-1.95-.83L224.76,249l-1,35a86.59,86.59,0,0,0,2.4,19.92c4.32,18,13.33,29.88,17.92,35.81,9.47,12.2,39.8,51.32,77.71,46.33,25.59-3.36,43-25.31,54-39a120.35,120.35,0,0,0,25.85-87.6C400.07,266.1,395,291.19,389.42,302.84Z"/>
          <path class="cls-6" d="M186.76,262c0,17.53,15.09,32,34.79,34.6a5.53,5.53,0,0,0,6.21-5.51V234.31a6.75,6.75,0,0,0-7.8-6.68C201.05,230.74,186.76,245,186.76,262Z"/>
          <path class="cls-9" d="M339.35,288.83l-2.68,1.66a9.72,9.72,0,0,1-10.4,0l-2.68-1.66c-4-2.48-6.35-7.54-5.92-12.83l2.69-33.14c.54-6.72,5.35-11.86,11.11-11.86h0c5.76,0,10.57,5.14,11.11,11.86L345.27,276C345.69,281.29,343.36,286.35,339.35,288.83Z"/>
          <path class="cls-9" d="M201.32,262.72a17.94,17.94,0,0,0,6.81,14.09,6.94,6.94,0,0,0,11.16-5.54V254.18a6.94,6.94,0,0,0-11.16-5.55A17.94,17.94,0,0,0,201.32,262.72Z"/>
          <rect id="SVGID" class="cls-1" width="539.49" height="532" rx="266"/>
          <path class="cls-12" d="M338.9,137.52c14.68-.75,41-2.1,43.48-11.77,2.75-10.69-25.12-25.52-29.23-27.7C322.64,81.82,293.65,85.36,281.87,87c-13.06,1.78-32.42,4.42-35.65,15.23-2.64,8.83,6.86,18.42,7.84,19.39,6.93,6.83,15.14,8.15,32.08,10.39C316.09,135.94,331.06,137.92,338.9,137.52Z"/>
        </g>
      </g>
    </g>
  </g>
</svg>
