<svg xmlns="http://www.w3.org/2000/svg" xmlns:xlink="http://www.w3.org/1999/xlink" viewBox="0 0 539.49 591">
  <defs>
    <style>
      .cls-1 {
        fill: none;
      }

      .cls-2 {
        clip-path: url(#clip-path);
      }

      .cls-3 {
        fill: #f44a5a;
      }

      .cls-4 {
        fill: #151823;
      }

      .cls-5 {
        fill: #101623;
      }

      .cls-6 {
        fill: #0f0f0f;
      }

      .cls-7 {
        fill: #f4beb0;
      }

      .cls-8 {
        fill: #d67572;
      }

      .cls-9 {
        fill: #f7bdad;
      }

      .cls-10 {
        fill: #c5c8d3;
      }
    </style>
    <clipPath id="clip-path">
      <rect id="SVGID" class="cls-1" width="539.49" height="532" rx="266"/>
    </clipPath>
  </defs>
  <g id="Layer_2" data-name="Layer 2">
    <g id="Layer_1-2" data-name="Layer 1">
      <g>
        <g class="cls-2">
          <rect class="cls-3" width="539.49" height="532" rx="266"/>
          <path class="cls-4" d="M448.37,493.45a127.81,127.81,0,0,0-79.54-108.87l-75.77-30.64A81.2,81.2,0,0,0,263.58,348l-7-.09a169.24,169.24,0,0,0-105.89,35.6l-41.56,32.29A127.8,127.8,0,0,0,61.2,497.69L47.13,591H453.74Z"/>
          <g>
            <path class="cls-5" d="M318.36,448.19l-.2.16C315.55,450.45,316.93,449.5,318.36,448.19Z"/>
            <path class="cls-6" d="M364.83,373.38c-.65-1.06-1.23-2.16-1.8-3.26-6.56-12.68-10.58-33.42-24.44-37.06l-92.19.71-15.21-.95c-5.83,2-23.09-5.19-32.8,3.81-4.44,4.11-17.06,19.6-20.74,24.45-3.07,4-4.65,5.39-3.48,9.7a183.32,183.32,0,0,0,14.12,37c11.72,22.93,22.52,44,33.59,54.54,3.7-3,17.08-12.48,24.9-14.89s7.56-.55,17-1.67c17.28-2,19.58-7.53,30.28-7.91,7.06-.25,25.87,8.37,38.58,19.1a238.34,238.34,0,0,0,44.85-68.33C374.92,384.47,367.37,377.52,364.83,373.38Z"/>
          </g>
          <g>
            <path class="cls-7" d="M242.68,220c-16.3,0-29.5,12.18-29.5,27.21l6.36,110.09c6.36,29.24,42.54,88.68,52,90.1s50.07-48.86,55.6-75V220Z"/>
            <path class="cls-8" d="M246.9,313.89a14.72,14.72,0,0,0-11.71,21.23c11.2,22.35,25.77,50.3,43.23,64.36,6.14,5,15,4.11,22,3.75,11.06-.57,20.21-9.45,21.86-21.24l7.54-53.6S270.92,313.31,257,313.31A98.37,98.37,0,0,0,246.9,313.89Z"/>
            <path class="cls-7" d="M379,152.11c-21.86-21.1-49.94-15.42-53.76-15.19L299.5,136c-41.69-1.46-76.51,26.66-77.78,62.81l-3,86.2a69.38,69.38,0,0,0,13.93,43.81c.57.89,1.15,1.75,1.76,2.6,3.24,4.56,8.53,11.42,37.48,32.41,14.24,10.32,21.46,15.52,26.44,17.26s26.5,8.5,44.91-2.14c2.25-1.31,5.4-3.41,19.83-22.22,15.23-19.84,22.6-29.87,26.35-38.15,6-13.32,9-28.33,6.58-42.69l2.48-70.9C398.89,201.32,399.88,172.22,379,152.11Z"/>
            <path class="cls-6" d="M398.68,154.22c-4.36-14.77-20.56-23.88-32.44-33-26.24-20.15-54.42-21.6-64.86-21.81-43.09-.86-65.91,20.91-72.92,26.92-7.35,6.29-16.09,11.53-23.89,29.22-8.53,19.38-2.13,44.92-.35,89.83.19,4.92-3.5,17.81,1.42,18.58a5.4,5.4,0,0,0,3.31-.76c.71,2.14-.1-.8,2.09,2.24,1.63,2.27,5.62-8.55,6.79-4.95l.88.82a7.69,7.69,0,0,0,12.93-5.41v-.24c.08-2.54.11-4.9.11-7.2,0-10.39-3.73-23.87,3.28-31,4.49-4.57,4.41-6.87,5.78-9.21,3.64-6.25-3-13.84,12.59-34.46,8.19-10.85,18.89-9.64,68.43-8.71,13.34-1,27.2-1.06,40.44.93,36,5.42,36,49.79,35.6,78C398.36,210.21,406.78,181.68,398.68,154.22Z"/>
            <path class="cls-7" d="M181.83,270.55c0,17.53,15.09,32.05,34.78,34.6a5.54,5.54,0,0,0,6.22-5.5V242.87a6.74,6.74,0,0,0-7.8-6.68C196.11,239.3,181.83,253.5,181.83,270.55Z"/>
            <path class="cls-8" d="M196.38,271.28a18,18,0,0,0,6.82,14.09,6.94,6.94,0,0,0,11.16-5.55V262.73a6.94,6.94,0,0,0-11.16-5.54A18,18,0,0,0,196.38,271.28Z"/>
            <path class="cls-8" d="M334.42,297.38,331.74,299a9.72,9.72,0,0,1-10.4,0l-2.69-1.66c-4-2.47-6.34-7.54-5.91-12.83l2.68-33.14c.55-6.72,5.36-11.86,11.12-11.86h0c5.75,0,10.57,5.14,11.11,11.86l2.68,33.14C340.76,289.84,338.43,294.91,334.42,297.38Z"/>
          </g>
        </g>
        <path class="cls-4" d="M271.53,437.5h24.71a5.7,5.7,0,0,1,5.7,5.7v66.65a5.7,5.7,0,0,1-5.7,5.7H274.5a5.7,5.7,0,0,1-5.7-5.7V440.23A2.73,2.73,0,0,1,271.53,437.5Z"/>
        <path class="cls-9" d="M259,434.15l6.44,27.32a1.61,1.61,0,0,0,3.18-.36l.11-25.7Z"/>
        <circle class="cls-10" cx="279.07" cy="450.68" r="3.56"/>
      </g>
    </g>
  </g>
</svg>
