<svg xmlns="http://www.w3.org/2000/svg" xmlns:xlink="http://www.w3.org/1999/xlink" viewBox="0 0 539.49 591">
  <defs>
    <style>
      .cls-1 {
        fill: none;
      }

      .cls-2 {
        clip-path: url(#clip-path);
      }

      .cls-3 {
        fill: #ffe269;
      }

      .cls-4 {
        fill: #d8dde5;
      }

      .cls-5 {
        opacity: 0.53;
      }

      .cls-6 {
        fill: #8896a8;
      }

      .cls-7 {
        fill: #cad0d8;
      }

      .cls-8 {
        fill: #f4b7a2;
      }

      .cls-9 {
        fill: #c9755b;
      }

      .cls-10 {
        fill: #d18266;
      }

      .cls-11 {
        fill: #0f0f0f;
      }
    </style>
    <clipPath id="clip-path">
      <rect class="cls-1" width="539.49" height="532" rx="266"/>
    </clipPath>
  </defs>
  <g id="Layer_2" data-name="Layer 2">
    <g id="Avatars">
      <g class="cls-2">
        <g>
          <rect class="cls-3" width="539.49" height="532" rx="266"/>
          <path class="cls-4" d="M448.37,493.45a127.81,127.81,0,0,0-79.54-108.87l-75.77-30.64A81.2,81.2,0,0,0,263.58,348l-7-.09a169.24,169.24,0,0,0-105.89,35.6l-41.56,32.29A127.8,127.8,0,0,0,61.2,497.69L47.13,591H453.74Z"/>
          <g class="cls-5">
            <path class="cls-6" d="M358.55,396.73c4.33,52.66-36.82,101.42-89.1,101.52-52.44.11-93.8-48.77-89.47-101.52,3.83-46.64,42.45-85.13,89.29-85.13S354.72,350.05,358.55,396.73Z"/>
          </g>
          <path class="cls-7" d="M358.55,378.08c4.33,50.38-36.82,97-89.1,97.12-52.44.11-93.8-46.66-89.47-97.12,3.83-44.63,42.45-81.45,89.29-81.45S354.72,333.42,358.55,378.08Z"/>
          <path class="cls-4" d="M358.55,378.08c4.33,50.38-36.82,97-89.1,97.12-52.44.11-93.8-46.66-89.47-97.12,3.83-44.63,42.45-81.45,89.29-81.45S354.72,333.42,358.55,378.08Z"/>
          <path class="cls-4" d="M351.8,361.73c2.16,43.21-40.57,78.72-82.35,78.54-41.41-.17-83.78-35.41-81.63-78.54,2.06-41.24,43.83-70.09,82-70.09S349.75,320.63,351.8,361.73Z"/>
          <path class="cls-6" d="M218.12,553.27a5,5,0,0,1-5-5V444.55a5,5,0,0,1,10,0V548.27A5,5,0,0,1,218.12,553.27Z"/>
          <path class="cls-6" d="M324,500.88a5,5,0,0,1-5-5V436a5,5,0,0,1,10,0v59.88A5,5,0,0,1,324,500.88Z"/>
          <g>
            <path class="cls-4" d="M417.72,438.94l-25.64,25.65,25.64,25.64-25.64,25.65,25.64,25.64-25.64,25.65L415.91,591h37.83l-5.37-97.55a127.8,127.8,0,0,0-46.87-89.57l-9.42,9.42Z"/>
            <g class="cls-5">
              <path class="cls-6" d="M172.49,541.52l-25.64-25.64,25.64-25.65-25.64-25.64,25.64-25.65L146.85,413.3l25.64-25.64L161,376.14c-3.5,2.33-6.94,4.79-10.28,7.39l-20.53,16L144,413.3l-25.64,25.64L144,464.59l-25.64,25.64L144,515.88l-25.64,25.64L144,567.17,120.16,591h50.52l-23.83-23.83Z"/>
            </g>
            <g class="cls-5">
              <path class="cls-6" d="M392.08,567.17l25.64-25.65-25.64-25.64,25.64-25.65-25.64-25.64,25.64-25.65L392.08,413.3l9.42-9.42a127.7,127.7,0,0,0-32.67-19.3l-1.55-.63-3.7,3.71,25.64,25.64-25.64,25.64,25.64,25.65-25.64,25.64,25.64,25.65-25.64,25.64,25.64,25.65L365.39,591h50.52Z"/>
            </g>
          </g>
          <g>
            <path class="cls-8" d="M242.68,220c-16.3,0-29.5,12.18-29.5,27.21V372.43c6.35,29.25,33,49.21,61.26,47.17,25.37-1.83,47.21-21.06,52.74-47.17V220Z"/>
            <path class="cls-9" d="M251.1,307.43a14.72,14.72,0,0,0-11.7,21.24C250.59,351,270.2,387.15,282.62,393c7.13,3.38,15,4.11,22,3.75,11.05-.58,20.2-9.45,21.86-21.24l7.54-53.6s-58.91-15.08-72.82-15.08C257.91,306.86,254.45,307.09,251.1,307.43Z"/>
            <path class="cls-8" d="M309.51,363.06l1.55-1.73c-28.71-1-55.11-18.9-70.61-37.85-10.86-13.27-17-29.57-16.4-47l3-86.21c1.26-36.15,36.09-64.27,77.78-62.81l25.77.9c3.83-.22,31.9-5.91,53.77,15.2,20.84,20.11,19.84,49.21,19.43,52.9l-3,86.2C399.32,325,358.31,364.77,309.51,363.06Z"/>
            <path class="cls-10" d="M339.77,288.83l-2.69,1.66a9.72,9.72,0,0,1-10.4,0L324,288.83c-4-2.48-6.34-7.54-5.91-12.83l2.68-33.14c.55-6.72,5.36-11.86,11.11-11.86h0c5.76,0,10.57,5.14,11.12,11.86L345.68,276C346.11,281.29,343.77,286.35,339.77,288.83Z"/>
            <path class="cls-11" d="M401.45,264.31c-.14,3.1-1.22,6.53-1.59,9.67a103.24,103.24,0,0,1-2.4,13.18c-3.07,14.52-11.92,25.41-15.86,30.26-5.36,6.6-8.86,10.8-12.83,10.22-4.51-.66-4.85-6.82-10.32-12.56-7.9-8.3-19.87-8.77-27.46-9.06-5.21-.21-23.74-.93-34.69,10.93-5.69,6.16-5.09,11.11-10.22,12.83-7.21,2.42-15.67-4.9-22.1-10.46A79.48,79.48,0,0,1,243,290.43a84.49,84.49,0,0,1-6.62-29.32l-8.24,1.61a94.7,94.7,0,0,0-1.4,13.83,82.26,82.26,0,0,0,3.94,26.95A75.44,75.44,0,0,0,245.45,331c7.4,8.78,45,51.59,84.35,42.77,17.18-3.85,28.53-16.28,42.3-31.37a151.37,151.37,0,0,0,24.67-36.67l.06-.15a90.83,90.83,0,0,0,4.62-18.3C402.51,280.55,401.09,272.32,401.45,264.31Z"/>
            <path class="cls-8" d="M326.63,317.45c-.73.05-17.74,1.5-20.59,11.38-2.75,9.52,8.66,23.37,21.62,24,14.14.68,26.92-14.52,24.24-24.24C349.59,320.19,336,316.76,326.63,317.45Z"/>
            <path class="cls-11" d="M400.39,143.67C382.91,108.05,341.2,91.16,306.51,91c-10.08-.06-65.84-2.29-88.68,43.61-22.52,45.26-8.15,97-6.08,101.36a4.19,4.19,0,0,1,.2.49l1.94,5.95c1.41,4,0,0,2.5,3.24,1.63,2.11,5.62-8,6.79-4.62l4.93,26.65a4.43,4.43,0,0,0,.19.69h0a4.33,4.33,0,0,0,8.35-.86c1.57-10.13.1-23.62.34-31,.08-2.37.11-4.57.12-6.71a35.32,35.32,0,0,1,11.27-25.43,23.82,23.82,0,0,0,7.05-13.05l3.79-21a4,4,0,0,1,.41-1.21c2.53-4.88,6.84-11.24,14.09-15.43,13.78-7.95,23.24.57,48.48.47,32.44-.11,42.39-12.65,58.93-3.32,11,6.21,16.23,17.52,17.11,19.48,2.73,6.13,3.08,13.59,3.8,28.52.69,14.37.29,28.77.75,28.78,0,0,.06-.07.07-.09C404.57,222.41,418.15,179.84,400.39,143.67Z"/>
            <path class="cls-8" d="M187.18,262c0,17.53,15.09,32,34.78,34.6a5.54,5.54,0,0,0,6.22-5.51V234.31a6.75,6.75,0,0,0-7.81-6.68C201.46,230.74,187.18,245,187.18,262Z"/>
            <path class="cls-9" d="M201.73,262.72a17.94,17.94,0,0,0,6.81,14.09,6.94,6.94,0,0,0,11.17-5.54V254.18a7,7,0,0,0-11.17-5.55A17.94,17.94,0,0,0,201.73,262.72Z"/>
          </g>
          <ellipse class="cls-11" cx="329.68" cy="340.35" rx="8.2" ry="5.94"/>
        </g>
      </g>
    </g>
  </g>
</svg>
