<svg id="Layer_1" data-name="Layer 1" xmlns="http://www.w3.org/2000/svg" xmlns:xlink="http://www.w3.org/1999/xlink" viewBox="0 0 539.91 591">
  <defs>
    <clipPath id="clip-path" transform="translate(-4.35 -6.99)">
      <rect x="4.35" y="6.99" width="539.49" height="532" rx="266" ry="266" style="fill: none"/>
    </clipPath>
  </defs>
  <title>mitchell</title>
  <g style="clip-path: url(#clip-path)">
    <rect width="539.49" height="532" rx="266" ry="266" style="fill: #ffe269"/>
    <path d="M452.71,500.44a127.8,127.8,0,0,0-79.53-108.87l-90-36.38-22.29-.27A169.26,169.26,0,0,0,155,390.52l-41.55,32.29a127.86,127.86,0,0,0-47.95,81.87L51.48,598H458.09Z" transform="translate(-4.35 -6.99)" style="fill: #f4f4f4"/>
    <path d="M281.52,453h0c-30.79,0-64-45.16-64-73.57V254.2c0-15,13.21-27.21,29.5-27.21h84.5V379.42C331.52,407.83,312.31,453,281.52,453Z" transform="translate(-4.35 -6.99)" style="fill: #fcd7ca"/>
    <path d="M257.59,316.56a14.73,14.73,0,0,0-11.71,21.24c11.2,22.35,30.81,58.48,43.23,64.36,7.13,3.38,15,4.11,22,3.75,11.06-.58,20.21-9.46,21.86-21.24l7.54-53.6S281.61,316,267.7,316A101.25,101.25,0,0,0,257.59,316.56Z" transform="translate(-4.35 -6.99)" style="fill: #fc9f86"/>
    <path d="M313.85,370.05l1.55-1.73c-28.7-1-55.11-18.9-70.61-37.85-10.85-13.27-17-29.57-16.39-47l3-86.21c1.26-36.15,36.08-64.27,77.78-62.81l25.77.9c3.83-.22,31.9-5.91,53.77,15.2,20.83,20.11,19.84,49.21,19.43,52.9l-3,86.2C403.67,332,362.66,371.76,313.85,370.05Z" transform="translate(-4.35 -6.99)" style="fill: #fcd7ca"/>
    <rect x="0.41" width="539.49" height="532" rx="266" ry="266" style="fill: none"/>
    <path d="M344.11,295.82l-2.68,1.66a9.72,9.72,0,0,1-10.4,0l-2.68-1.66c-4-2.48-6.34-7.54-5.92-12.83l2.69-33.14c.54-6.72,5.36-11.86,11.11-11.86h0c5.76,0,10.57,5.14,11.11,11.86L350,283C350.46,288.28,348.12,293.34,344.11,295.82Z" transform="translate(-4.35 -6.99)" style="fill: #fc9f86"/>
    <path d="M404.74,150.66c-19.68-43.71-68.24-55-112.36-51.18-37.53,3.26-70.55,28.8-80,65.55a103.34,103.34,0,0,0-.88,47.95c1.84,8.26,4,28.5,6.73,36.39,1.4,4,0,0,2.5,3.24,1.63,2.11,5.62-8,6.78-4.62l5,27,5.08-4.63c8-7.27,8.78-18.92,9.14-29.7q-.17-13.2-.32-26.39c-.24-20.26-3.2-40.63,16.24-53.7a10.14,10.14,0,0,1,3.16-1.56c8.42-2,25.29,8.57,33.21,11.39,12,4.26,24.41,7.11,37.2,5.59,8.64-1,17.76-2.33,24.74-7.94,7.23-5.82,12.28-13.49,21.83-15.78a6.72,6.72,0,0,1,4.34,0,25.1,25.1,0,0,1,10.93,10.24c8.84,14.28,2.33,24.45,4.64,40.65,1.19,8.26,6.53,23.24,4.49,31.39C407.2,234.53,420.08,184.74,404.74,150.66Z" transform="translate(-4.35 -6.99)" style="fill: #443c35"/>
    <path d="M191.52,269c0,17.53,15.09,32,34.79,34.6a5.53,5.53,0,0,0,6.21-5.51V241.3a6.75,6.75,0,0,0-7.8-6.68C205.81,237.73,191.52,251.94,191.52,269Z" transform="translate(-4.35 -6.99)" style="fill: #fcd7ca"/>
    <path d="M206.08,269.71a17.94,17.94,0,0,0,6.81,14.09,6.94,6.94,0,0,0,11.16-5.54V261.17a6.94,6.94,0,0,0-11.16-5.55A17.94,17.94,0,0,0,206.08,269.71Z" transform="translate(-4.35 -6.99)" style="fill: #fc9f86"/>
    <path d="M206.08,362.92s-13.43,19.07,3,46.07,37.8,55.5,66.13,57,51.65-22.5,61-45.5,13.76-38.3,9.8-39.9" transform="translate(-4.35 -6.99)" style="fill: none;stroke: #a3a3a3;stroke-linecap: round;stroke-miterlimit: 10;stroke-width: 4px;opacity: 0"/>
    <path d="M405.8,271.3c-.14,3.1-1.23,6.53-1.59,9.67a79.58,79.58,0,0,1-2.4,13.18c-3.29,11.34-10.71,20.68-19.2,28.66-3.25,3.06-7.77,5.41-12.07,4.24-3-.81-5.27-3.13-7.74-5-9-6.7-23.75-9.42-34.79-8.58-10.32.79-19.26,5.19-27.43,11a25,25,0,0,1-29.55-.22,118.78,118.78,0,0,1-11.46-9.82c-19.5-19-14.45-34.64-19-46.32l-8,1.56c-1.29,8.27-3.31,20.61,2.55,40.78,11.73,40.33,38.74,50.29,66.35,58,13.65,3.79,33.12,5.18,47.86-3.51,5.34-3.15,30.65-10.76,43.89-35.91,5.08-9.68,9.83-17.06,12.63-34.79C406.86,287.54,405.43,279.31,405.8,271.3Z" transform="translate(-4.35 -6.99)" style="fill: #b79d8b"/>
    <path d="M331,324.39c-7.11.57-16.93,4.67-17.45,10.38-.58,6.32,10.26,14.1,20.43,13.39,8.7-.61,18.34-7.53,18.06-13.5C351.74,328.3,340.25,323.63,331,324.39Z" transform="translate(-4.35 -6.99)" style="fill: #fcd7ca"/>
    <g>
      <path d="M260.3,157.76a55.74,55.74,0,0,0,16.85,11.32,15.15,15.15,0,0,0-1.86-7.48c6.2.67,10.61,8.19,16.79,7.36a12.23,12.23,0,0,0-2.89-5.51,29.16,29.16,0,0,0-33.09-7.91" transform="translate(-4.35 -6.99)" style="fill: #443c35"/>
      <path d="M259.24,158.82a61,61,0,0,0,17.15,11.55,1.52,1.52,0,0,0,2.26-1.29,19.78,19.78,0,0,0-2.06-8.23l-1.7,2.2c6.42,1.16,10.32,7.74,17.19,7.41a1.52,1.52,0,0,0,1.45-1.9c-4.19-15.06-25-19.63-37.82-14.46-1.77.71-1,3.61.79,2.89,11.3-4.54,30.36-1.22,34.14,12.37l1.44-1.9c-6.21.3-10.38-6.22-16.39-7.3a1.52,1.52,0,0,0-1.69,2.2,15.09,15.09,0,0,1,1.65,6.72l2.26-1.3a58.85,58.85,0,0,1-16.55-11.08c-1.4-1.33-3.53.79-2.12,2.12Z" transform="translate(-4.35 -6.99)" style="fill: #443c35"/>
    </g>
    <g>
      <path d="M375.64,152.22c-.32-.07.09-.63.34-.41s.11.65-.14.87a4.32,4.32,0,0,0-.77.63l-5.6,7.78c1.59.75,3.47.15,5.09-.52a68.17,68.17,0,0,0,10.09-5.19c1.08-.67,2.27-1.68,2-2.92a3,3,0,0,0-1.79-1.83,16.5,16.5,0,0,0-15.35.34" transform="translate(-4.35 -6.99)" style="fill: #443c35"/>
      <path d="M376.94,151.47l-.12-.19v1.51l.18-.23-1.29.74H376l-1.45-1.11c-.12-.45-2.75,3.12-2.76,3.13l-3.59,5a1.5,1.5,0,0,0,.89,2.2c4.06,1.24,8.47-1.5,12-3.34,2.42-1.27,7.72-3.33,7.12-6.93-.53-3.17-5.34-4.26-7.92-4.65a18.59,18.59,0,0,0-11.45,2.06c-1.71.89-.2,3.48,1.52,2.59a15.68,15.68,0,0,1,7.4-1.86,15.27,15.27,0,0,1,3.3.4c1.55.37,3.15.37,3,2.2-.14,2-3.88,3.3-5.61,4.18-2.42,1.21-5.73,3.32-8.53,2.46l.9,2.2c1.79-2.48,3.56-5,5.46-7.38.87-1.09,1.6-1.6,1.2-3.05a1.53,1.53,0,0,0-1.45-1.1,1.91,1.91,0,0,0-1.75,1,1.46,1.46,0,0,0,0,1.51l.12.19a1.5,1.5,0,0,0,2.59-1.51Z" transform="translate(-4.35 -6.99)" style="fill: #443c35"/>
    </g>
    <g>
      <path d="M386.37,128.71c-3.08-2.86-3.87-7.32-5.31-11.26s-4.5-8.08-8.69-7.88a8.57,8.57,0,0,0,1.73,6.9,46.57,46.57,0,0,0-7.85-8.72c-3.08-2.42-7-4.07-10.87-3.67a13.39,13.39,0,0,0,5.49,6.8,33.76,33.76,0,0,0-22.31-10,26.28,26.28,0,0,0,9.95,6.72" transform="translate(-4.35 -6.99)" style="fill: #443c35"/>
      <path d="M387.43,127.64c-5.7-6.08-4.37-18.87-15.06-19.57a1.54,1.54,0,0,0-1.5,1.5,10.73,10.73,0,0,0,1.94,7.66l2.59-1.51c-5.11-6.72-10.88-13.41-20-13.14a1.53,1.53,0,0,0-1.3,2.26,16.37,16.37,0,0,0,6,7.33c1.41,1,3-1.18,1.82-2.35a36.66,36.66,0,0,0-23.37-10.4A1.52,1.52,0,0,0,337.5,102a31,31,0,0,0,10.62,7.11c1.78.74,2.55-2.16.79-2.89a27.39,27.39,0,0,1-9.29-6.34l-1.06,2.56a33.38,33.38,0,0,1,21.25,9.52l1.82-2.36a13.75,13.75,0,0,1-5-6.25l-1.29,2.25c8-.24,13,5.83,17.43,11.65,1.13,1.5,3.68.13,2.59-1.51a9.24,9.24,0,0,1-1.53-6.15l-1.5,1.5c8.06.53,8.24,13.69,12.94,18.7,1.32,1.41,3.44-.72,2.12-2.13Z" transform="translate(-4.35 -6.99)" style="fill: #443c35"/>
    </g>
    <g>
      <path d="M410.72,177.94c.79-9,1.54-18.35-1.48-26.88a12.1,12.1,0,0,0-2.54,8.27c-.23-13.65-11.1-24.55-15.76-37.37a12.24,12.24,0,0,0-.88,11.53" transform="translate(-4.35 -6.99)" style="fill: #443c35"/>
      <path d="M412.22,177.94c.79-9.2,1.34-18.36-1.54-27.28a1.52,1.52,0,0,0-2.74-.35,14.9,14.9,0,0,0-2.74,9h3c-.65-14.28-10.9-24.94-15.82-37.77a1.52,1.52,0,0,0-2.74-.36,14.38,14.38,0,0,0-1,12.69c.67,1.79,3.57,1,2.89-.79a11.54,11.54,0,0,1,.72-10.39l-2.74-.36c4.77,12.45,15.08,23.19,15.71,37,.09,1.92,3,1.94,3,0a12.32,12.32,0,0,1,2.33-7.51l-2.74-.36c2.81,8.68,2.2,17.54,1.43,26.48-.17,1.92,2.83,1.91,3,0Z" transform="translate(-4.35 -6.99)" style="fill: #443c35"/>
    </g>
    <g>
      <path d="M212.67,165.48a35.92,35.92,0,0,1,4.23-20l1.88,4.8c5.64-6.56,1.58-18.13,7.7-24.24a34.07,34.07,0,0,1,.62,9.77,153.51,153.51,0,0,1,23.67-29.59l-2.51,9.7c4.1-3,7.06-7.35,10.52-11.12s7.83-7.18,12.93-7.52l-4.58,7.89A81.37,81.37,0,0,0,288.79,99c6.3-2.82,12.94-6.55,19.67-5a5.36,5.36,0,0,1-4.76,4.65,211.43,211.43,0,0,0,21.59-5.8l-5.77,6.28a102.54,102.54,0,0,0,20.09-1.7c-.11,3-3.81,4.28-6.77,4.86-15.09,3-29.59,8.25-44,13.53-17.77,6.51-36.6,13.8-47.64,29.16-2.22,3.09-4.07,6.45-6.51,9.38-4.2,5-9.92,8.54-15.53,11.95-2.71,1.65-7.17,2.77-8.27-.21" transform="translate(-4.35 -6.99)" style="fill: #443c35"/>
      <path d="M214.17,165.48a36.64,36.64,0,0,1,4-19.2l-2.74-.36,1.88,4.8a1.52,1.52,0,0,0,2.74.35c5.37-7,1.64-17.33,7.47-23.93l-2.51-.66a38.24,38.24,0,0,1,.57,9.37c-.08,1.54,2.05,2,2.8.75a158.53,158.53,0,0,1,23.43-29.28l-2.5-1.46-2.52,9.7a1.52,1.52,0,0,0,2.51,1.46c7.34-5.87,12.17-16.9,22.39-18.2l-1.3-2.25-4.58,7.88a1.52,1.52,0,0,0,1.7,2.2,84.61,84.61,0,0,0,19.26-5.22c6.83-2.8,13.58-7.31,21.27-6L307,93.56a3.93,3.93,0,0,1-3.7,3.59l.79,2.9c7.3-1.59,14.48-3.52,21.59-5.81l-1.46-2.5L318.46,98a1.52,1.52,0,0,0,1.06,2.56A115.31,115.31,0,0,0,340,98.83L338.17,97c-.72,3.76-6.68,4-9.49,4.6-3.12.69-6.23,1.48-9.31,2.33-6.78,1.9-13.47,4.13-20.11,6.49-11.26,4-22.7,7.9-33.44,13.2-9.46,4.68-18.42,10.74-24.91,19.19-3.77,4.93-6.56,10.38-11.33,14.51-2.14,1.84-14.88,12.42-17.42,8a1.5,1.5,0,0,0-2.59,1.52c1.92,3.35,5.7,2.88,8.84,1.5a52.26,52.26,0,0,0,16.24-11.71c4.69-5.08,7.62-11.43,12.47-16.41A68.37,68.37,0,0,1,263.91,128c13.08-7,27.58-11.79,41.6-16.57a226.29,226.29,0,0,1,24-6.92c4.28-1,10.57-1.4,11.58-6.69a1.53,1.53,0,0,0-1.85-1.85,110.12,110.12,0,0,1-19.69,1.65l1.06,2.56,5.77-6.28a1.51,1.51,0,0,0-1.46-2.51q-10.65,3.42-21.58,5.8c-1.89.41-1.09,3.29.79,2.9a7.14,7.14,0,0,0,5.81-5.7,1.53,1.53,0,0,0-1.05-1.84c-6.7-1.11-12.45,1.32-18.45,4.06a88.47,88.47,0,0,1-23.68,7.19l1.7,2.21L273,98.08c.51-.89-.13-2.41-1.3-2.26-11.49,1.46-16.26,12.48-24.51,19.08l2.5,1.46,2.52-9.7a1.51,1.51,0,0,0-2.51-1.46,161.29,161.29,0,0,0-23.9,29.89l2.79.76a41.25,41.25,0,0,0-.68-10.17,1.5,1.5,0,0,0-2.5-.66c-6.21,7-2.44,17.31-7.94,24.54l2.74.36-1.88-4.79c-.43-1.1-2.1-1.62-2.74-.36a39.71,39.71,0,0,0-4.43,20.71c.11,1.92,3.11,1.93,3,0Z" transform="translate(-4.35 -6.99)" style="fill: #443c35"/>
    </g>
    <g>
      <path d="M245.45,223.31A67.61,67.61,0,0,1,248.93,247a10.83,10.83,0,0,1-1.93-4.42c-.92.44-1.11,1.63-1.2,2.64a90.64,90.64,0,0,1-5.24,23,22.76,22.76,0,0,1-2.05-9.74,3.69,3.69,0,0,0-1.7,2.65c-.62,0-1-.69-1.24-1.26-1.33-3.36-1.35-7.08-1.37-10.7s-.08-7.34-1.49-10.66-4.52-6.21-8.14-6.22c-4.92,0-8.54,4.93-13.39,5.81a13,13,0,0,0,3.14-11.25c-.37-1.83-1.15-3.68-.77-5.52" transform="translate(-4.35 -6.99)" style="fill: #443c35"/>
      <path d="M244,223.71A71.09,71.09,0,0,1,247.43,247l2.8-.75a9.7,9.7,0,0,1-1.79-4.07,1.52,1.52,0,0,0-2.51-.66c-2.52,2.39-2,7.4-2.55,10.51a94.61,94.61,0,0,1-4.27,15.76H242a25.43,25.43,0,0,1-2-9.34,1.52,1.52,0,0,0-2.56-1.07,6.11,6.11,0,0,0-2.09,3.32l2.2-.9c-3.26-1.82-1.72-13.23-2.14-16.5-.49-3.93-1.84-7.81-5-10.35-7.17-5.7-12.8,1.92-19.6,3.67l1.46,2.51a15.64,15.64,0,0,0,3.64-7.59c.56-3.59-1.06-6.72-.83-10.24.12-1.93-2.88-1.92-3,0-.39,5.93,2.5,10.27-1.93,15.71a1.52,1.52,0,0,0,1.46,2.51c3.33-.86,5.79-2.88,8.78-4.45,6-3.15,10.7,1.18,11.91,7.25,1,5-1.71,17,3.78,20.07a1.51,1.51,0,0,0,2.2-.9l1.32-2L237,258.41a27.2,27.2,0,0,0,2.1,10.13,1.51,1.51,0,0,0,2.89,0,95.76,95.76,0,0,0,3.76-13.08c.53-2.56.44-10.11,2.3-11.86l-2.51-.66a16.4,16.4,0,0,0,2.09,4.78,1.51,1.51,0,0,0,2.79-.76,73.55,73.55,0,0,0-3.54-24.05c-.58-1.83-3.48-1-2.89.8Z" transform="translate(-4.35 -6.99)" style="fill: #443c35"/>
    </g>
  </g>
</svg>
