<svg xmlns="http://www.w3.org/2000/svg" xmlns:xlink="http://www.w3.org/1999/xlink" viewBox="0 0 539.91 591">
  <defs>
    <style>
      .cls-1 {
        fill: none;
      }

      .cls-2 {
        clip-path: url(#clip-path);
      }

      .cls-3 {
        fill: #c1d354;
      }

      .cls-4 {
        fill: #4096ad;
      }

      .cls-5 {
        fill: #fcd7ca;
      }

      .cls-6 {
        fill: #fc9f86;
      }

      .cls-7 {
        fill: #1e1713;
      }

      .cls-8 {
        opacity: 0;
      }

      .cls-9 {
        fill: #a3a3a3;
      }

      .cls-10 {
        fill: #c48d82;
      }

      .cls-11 {
        opacity: 0.61;
      }

      .cls-12 {
        fill: #4c1219;
      }

      .cls-13 {
        fill: #c6cee0;
      }

      .cls-14 {
        fill: #ad7168;
      }
    </style>
    <clipPath id="clip-path">
      <rect class="cls-1" width="539.49" height="532" rx="266"/>
    </clipPath>
  </defs>
  <g id="Layer_2" data-name="Layer 2">
    <g id="Avatars">
      <g>
        <g class="cls-2">
          <rect class="cls-3" width="539.49" height="532" rx="266"/>
          <path class="cls-4" d="M448.37,493.45a127.81,127.81,0,0,0-79.54-108.87L278.88,348.2l-22.29-.27a169.24,169.24,0,0,0-105.89,35.6l-41.56,32.29A127.8,127.8,0,0,0,61.2,497.69L47.13,591H453.74Z"/>
          <path class="cls-5" d="M277.18,446h0c-30.8,0-64-45.16-64-73.57V247.21c0-15,13.2-27.21,29.5-27.21h84.5V372.43C327.18,400.84,308,446,277.18,446Z"/>
          <path class="cls-6" d="M253.24,309.57a14.73,14.73,0,0,0-11.71,21.24c11.2,22.35,30.81,58.48,43.23,64.36,7.13,3.38,15,4.11,22,3.75,11.06-.58,20.21-9.46,21.87-21.24l7.54-53.6S277.27,309,263.36,309C260,309,256.59,309.23,253.24,309.57Z"/>
          <path class="cls-5" d="M309.51,363.06l1.55-1.73c-28.71-1-51.51-20.74-67-39.69-10.85-13.27-20.61-27.73-20-45.16l3-86.21c1.26-36.15,36.09-64.27,77.78-62.81l25.77.9c3.83-.22,31.9-5.91,53.77,15.2,20.84,20.11,19.84,49.21,19.43,52.9l-3,86.2C399.32,325,358.31,364.77,309.51,363.06Z"/>
          <rect class="cls-1" x="0.41" width="539.49" height="532" rx="266"/>
          <path class="cls-6" d="M339.77,288.83l-2.69,1.66a9.72,9.72,0,0,1-10.4,0L324,288.83c-4-2.48-6.34-7.54-5.91-12.83l2.68-33.14c.55-6.72,5.36-11.86,11.11-11.86h0c5.76,0,10.57,5.14,11.12,11.86L345.68,276C346.11,281.29,343.77,286.35,339.77,288.83Z"/>
          <path class="cls-7" d="M397.54,149.37c-.37-.44-2.63-3.12-5.37-7.08-1-1.43-2.05-3.1-3.17-5-3.65-6.36-4.15-9.3-8.08-12.35-2.83-2.21-3.85-1.67-8.55-4.76-4.05-2.65-5.73-4.65-8.08-6.65-5-4.28-10-5.92-16.63-8.08-8.14-2.67-14.51-3.12-24.24-3.8-4.39-.31-8.47-.37-16.63-.48-8.94-.12-13.49-.23-17.11,0-10.13.66-15.19,1-20,3.81-4,2.34-5,4.44-9.75,5.94-2.74.86-4.83.92-8.31,2.61a29.56,29.56,0,0,0-5.23,3.33c-5.55,4.11-9,5.52-12.36,7.6-15.41,9.7-23.58,32.18-26.14,39.21h0c-18.08,43.33,2.17,82.78,5.12,88.3L219.8,246l5.94,28.11c11.18-10.07,14.44-26.31,14.41-41.36s-2.7-30.16-.64-45.07c1-7,5.07-20,16.19-27.92,9.82-7,21.41-6.18,44.19-4.33,2.54.21,9,1.65,18,2.36,6.93.55,11.8.52,13.7.49a134.27,134.27,0,0,0,15-1.07c21-2.65,24.9-8,32.9-5.14,6.34,2.31,9.81,7.74,11.77,11.2,5.86,10.34,3.72,22.57,4.48,33.88,0,0-.74,27.16,4.46,35.54.34.56,1.35,2.18,2.11,2,1.25-.31,1-5.25.95-6.66C402.71,213.72,406.1,159.67,397.54,149.37Z"/>
          <path class="cls-5" d="M187.18,262c0,17.53,15.09,32,34.78,34.6a5.54,5.54,0,0,0,6.22-5.51V234.31a6.75,6.75,0,0,0-7.81-6.68C201.46,230.74,187.18,245,187.18,262Z"/>
          <path class="cls-6" d="M201.73,262.72a17.94,17.94,0,0,0,6.81,14.09,6.94,6.94,0,0,0,11.17-5.54V254.18a7,7,0,0,0-11.17-5.55A17.94,17.94,0,0,0,201.73,262.72Z"/>
          <g class="cls-8">
            <path class="cls-9" d="M273.46,461.07c-.89,0-1.78,0-2.67-.07-29.68-1.57-51.79-31.8-67.73-58-16.95-27.8-3.54-47.44-3-48.26a2,2,0,1,1,3.28,2.3c-.53.76-12.41,18.42,3.1,43.88s36.72,54.57,64.53,56c27.61,1.47,50-21.91,59-44.25,12.85-31.64,11.35-36.6,10.83-37.33a2,2,0,0,1,1.57-3.68,4,4,0,0,1,2.16,2.22c1.31,3.09,1.26,10.47-10.85,40.29C324.44,437.15,301.79,461.07,273.46,461.07Z"/>
          </g>
          <path class="cls-10" d="M401.45,264.31c-.14,3.1-1.22,6.53-1.59,9.67a78.55,78.55,0,0,1-2.4,13.18c-3.29,11.34-10.7,20.68-19.19,28.66-3.25,3.06-7.78,5.41-12.08,4.24-3-.81-5.26-3.13-7.74-5-9-6.7-23.75-9.42-34.79-8.58-10.32.79-19.26,5.19-27.43,11a25,25,0,0,1-29.55-.22,118.78,118.78,0,0,1-11.46-9.82c-19.5-19-14.45-34.64-19-46.32l-8,1.56c-3.54.69-3.82,30.24,8.77,53.44,14.91,27.49,55.17,59.85,100.73,47.78,40.88-10.84,61.62-51,63.77-76.69C402.05,280.15,401.48,263.72,401.45,264.31Z"/>
          <path class="cls-5" d="M326.64,317.4c-7.11.57-16.93,4.67-17.45,10.38-.58,6.32,10.24,13.58,20.41,12.87,8.7-.61,18.36-7,18.09-13C347.39,321.31,335.91,316.64,326.64,317.4Z"/>
        </g>
        <path class="cls-7" d="M229.32,218.51l16.36-11.19a19,19,0,0,0,7.77-20l-7-30.11-18.54,21.39Z"/>
        <g class="cls-11">
          <path class="cls-12" d="M282.42,278.39h0a33.86,33.86,0,0,1-33.85-33.85h0a18.9,18.9,0,0,1,18.89-18.9H308a8.27,8.27,0,0,1,8.27,8.27v10.63A33.86,33.86,0,0,1,282.42,278.39Z"/>
        </g>
        <g class="cls-11">
          <path class="cls-12" d="M381.51,278.39h0a33.86,33.86,0,0,0,33.86-33.85h0a18.9,18.9,0,0,0-18.9-18.9H355.92a8.26,8.26,0,0,0-8.26,8.27v10.63A33.85,33.85,0,0,0,381.51,278.39Z"/>
        </g>
        <path class="cls-13" d="M252.61,240H234.07a2,2,0,0,1,0-4h18.54a2,2,0,0,1,0,4Z"/>
        <path class="cls-14" d="M310.82,229.75a1.5,1.5,0,0,1-.32-3,99.44,99.44,0,0,1,43.43,0,1.5,1.5,0,0,1-.66,2.93,96.24,96.24,0,0,0-42.12,0A1.84,1.84,0,0,1,310.82,229.75Z"/>
      </g>
    </g>
  </g>
</svg>
