<svg xmlns="http://www.w3.org/2000/svg" xmlns:xlink="http://www.w3.org/1999/xlink" viewBox="0 0 539.91 591">
  <defs>
    <style>
      .cls-1, .cls-12, .cls-9 {
        fill: none;
      }

      .cls-2 {
        clip-path: url(#clip-path);
      }

      .cls-3 {
        fill: #ffe269;
      }

      .cls-4 {
        fill: #e5384c;
      }

      .cls-5 {
        fill: #f44a5a;
      }

      .cls-6 {
        fill: #151823;
      }

      .cls-7 {
        fill: #f7c5b7;
      }

      .cls-8 {
        fill: #ed9580;
      }

      .cls-9 {
        stroke: #a3a3a3;
        stroke-width: 4px;
        opacity: 0;
      }

      .cls-12, .cls-9 {
        stroke-linecap: round;
        stroke-miterlimit: 10;
      }

      .cls-10 {
        fill: #c48d82;
      }

      .cls-11 {
        fill: #5b372d;
      }

      .cls-12 {
        stroke: #151823;
        stroke-width: 10px;
      }
    </style>
    <clipPath id="clip-path">
      <rect class="cls-1" width="539.49" height="532" rx="266"/>
    </clipPath>
  </defs>
  <g id="Layer_2" data-name="Layer 2">
    <g id="Avatars">
      <g class="cls-2">
        <g>
          <rect class="cls-3" width="539.49" height="532" rx="266"/>
          <g>
            <path class="cls-4" d="M448.37,493.45a127.81,127.81,0,0,0-79.54-108.87L278.88,348.2l-22.29-.27a169.24,169.24,0,0,0-105.89,35.6l-41.56,32.29A127.8,127.8,0,0,0,61.2,497.69L47.13,591H453.74Z"/>
            <path class="cls-5" d="M384.09,377.37c-7.11-7.92-17.12-14.23-26.64-15.69a47.54,47.54,0,0,0-7-1h-.07c-6.88,3.72-16.25,6.7-23.88,8.33l-.08.1s0,2.55,0,2.56a29.67,29.67,0,0,1-26.32,26.52L262,402.34a43.74,43.74,0,0,1-48.53-42.08c0-.17,0-.34,0-.51-.26-11.94-.13-16.3-.31-23.42a1.32,1.32,0,0,0-.25-.81c-1.47-1.92-8.84,1.43-11.44,2.61-12.15,5.51-23.6,13.8-34.18,21.82-7.13,5.4-35.09,25-19,33.16,3.23,1.65,6.87,2.24,10.35,3.27,16.91,5,28.73,19.77,40.45,33,15.74,17.74,33.54,33.46,51.63,48.71,8,6.75,17.84,12.42,28.27,11.7,7.78-.53,14.89-4.56,21.11-9.26,17-12.88,29-30.78,43.18-46.41,7.23-7.95,15-15.46,24.24-21.12,7.08-4.35,20.44-6.53,24.13-14.53,1.6-3.47,1-7.63-.69-11.07A44.73,44.73,0,0,0,384.09,377.37Z"/>
            <path class="cls-6" d="M260.5,329.07c-17.71-14.92-44.83-3-45.81,20.14l-1.51,36.05c0,28.41,33,81.52,63.78,81.52h.36c25.33,0,42.72-35.94,48.1-64.5A27.88,27.88,0,0,0,316,375.83Z"/>
          </g>
          <path class="cls-7" d="M242.68,220c-16.3,0-29.5,12.18-29.5,27.21V372.43c0,28.41,33,73.68,63.78,73.68h.72c30.79,0,49.5-45.27,49.5-73.68V220Z"/>
          <path class="cls-8" d="M253.24,303.49a14.73,14.73,0,0,0-11.71,21.24c11.2,22.34,30.81,58.48,43.23,64.36,7.13,3.38,15,4.11,22,3.75,11.06-.58,20.21-9.46,21.87-21.24l7.54-53.6s-58.91-15.08-72.82-15.08C260,302.92,256.59,303.15,253.24,303.49Z"/>
          <path class="cls-7" d="M309.57,361.28l1.55-1.71c-28.71-1-55.12-18.78-70.62-37.59-10.86-13.17-17-29.36-16.41-46.66l3-85.55c1.25-35.88,36.07-63.78,77.76-62.32l25.77.9c3.83-.22,31.9-5.86,53.77,15.1,20.84,20,19.86,48.85,19.45,52.5l-3,85.56C399.37,323.51,358.38,363,309.57,361.28Z"/>
          <rect class="cls-1" x="0.41" width="539.49" height="532" rx="266"/>
          <path class="cls-8" d="M339.77,288.83l-2.69,1.66a9.72,9.72,0,0,1-10.4,0L324,288.83c-4-2.48-6.34-7.54-5.91-12.83l2.68-33.14c.55-6.72,5.36-11.86,11.11-11.86h0c5.76,0,10.57,5.14,11.12,11.86L345.68,276C346.11,281.29,343.77,286.35,339.77,288.83Z"/>
          <path class="cls-9" d="M201.73,355.93s-13.42,19.07,3,46.07,37.79,55.5,66.12,57,51.65-22.5,61-45.5,13.76-38.3,9.8-39.9"/>
          <path class="cls-10" d="M401.45,264.27c-.14,3-1.22,6.35-1.59,9.41a74.58,74.58,0,0,1-2.4,12.83c-3.29,11-10.7,20.13-19.19,27.9-3.25,3-7.78,5.26-12.08,4.12-3-.79-5.26-3-7.74-4.84-9-6.53-23.75-9.18-34.79-8.36-10.32.77-19.26,5.05-27.43,10.73a25.56,25.56,0,0,1-29.55-.22,115.77,115.77,0,0,1-11.46-9.56c-19.5-18.47-17.4-31.56-22-42.93l-5.08-.63c-1.3,8-3.32,20.06,2.54,39.69,2.43,8.13,6.65,21.3,18.14,32.4,6.78,6.55,14.6,10.22,30.24,17.56.57.26,6.92,2.91,19.61,8.19,15.39,6.42,17.92,7.43,22.45,7.84a43.19,43.19,0,0,0,21-3.56c6.16-2.67,7.77-5.07,21.39-18.18,13.88-13.36,20.81-19.13,25.24-26.21a106.73,106.73,0,0,0,7.52-14.79c.24-.59.41-1.05.52-1.34a86.87,86.87,0,0,0,4.59-17.72C402.51,280.07,401.09,272.07,401.45,264.27Z"/>
          <path class="cls-7" d="M326.21,321c-7.17,1-17.17,6.64-17.9,14-.81,8.18,9.81,17.85,20,16.57,8.76-1.09,18.69-10.38,18.63-18.09C346.91,325.31,335.54,319.68,326.21,321Z"/>
          <rect class="cls-1" width="539.49" height="532" rx="266"/>
          <rect id="SVGID" class="cls-1" width="539.49" height="532" rx="266"/>
          <path class="cls-11" d="M397.71,145.12c-8.59-17.78-25.11-30.38-44.82-39.05C314.43,89.16,249.15,99.21,221.4,142,205.7,166.14,206,194.7,206,200.88c.19,19.38,6.26,33,7.86,41.5,0,.16.37,1.9.77,2,.14,0,.24-.65,1.73,1.29,1.63,2.11,5.62-8,6.79-4.62l5,27a27.82,27.82,0,0,0,5.08-4.63c14.15-16.67-1.94-39.79,4.27-75.65,1.71-9.88,3.95-21.9,13.7-31.12l.23-.22a15.5,15.5,0,0,1,15-3.47c15.49,4.54,38.89,5.87,52.07,5.09,3.61-.21,26.82-2.94,43.46-8.33A25.89,25.89,0,0,1,391,159l.14.2c4.88,6.94,6.38,15.69,6.94,24.16.77,11.77-1.94,27.22,4,37.82,2.32-15.51,2.51-34.07,1.94-49.88A65,65,0,0,0,397.71,145.12Z"/>
          <path class="cls-7" d="M187.18,262c0,17.53,15.09,32,34.78,34.6a5.54,5.54,0,0,0,6.22-5.51V234.31a6.75,6.75,0,0,0-7.81-6.68C201.46,230.74,187.18,245,187.18,262Z"/>
          <path class="cls-8" d="M201.73,262.72a17.94,17.94,0,0,0,6.81,14.09,6.94,6.94,0,0,0,11.17-5.54V254.18a7,7,0,0,0-11.17-5.55A17.94,17.94,0,0,0,201.73,262.72Z"/>
          <path class="cls-11" d="M228.37,222s20.44-20.44,23.29-25.66-12.36-39.93-13.78-40.88S230.27,151.22,226,166,228.37,222,228.37,222Z"/>
          <line class="cls-12" x1="218.15" y1="442.54" x2="218.15" y2="503.14"/>
          <line class="cls-12" x1="328.65" y1="441.47" x2="328.65" y2="497.08"/>
        </g>
      </g>
    </g>
  </g>
</svg>
